<svg width="63" height="62" viewBox="0 0 63 62" fill="none" xmlns="http://www.w3.org/2000/svg">
<path d="M31.3661 4.79982C17.4542 4.79982 6.17371 16.5152 6.17371 30.9667C6.17371 45.4183 17.4542 57.1313 31.3661 57.1313C45.278 57.1313 56.5616 45.4159 56.5616 30.9667C56.5616 16.5176 45.2811 4.79982 31.3661 4.79982ZM47.5228 30.8561L33.536 44.8145C32.1375 46.1812 30.2578 46.9466 28.3002 46.9466C26.3426 46.9466 24.4629 46.1812 23.0644 44.8145L15.2125 36.9772C13.8398 35.6076 13.0687 33.7501 13.0687 31.8132C13.0687 29.8763 13.8398 28.0188 15.2125 26.6492C16.5852 25.2796 18.4469 24.5102 20.3882 24.5102C22.3294 24.5102 24.1911 25.2796 25.5638 26.6492L28.2967 29.3759L37.1676 20.5251C37.8473 19.8469 38.6542 19.309 39.5422 18.942C40.4303 18.575 41.3821 18.3861 42.3433 18.3861C43.3045 18.3861 44.2563 18.575 45.1443 18.942C46.0323 19.309 46.8392 19.8469 47.5189 20.5251C48.1986 21.2032 48.7378 22.0083 49.1056 22.8943C49.4734 23.7804 49.6628 24.73 49.6628 25.689C49.6628 26.6481 49.4734 27.5977 49.1056 28.4837C48.7378 29.3698 48.1986 30.1749 47.5189 30.8531L47.5228 30.8561Z" fill="#A09DFF"/>
<path d="M46.2252 22.0085L46.0425 21.8261C45.536 21.3206 44.9347 20.9195 44.2729 20.6458C43.611 20.3722 42.9016 20.2313 42.1852 20.2313C41.4688 20.2313 40.7594 20.3722 40.0975 20.6458C39.4357 20.9195 38.8344 21.3206 38.328 21.8261L29.5289 30.6053L24.2396 35.8826C23.7329 36.3879 23.3309 36.9879 23.0566 37.6482C22.7823 38.3086 22.6411 39.0164 22.6411 39.7312C22.6411 40.446 22.7823 41.1538 23.0566 41.8141C23.3309 42.4745 23.7329 43.0745 24.2396 43.5797L24.4223 43.762C25.4458 44.7818 26.8331 45.3546 28.2796 45.3546C29.726 45.3546 31.1133 44.7818 32.1368 43.762L35.4873 40.4191L46.2252 29.7056C46.7319 29.2002 47.1337 28.6002 47.408 27.9399C47.6821 27.2795 47.8233 26.5717 47.8233 25.857C47.8233 25.1422 47.6821 24.4344 47.408 23.7741C47.1337 23.1137 46.7319 22.5138 46.2252 22.0085ZM28.2999 44.0106C27.4472 44.0103 26.6139 43.7577 25.9051 43.2848C25.1963 42.8119 24.6441 42.14 24.3181 41.3539C23.9921 40.5679 23.907 39.703 24.0737 38.8687C24.2403 38.0344 24.6512 37.2682 25.2543 36.6669C25.8574 36.0656 26.6256 35.6562 27.462 35.4906C28.2982 35.3249 29.1649 35.4104 29.9526 35.7362C30.7402 36.0621 31.4132 36.6136 31.8867 37.3211C32.3601 38.0286 32.6127 38.8602 32.6123 39.7109C32.6117 40.8515 32.1571 41.9452 31.3483 42.7514C30.5396 43.5576 29.4431 44.0102 28.2999 44.0098V44.0106Z" fill="#A09DFF"/>
</svg>
