<svg width="47" height="47" viewBox="0 0 47 47" fill="none" xmlns="http://www.w3.org/2000/svg">
<path d="M23.5198 9.47626H23.5504C24.6964 9.47626 25.759 9.86015 26.611 10.5035H26.6158C27.2046 10.9467 27.6928 11.5154 28.0413 12.1625L33.7403 22.0805L33.7748 22.16L38.1373 29.7296C38.6016 30.5117 38.8458 31.4097 38.8458 32.3268C38.8458 33.0458 38.6964 33.7332 38.4274 34.3564L38.4322 34.3765C38.2283 34.8398 37.9583 35.2639 37.6242 35.6478C37.2451 36.0873 36.7971 36.4644 36.2878 36.7545C35.5343 37.1939 34.6766 37.4275 33.8054 37.4371H33.7202C32.6135 37.4371 31.5413 37.0781 30.6596 36.4099H30.6548C30.0661 35.9666 29.5778 35.398 29.2294 34.7508L23.5303 24.8328L23.4959 24.7534L19.1123 17.1493C18.6594 16.371 18.4239 15.4883 18.4239 14.5865C18.4239 14.0475 18.5082 13.5248 18.6642 13.0356L18.6728 13.005L18.6882 12.9657C18.7533 12.7666 18.8375 12.5369 18.8375 12.5369C19.0366 12.0783 19.3114 11.6551 19.635 11.2808L19.7154 11.1861L19.7345 11.166V11.1612H19.7393L19.7498 11.1458L19.7604 11.142C20.1041 10.7629 20.5138 10.4288 20.9819 10.1588C21.7353 9.71942 22.5931 9.48583 23.4643 9.47626H23.5198ZM13.329 37.438H13.2534C12.3812 37.4275 11.5235 37.1939 10.771 36.7555C10.2617 36.4654 9.81367 36.0882 9.43457 35.6488C9.10046 35.2649 8.83049 34.8408 8.62658 34.3775L8.63137 34.3574C8.35183 33.7188 8.21301 33.0257 8.21301 32.3278C8.21301 31.3753 8.47245 30.4888 8.92144 29.7306L13.284 22.1609L13.3185 22.0815L17.1976 15.3351C17.2924 16.1575 17.5461 16.9655 17.9558 17.7026L18.0295 17.828L22.3375 25.3019V25.2876L22.4227 25.4714L22.7913 26.1195L17.8294 34.7508C17.481 35.398 16.9918 35.9676 16.404 36.4099H16.3992C15.5175 37.079 14.4453 37.4371 13.3386 37.4371L13.329 37.438Z" fill="#59597F"/>
</svg>
