<svg width="63" height="63" viewBox="0 0 63 63" fill="none" xmlns="http://www.w3.org/2000/svg">
<path d="M54.9627 50.9047C54.9723 52.7378 54.1948 54.4869 52.8275 55.7078C51.4602 56.9288 49.6346 57.5042 47.8143 57.288C44.5386 56.8033 42.1382 53.9527 42.218 50.6424V12.5833C42.1389 9.26935 44.5452 6.41744 47.8252 5.93773C49.6438 5.72487 51.4663 6.30182 52.8311 7.52239C54.1959 8.74296 54.9719 10.49 54.9627 12.321V50.9047Z" fill="#A09DFF"/>
<path d="M14.8594 44.598C18.3787 44.598 21.2317 47.4509 21.2317 50.9703C21.2317 54.4896 18.3787 57.3426 14.8594 57.3426C11.34 57.3426 8.48706 54.4896 8.48706 50.9703C8.48706 47.4509 11.34 44.598 14.8594 44.598ZM31.6264 25.2842C28.0904 25.4781 25.3469 28.4441 25.4289 31.9845V49.1012C25.4289 53.7466 27.4729 56.5666 30.4678 57.1677C32.3479 57.5488 34.2998 57.064 35.7832 55.8476C37.2666 54.6312 38.1243 52.8121 38.1189 50.8938V31.6894C38.1221 29.9744 37.4362 28.3301 36.2154 27.1257C34.9945 25.9214 33.3411 25.2579 31.6264 25.2842Z" fill="#A09DFF"/>
</svg>
