<svg width="72" height="63" viewBox="0 0 72 63" fill="none" xmlns="http://www.w3.org/2000/svg">
<path d="M50.6423 29.9324H49.7459L49.6008 29.8603C47.5436 29.516 45.4863 29.1718 43.4313 28.8321C43.195 28.7926 43.0873 28.7926 42.9726 28.8321C41.9849 29.1718 41.1049 29.4346 40.2834 29.637C39.8247 29.7487 39.3683 29.8045 38.9259 29.8557C38.741 29.8766 38.5538 29.8999 38.3689 29.9255L38.2683 29.9324L36.4357 29.9208C36.4006 29.9138 36.3655 29.9069 36.3304 29.8999C36.2999 29.8929 36.2672 29.8859 36.2367 29.8836C34.4135 29.7463 32.6558 29.2811 31.0105 28.4971C24.5414 25.4125 21.2601 18.4244 23.0271 11.5038C24.6233 5.24845 30.2615 0.707585 36.7376 0.461001C40.0938 0.335382 43.1481 1.21471 45.8256 3.07805C49.1795 5.41362 51.2509 8.64247 51.9881 12.6739C52.056 13.0461 52.1028 13.4206 52.1473 13.7812C52.1683 13.944 52.187 14.1092 52.2105 14.272L52.2175 14.3651V16.1354L52.2034 16.2028C52.1964 16.2354 52.1894 16.2656 52.1824 16.2982C52.1777 16.3191 52.1707 16.3401 52.1683 16.361C52.056 17.8754 51.6862 19.4014 51.0683 20.8856C51.0706 20.8809 51.0683 20.9158 51.08 20.9833C51.3164 22.4256 51.5692 23.9423 51.8804 25.7568C51.9507 26.1639 52.0256 26.5663 52.1028 26.9711L52.2175 27.5783V28.3669L52.1753 28.4809C51.9296 29.1578 51.4404 29.644 50.7594 29.8882L50.6447 29.9301L50.6423 29.9324ZM50.0736 28.5367H50.3825C50.5815 28.4436 50.7172 28.3087 50.8109 28.111V27.7085L50.7219 27.2316C50.6447 26.8199 50.5651 26.4058 50.4949 25.9917C50.1836 24.1749 49.9285 22.6536 49.6921 21.2089C49.657 20.9903 49.6406 20.6646 49.7693 20.3552C50.3287 19.006 50.6657 17.6265 50.7687 16.2517C50.7757 16.147 50.7968 16.0586 50.8132 15.9911V14.4139C50.7921 14.2604 50.7734 14.1069 50.7547 13.951C50.7102 13.5951 50.6704 13.2578 50.6096 12.9228C49.9402 9.26358 48.0608 6.33482 45.0229 4.22024C42.6028 2.53603 39.8387 1.73579 36.7938 1.85443C30.9356 2.07775 25.8357 6.18594 24.3893 11.8457C22.7884 18.115 25.7608 24.4448 31.619 27.2386C33.1052 27.9481 34.6944 28.3692 36.3421 28.4925C36.4474 28.4995 36.541 28.5204 36.6159 28.5344H36.6276H38.2215C38.4017 28.5088 38.5819 28.4878 38.7621 28.4669C39.181 28.418 39.5766 28.3692 39.9487 28.2785C40.7281 28.0877 41.5683 27.8365 42.5162 27.5108C42.9445 27.3642 43.3213 27.3968 43.6654 27.4526C45.7554 27.7993 47.8478 28.1482 49.9379 28.4995C49.9893 28.5088 50.0362 28.5204 50.0783 28.5367H50.0736Z" fill="#F2F2F2"/>
<path d="M33.5017 8.0957C33.8879 8.17247 34.15 8.41905 34.3957 8.70518C34.906 9.30303 35.4349 9.8846 35.9475 10.4778C36.2517 10.8291 36.3219 11.2362 36.1417 11.6642C36.0762 11.8201 35.9592 11.9643 35.8398 12.0876C35.5683 12.3644 35.2781 12.6226 34.9949 12.8901C34.7726 13.0995 34.7421 13.2879 34.8849 13.5578C35.3202 14.3859 35.807 15.1768 36.4577 15.8584C37.2137 16.6517 38.1358 17.217 39.1024 17.7102C39.182 17.752 39.299 17.7683 39.3833 17.745C39.4933 17.7148 39.6056 17.652 39.6875 17.5706C39.9707 17.2914 40.2376 16.9983 40.5161 16.7122C40.9865 16.2283 41.6348 16.1934 42.1474 16.6331C42.8074 17.1984 43.458 17.7753 44.1157 18.3429C44.3357 18.5313 44.4504 18.7756 44.523 19.0478V19.3804C44.4481 19.741 44.221 19.9992 43.9636 20.2458C43.4908 20.7017 43.0297 21.1693 42.564 21.6322C42.4353 21.7602 42.3112 21.8904 42.1731 22.0044C41.904 22.2254 41.5997 22.3092 41.251 22.2161C40.0246 21.8811 38.8286 21.4717 37.6794 20.925C35.3179 19.8015 33.4455 18.1498 32.1348 15.8864C31.2993 14.4441 30.7352 12.8948 30.3023 11.2943C30.2461 11.0896 30.2601 10.8849 30.3608 10.7034C30.4474 10.5476 30.5527 10.3987 30.6767 10.2731C31.215 9.72641 31.7674 9.1937 32.3057 8.6447C32.5514 8.39347 32.8089 8.17014 33.167 8.09803H33.5017V8.0957Z" fill="#807DF0"/>
<path d="M61.9013 47.4106L58.666 43.6284L65.2033 35.7793H71.71L61.9013 47.4106Z" fill="#807DF0"/>
<path d="M52.6204 50.2852L55.8557 54.0674L49.2503 61.9842H42.7422L52.6204 50.2852Z" fill="#807DF0"/>
<path d="M30.9199 61.9803H26.1039V46.3774L17.6298 61.1954C17.4213 61.5726 17.1279 61.8587 16.747 62.0535C16.3799 62.2484 15.9823 62.3465 15.5513 62.3465C15.1203 62.3465 14.7435 62.2497 14.3751 62.0535C14.0192 61.8587 13.7369 61.5726 13.5298 61.1954L5.0196 46.3774V61.9803H0.238281V37.8084C0.238281 37.2598 0.398168 36.7733 0.716552 36.3463C1.04745 35.9193 1.47567 35.6333 2.0026 35.4882C2.25981 35.4274 2.51702 35.4094 2.77562 35.4329C3.03283 35.4454 3.27753 35.4993 3.5111 35.5974C3.7558 35.683 3.97686 35.8102 4.1729 35.9815C4.36893 36.1404 4.53438 36.3353 4.66924 36.5661L15.5513 55.3666L26.4334 36.5661C26.7156 36.1031 27.1021 35.7742 27.5915 35.5794C28.0934 35.3846 28.6148 35.3542 29.1542 35.4882C29.6686 35.6347 30.0913 35.9207 30.4222 36.3463C30.7531 36.7733 30.9185 37.2598 30.9185 37.8084V61.9803H30.9199Z" fill="#F2F2F2"/>
<path d="M39.5788 61.9798H34.7988V35.7793H39.5788V61.9798Z" fill="#F2F2F2"/>
<path d="M57.2041 45.1333L60.4394 48.9155L71.7094 61.9798H65.2207L57.2055 52.6977L53.9702 48.9155L42.6836 35.7793H49.1542L57.2055 45.1346L57.2041 45.1333Z" fill="#F2F2F2"/>
</svg>
