<svg width="26" height="26" viewBox="0 0 26 26" fill="none" xmlns="http://www.w3.org/2000/svg">
<path fill-rule="evenodd" clip-rule="evenodd" d="M26 13C26 20.1796 20.1796 26 13 26C5.82029 26 0 20.1796 0 13C0 5.82029 5.82029 0 13 0C20.1796 0 26 5.82029 26 13ZM18.2394 9.06057C18.6202 9.44133 18.6202 10.0587 18.2394 10.4394L11.7394 16.9394C11.3586 17.3202 10.7414 17.3202 10.3606 16.9394L7.76057 14.3394C7.37981 13.9586 7.37981 13.3414 7.76057 12.9606C8.14133 12.5798 8.75867 12.5798 9.13943 12.9606L11.05 14.8711L13.9552 11.9658L16.8606 9.06057C17.2414 8.67981 17.8586 8.67981 18.2394 9.06057Z" fill="#58FCAD"/>
</svg>
