<svg width="46" height="47" viewBox="0 0 46 47" fill="none" xmlns="http://www.w3.org/2000/svg">
<path d="M15.8586 4.19812H20.002V5.9308H17.5913V7.66349H20.002V9.39619H15.8586V4.19812Z" fill="#59597F"/>
<path d="M20.8306 4.19812H24.9741V5.7048H22.5634V6.00614H24.9741V9.47152H20.8306V7.8895H23.2413V7.58817H20.8306V4.19812Z" fill="#59597F"/>
<path d="M25.8026 4.19812H29.946V5.7048H27.5353V6.00614H29.946V9.47152H25.8026V7.8895H28.2133V7.58817H25.8026V4.19812Z" fill="#59597F"/>
<path fill-rule="evenodd" clip-rule="evenodd" d="M23.0738 42.7694L11.9142 39.6713L8.62378 11.7784H37.5521L34.2641 39.667L23.0738 42.7694ZM15.1284 24.4042L15.435 27.8252H27.2911L26.894 32.2618L23.0785 33.2917L23.0751 33.2928L19.2652 32.2641L19.0216 29.5356H15.5875L16.0668 34.9072L23.0743 36.8524L30.0917 34.907L30.947 25.3229L31.0305 24.4042L31.6482 17.48H14.5124L14.8234 20.901H27.8991L27.5878 24.4042H15.1284Z" fill="#59597F"/>
</svg>
