<svg width="302" height="8" viewBox="0 0 302 8" fill="none" xmlns="http://www.w3.org/2000/svg">
<path d="M0.335835 0.13914L2.50584 0.13914C3.4125 0.13914 4.08584 0.43914 4.52584 1.03914C4.9725 1.63914 5.19584 2.50247 5.19584 3.62914C5.19584 4.76247 4.9725 5.62914 4.52584 6.22914C4.08584 6.82247 3.4125 7.11914 2.50584 7.11914H0.335835L0.335835 0.13914ZM2.41584 6.06914C2.89584 6.06914 3.24917 5.91247 3.47584 5.59914C3.70917 5.28581 3.82584 4.82914 3.82584 4.22914V3.01914C3.82584 2.42581 3.70917 1.97247 3.47584 1.65914C3.24917 1.34581 2.89584 1.18914 2.41584 1.18914L1.62584 1.18914L1.62584 6.06914H2.41584ZM9.43193 7.11914L9.43193 0.13914L13.8419 0.13914V1.21914L10.7419 1.21914L10.7419 3.03914L13.7319 3.03914V4.11914L10.7419 4.11914V6.03914H13.8419V7.11914H9.43193ZM20.518 7.23914C19.918 7.23914 19.4047 7.13581 18.978 6.92914C18.558 6.72247 18.2147 6.44914 17.948 6.10914L18.738 5.28914C18.998 5.58914 19.278 5.81247 19.578 5.95914C19.8847 6.09914 20.2114 6.16914 20.558 6.16914C20.958 6.16914 21.2647 6.07914 21.478 5.89914C21.6914 5.71914 21.798 5.45914 21.798 5.11914C21.798 4.83914 21.718 4.62914 21.558 4.48914C21.398 4.34247 21.128 4.23914 20.748 4.17914L20.008 4.05914C19.3614 3.94581 18.9014 3.71247 18.628 3.35914C18.3547 2.99914 18.218 2.57581 18.218 2.08914C18.218 1.42247 18.4347 0.912474 18.868 0.55914C19.3014 0.19914 19.9014 0.0191402 20.668 0.0191402C21.2147 0.0191402 21.6847 0.105807 22.078 0.27914C22.478 0.452474 22.798 0.68914 23.038 0.98914L22.268 1.80914C22.0814 1.58914 21.858 1.41581 21.598 1.28914C21.338 1.15581 21.0314 1.08914 20.678 1.08914C19.918 1.08914 19.538 1.40247 19.538 2.02914C19.538 2.29581 19.618 2.49914 19.778 2.63914C19.938 2.77914 20.2114 2.88247 20.598 2.94914L21.328 3.07914C21.9347 3.19247 22.3847 3.41581 22.678 3.74914C22.9714 4.08247 23.118 4.50914 23.118 5.02914C23.118 5.35581 23.0614 5.65581 22.948 5.92914C22.8347 6.19581 22.668 6.42914 22.448 6.62914C22.228 6.82247 21.9547 6.97247 21.628 7.07914C21.308 7.18581 20.938 7.23914 20.518 7.23914ZM27.3741 7.11914V6.13914H28.9441V1.11914L27.3741 1.11914V0.13914L31.8141 0.13914V1.11914L30.2441 1.11914V6.13914H31.8141V7.11914H27.3741ZM39.8002 6.14914H39.7202C39.6602 6.28914 39.5869 6.42581 39.5002 6.55914C39.4135 6.69247 39.3069 6.80914 39.1802 6.90914C39.0535 7.00914 38.9035 7.08914 38.7302 7.14914C38.5635 7.20914 38.3702 7.23914 38.1502 7.23914C37.4435 7.23914 36.9069 6.92914 36.5402 6.30914C36.1802 5.68247 36.0002 4.80581 36.0002 3.67914C36.0002 2.49247 36.2135 1.58581 36.6402 0.95914C37.0669 0.332474 37.7235 0.0191402 38.6102 0.0191402C38.9569 0.0191402 39.2602 0.0658069 39.5202 0.15914C39.7869 0.252474 40.0135 0.382474 40.2002 0.549141C40.3935 0.715807 40.5502 0.915807 40.6702 1.14914C40.7969 1.37581 40.8969 1.62247 40.9702 1.88914L39.7702 2.22914C39.7235 2.08247 39.6702 1.93914 39.6102 1.79914C39.5569 1.65914 39.4835 1.53914 39.3902 1.43914C39.3035 1.33247 39.1969 1.24914 39.0702 1.18914C38.9435 1.12247 38.7869 1.08914 38.6002 1.08914C38.1669 1.08914 37.8569 1.26247 37.6702 1.60914C37.4835 1.95581 37.3902 2.42914 37.3902 3.02914V4.14914C37.3902 4.44914 37.4102 4.72581 37.4502 4.97914C37.4969 5.22581 37.5702 5.43914 37.6702 5.61914C37.7702 5.79914 37.9002 5.93914 38.0602 6.03914C38.2202 6.13247 38.4202 6.17914 38.6602 6.17914C39.0335 6.17914 39.3169 6.06914 39.5102 5.84914C39.7035 5.62247 39.8002 5.33581 39.8002 4.98914V4.41914H38.5302V3.46914H40.9702V7.11914H39.8002V6.14914ZM46.4763 2.10914H46.3763V7.11914H45.2563V0.13914H46.8663L48.6963 5.14914H48.7963V0.13914H49.9163V7.11914L48.3063 7.11914L46.4763 2.10914ZM72.3046 0.13914L74.4746 0.13914C75.3813 0.13914 76.0546 0.43914 76.4946 1.03914C76.9413 1.63914 77.1646 2.50247 77.1646 3.62914C77.1646 4.76247 76.9413 5.62914 76.4946 6.22914C76.0546 6.82247 75.3813 7.11914 74.4746 7.11914H72.3046V0.13914ZM74.3846 6.06914C74.8646 6.06914 75.2179 5.91247 75.4446 5.59914C75.6779 5.28581 75.7946 4.82914 75.7946 4.22914V3.01914C75.7946 2.42581 75.6779 1.97247 75.4446 1.65914C75.2179 1.34581 74.8646 1.18914 74.3846 1.18914L73.5946 1.18914V6.06914H74.3846ZM81.4007 7.11914V0.13914L85.8107 0.13914V1.21914L82.7107 1.21914V3.03914L85.7007 3.03914V4.11914L82.7107 4.11914V6.03914H85.8107V7.11914L81.4007 7.11914ZM92.4868 7.23914C91.8868 7.23914 91.3734 7.13581 90.9468 6.92914C90.5268 6.72247 90.1834 6.44914 89.9168 6.10914L90.7068 5.28914C90.9668 5.58914 91.2468 5.81247 91.5468 5.95914C91.8534 6.09914 92.1801 6.16914 92.5268 6.16914C92.9268 6.16914 93.2334 6.07914 93.4468 5.89914C93.6601 5.71914 93.7668 5.45914 93.7668 5.11914C93.7668 4.83914 93.6868 4.62914 93.5268 4.48914C93.3668 4.34247 93.0968 4.23914 92.7168 4.17914L91.9768 4.05914C91.3301 3.94581 90.8701 3.71247 90.5968 3.35914C90.3234 2.99914 90.1868 2.57581 90.1868 2.08914C90.1868 1.42247 90.4034 0.912474 90.8368 0.55914C91.2701 0.19914 91.8701 0.0191402 92.6368 0.0191402C93.1834 0.0191402 93.6534 0.105807 94.0468 0.27914C94.4468 0.452474 94.7668 0.68914 95.0068 0.98914L94.2368 1.80914C94.0501 1.58914 93.8268 1.41581 93.5668 1.28914C93.3068 1.15581 93.0001 1.08914 92.6468 1.08914C91.8868 1.08914 91.5068 1.40247 91.5068 2.02914C91.5068 2.29581 91.5868 2.49914 91.7468 2.63914C91.9068 2.77914 92.1801 2.88247 92.5668 2.94914L93.2968 3.07914C93.9034 3.19247 94.3534 3.41581 94.6468 3.74914C94.9401 4.08247 95.0868 4.50914 95.0868 5.02914C95.0868 5.35581 95.0301 5.65581 94.9168 5.92914C94.8034 6.19581 94.6368 6.42914 94.4168 6.62914C94.1968 6.82247 93.9234 6.97247 93.5968 7.07914C93.2768 7.18581 92.9068 7.23914 92.4868 7.23914ZM99.3929 7.11914V0.13914L103.803 0.13914V1.21914L100.703 1.21914V3.03914L103.693 3.03914V4.11914L100.703 4.11914V6.03914H103.803V7.11914H99.3929ZM109.449 2.10914H109.349V7.11914H108.229V0.13914L109.839 0.13914L111.669 5.14914H111.769V0.13914H112.889V7.11914H111.279L109.449 2.10914ZM118.635 7.11914L116.725 0.13914L118.165 0.13914L119.035 3.66914L119.545 5.86914H119.615L120.135 3.66914L121.015 0.13914H122.385L120.475 7.11914H118.635ZM128.551 7.23914C128.098 7.23914 127.704 7.15914 127.371 6.99914C127.038 6.83247 126.761 6.59581 126.541 6.28914C126.328 5.98247 126.168 5.60581 126.061 5.15914C125.961 4.71247 125.911 4.20247 125.911 3.62914C125.911 3.06247 125.961 2.55581 126.061 2.10914C126.168 1.65581 126.328 1.27581 126.541 0.969141C126.761 0.662474 127.038 0.42914 127.371 0.26914C127.704 0.102473 128.098 0.0191402 128.551 0.0191402C129.458 0.0191402 130.124 0.335807 130.551 0.969141C130.978 1.60247 131.191 2.48914 131.191 3.62914C131.191 4.76914 130.978 5.65581 130.551 6.28914C130.124 6.92247 129.458 7.23914 128.551 7.23914ZM128.551 6.16914C128.784 6.16914 128.981 6.12581 129.141 6.03914C129.301 5.94581 129.428 5.81581 129.521 5.64914C129.621 5.48247 129.691 5.27914 129.731 5.03914C129.778 4.79247 129.801 4.51914 129.801 4.21914V3.02914C129.801 2.42914 129.708 1.95581 129.521 1.60914C129.341 1.26247 129.018 1.08914 128.551 1.08914C128.084 1.08914 127.758 1.26247 127.571 1.60914C127.391 1.95581 127.301 2.42914 127.301 3.02914V4.22914C127.301 4.82914 127.391 5.30247 127.571 5.64914C127.758 5.99581 128.084 6.16914 128.551 6.16914ZM135.547 7.11914V0.13914L136.857 0.13914V6.03914L139.947 6.03914V7.11914L135.547 7.11914ZM145.623 7.11914L143.713 0.13914L145.153 0.13914L146.023 3.66914L146.533 5.86914H146.603L147.123 3.66914L148.003 0.13914H149.373L147.463 7.11914H145.623ZM153.319 7.11914V6.13914H154.889V1.11914H153.319V0.13914L157.759 0.13914V1.11914H156.189V6.13914H157.759V7.11914H153.319ZM165.916 3.88914L165.976 1.86914H165.886L164.536 5.45914L163.186 1.86914H163.096L163.156 3.88914V7.11914H162.016V0.13914H163.576L164.546 2.70914H164.616L165.596 0.13914L167.056 0.13914V7.11914H165.916V3.88914ZM171.362 7.11914V0.13914L175.772 0.13914V1.21914L172.672 1.21914V3.03914L175.662 3.03914V4.11914L172.672 4.11914V6.03914H175.772V7.11914H171.362ZM181.418 2.10914H181.318V7.11914H180.198V0.13914L181.808 0.13914L183.638 5.14914H183.738V0.13914H184.858V7.11914H183.248L181.418 2.10914ZM192.174 1.21914V7.11914H190.874V1.21914L188.774 1.21914V0.13914L194.274 0.13914V1.21914H192.174ZM200.52 7.23914C200.067 7.23914 199.673 7.15914 199.34 6.99914C199.007 6.83247 198.73 6.59581 198.51 6.28914C198.297 5.98247 198.137 5.60581 198.03 5.15914C197.93 4.71247 197.88 4.20247 197.88 3.62914C197.88 3.06247 197.93 2.55581 198.03 2.10914C198.137 1.65581 198.297 1.27581 198.51 0.969141C198.73 0.662474 199.007 0.42914 199.34 0.26914C199.673 0.102473 200.067 0.0191402 200.52 0.0191402C201.427 0.0191402 202.093 0.335807 202.52 0.969141C202.947 1.60247 203.16 2.48914 203.16 3.62914C203.16 4.76914 202.947 5.65581 202.52 6.28914C202.093 6.92247 201.427 7.23914 200.52 7.23914ZM200.52 6.16914C200.753 6.16914 200.95 6.12581 201.11 6.03914C201.27 5.94581 201.397 5.81581 201.49 5.64914C201.59 5.48247 201.66 5.27914 201.7 5.03914C201.747 4.79247 201.77 4.51914 201.77 4.21914V3.02914C201.77 2.42914 201.677 1.95581 201.49 1.60914C201.31 1.26247 200.987 1.08914 200.52 1.08914C200.053 1.08914 199.727 1.26247 199.54 1.60914C199.36 1.95581 199.27 2.42914 199.27 3.02914V4.22914C199.27 4.82914 199.36 5.30247 199.54 5.64914C199.727 5.99581 200.053 6.16914 200.52 6.16914ZM228.888 3.88914L228.948 1.86914H228.858L227.508 5.45914L226.158 1.86914H226.068L226.128 3.88914V7.11914L224.988 7.11914V0.13914H226.548L227.518 2.70914H227.588L228.568 0.13914H230.028V7.11914H228.888V3.88914ZM237.994 7.11914L237.504 5.34914L235.434 5.34914L234.954 7.11914H233.634L235.594 0.13914L237.414 0.13914L239.384 7.11914H237.994ZM236.514 1.42914H236.434L235.664 4.27914H237.284L236.514 1.42914ZM244.61 7.11914H243.3V0.13914L245.95 0.13914C246.63 0.13914 247.15 0.332474 247.51 0.71914C247.87 1.10581 248.05 1.63247 248.05 2.29914C248.05 2.81247 247.93 3.24581 247.69 3.59914C247.457 3.94581 247.12 4.16581 246.68 4.25914L248.17 7.11914L246.73 7.11914L245.4 4.40914L244.61 4.40914V7.11914ZM245.68 3.38914C246.034 3.38914 246.287 3.31914 246.44 3.17914C246.594 3.03247 246.67 2.80247 246.67 2.48914V2.10914C246.67 1.79581 246.594 1.56914 246.44 1.42914C246.287 1.28247 246.034 1.20914 245.68 1.20914L244.61 1.20914V3.38914L245.68 3.38914ZM254.266 4.05914L253.536 5.01914V7.11914H252.226V0.13914L253.536 0.13914V3.27914H253.596L254.406 2.11914L255.876 0.13914H257.356L255.166 3.07914L257.456 7.11914H255.976L254.266 4.05914ZM261.323 7.11914V0.13914L265.733 0.13914V1.21914H262.633V3.03914H265.623V4.11914H262.633V6.03914H265.733V7.11914H261.323ZM273.139 1.21914V7.11914H271.839V1.21914H269.739V0.13914L275.239 0.13914V1.21914H273.139ZM279.265 7.11914V6.13914H280.835V1.11914L279.265 1.11914V0.13914L283.705 0.13914V1.11914L282.135 1.11914V6.13914H283.705V7.11914L279.265 7.11914ZM289.371 2.10914H289.271V7.11914H288.151V0.13914L289.761 0.13914L291.591 5.14914H291.691V0.13914H292.811V7.11914L291.201 7.11914L289.371 2.10914ZM300.687 6.14914H300.607C300.547 6.28914 300.474 6.42581 300.387 6.55914C300.3 6.69247 300.194 6.80914 300.067 6.90914C299.94 7.00914 299.79 7.08914 299.617 7.14914C299.45 7.20914 299.257 7.23914 299.037 7.23914C298.33 7.23914 297.794 6.92914 297.427 6.30914C297.067 5.68247 296.887 4.80581 296.887 3.67914C296.887 2.49247 297.1 1.58581 297.527 0.95914C297.954 0.332474 298.61 0.0191402 299.497 0.0191402C299.844 0.0191402 300.147 0.0658069 300.407 0.15914C300.674 0.252474 300.9 0.382474 301.087 0.549141C301.28 0.715807 301.437 0.915807 301.557 1.14914C301.684 1.37581 301.784 1.62247 301.857 1.88914L300.657 2.22914C300.61 2.08247 300.557 1.93914 300.497 1.79914C300.444 1.65914 300.37 1.53914 300.277 1.43914C300.19 1.33247 300.084 1.24914 299.957 1.18914C299.83 1.12247 299.674 1.08914 299.487 1.08914C299.054 1.08914 298.744 1.26247 298.557 1.60914C298.37 1.95581 298.277 2.42914 298.277 3.02914V4.14914C298.277 4.44914 298.297 4.72581 298.337 4.97914C298.384 5.22581 298.457 5.43914 298.557 5.61914C298.657 5.79914 298.787 5.93914 298.947 6.03914C299.107 6.13247 299.307 6.17914 299.547 6.17914C299.92 6.17914 300.204 6.06914 300.397 5.84914C300.59 5.62247 300.687 5.33581 300.687 4.98914V4.41914L299.417 4.41914V3.46914L301.857 3.46914V7.11914H300.687V6.14914Z" fill="#8785FF"/>
</svg>
