<svg width="8" height="303" viewBox="0 0 8 303" fill="none" xmlns="http://www.w3.org/2000/svg">
<path d="M0.345317 302.389L0.345317 300.219C0.345317 299.312 0.645317 298.639 1.24532 298.199C1.84532 297.752 2.70865 297.529 3.83532 297.529C4.96865 297.529 5.83532 297.752 6.43532 298.199C7.02865 298.639 7.32532 299.312 7.32532 300.219L7.32532 302.389L0.345317 302.389ZM6.27532 300.309C6.27532 299.829 6.11865 299.475 5.80532 299.249C5.49198 299.015 5.03532 298.899 4.43532 298.899L3.22532 298.899C2.63198 298.899 2.17865 299.015 1.86532 299.249C1.55198 299.475 1.39532 299.829 1.39532 300.309L1.39532 301.099L6.27532 301.099L6.27532 300.309ZM7.32532 293.293L0.345317 293.293L0.345317 288.883L1.42532 288.883L1.42532 291.983L3.24532 291.983L3.24532 288.993L4.32532 288.993L4.32532 291.983L6.24532 291.983L6.24532 288.883L7.32532 288.883L7.32532 293.293ZM7.44532 282.206C7.44532 282.806 7.34198 283.32 7.13532 283.746C6.92865 284.166 6.65532 284.51 6.31532 284.776L5.49532 283.986C5.79532 283.726 6.01865 283.446 6.16532 283.146C6.30532 282.84 6.37532 282.513 6.37532 282.166C6.37532 281.766 6.28532 281.46 6.10532 281.246C5.92532 281.033 5.66532 280.926 5.32532 280.926C5.04532 280.926 4.83532 281.006 4.69532 281.166C4.54865 281.326 4.44532 281.596 4.38532 281.976L4.26532 282.716C4.15198 283.363 3.91865 283.823 3.56532 284.096C3.20532 284.37 2.78198 284.506 2.29532 284.506C1.62865 284.506 1.11865 284.29 0.765316 283.856C0.405316 283.423 0.225316 282.823 0.225316 282.056C0.225316 281.51 0.311983 281.04 0.485316 280.646C0.658649 280.246 0.895316 279.926 1.19532 279.686L2.01532 280.456C1.79532 280.643 1.62198 280.866 1.49532 281.126C1.36198 281.386 1.29532 281.693 1.29532 282.046C1.29532 282.806 1.60865 283.186 2.23532 283.186C2.50198 283.186 2.70532 283.106 2.84532 282.946C2.98532 282.786 3.08865 282.513 3.15532 282.126L3.28532 281.396C3.39865 280.79 3.62198 280.34 3.95532 280.046C4.28865 279.753 4.71532 279.606 5.23532 279.606C5.56198 279.606 5.86198 279.663 6.13532 279.776C6.40198 279.89 6.63532 280.056 6.83532 280.276C7.02865 280.496 7.17865 280.77 7.28532 281.096C7.39198 281.416 7.44532 281.786 7.44532 282.206ZM7.32532 275.35L6.34532 275.35L6.34532 273.78L1.32532 273.78L1.32532 275.35L0.345316 275.35L0.345316 270.91L1.32532 270.91L1.32532 272.48L6.34532 272.48L6.34532 270.91L7.32532 270.91L7.32532 275.35ZM6.35532 262.924L6.35532 263.004C6.49532 263.064 6.63198 263.138 6.76532 263.224C6.89865 263.311 7.01532 263.418 7.11532 263.544C7.21532 263.671 7.29532 263.821 7.35532 263.994C7.41532 264.161 7.44532 264.354 7.44532 264.574C7.44532 265.281 7.13532 265.818 6.51532 266.184C5.88865 266.544 5.01198 266.724 3.88532 266.724C2.69865 266.724 1.79198 266.511 1.16532 266.084C0.538649 265.658 0.225315 265.001 0.225315 264.114C0.225315 263.768 0.271982 263.464 0.365315 263.204C0.458649 262.938 0.588649 262.711 0.755316 262.524C0.921982 262.331 1.12198 262.174 1.35532 262.054C1.58198 261.928 1.82865 261.828 2.09532 261.754L2.43532 262.954C2.28865 263.001 2.14532 263.054 2.00532 263.114C1.86532 263.168 1.74532 263.241 1.64532 263.334C1.53865 263.421 1.45532 263.528 1.39532 263.654C1.32865 263.781 1.29532 263.938 1.29532 264.124C1.29532 264.558 1.46865 264.868 1.81532 265.054C2.16198 265.241 2.63532 265.334 3.23532 265.334L4.35532 265.334C4.65532 265.334 4.93198 265.314 5.18532 265.274C5.43198 265.228 5.64532 265.154 5.82532 265.054C6.00532 264.954 6.14532 264.824 6.24532 264.664C6.33865 264.504 6.38532 264.304 6.38532 264.064C6.38532 263.691 6.27532 263.408 6.05532 263.214C5.82865 263.021 5.54198 262.924 5.19532 262.924L4.62532 262.924L4.62532 264.194L3.67532 264.194L3.67532 261.754L7.32532 261.754L7.32532 262.924L6.35532 262.924ZM2.31531 256.248L2.31531 256.348L7.32532 256.348L7.32532 257.468L0.345315 257.468L0.345315 255.858L5.35532 254.028L5.35532 253.928L0.345315 253.928L0.345315 252.808L7.32532 252.808L7.32532 254.418L2.31531 256.248ZM0.345314 230.42L0.345314 228.25C0.345314 227.343 0.645314 226.67 1.24531 226.23C1.84531 225.783 2.70865 225.56 3.83531 225.56C4.96865 225.56 5.83531 225.783 6.43531 226.23C7.02865 226.67 7.32531 227.343 7.32531 228.25L7.32531 230.42L0.345314 230.42ZM6.27531 228.34C6.27531 227.86 6.11865 227.507 5.80531 227.28C5.49198 227.047 5.03531 226.93 4.43531 226.93L3.22531 226.93C2.63198 226.93 2.17865 227.047 1.86531 227.28C1.55198 227.507 1.39531 227.86 1.39531 228.34L1.39531 229.13L6.27531 229.13L6.27531 228.34ZM7.32531 221.324L0.345314 221.324L0.345313 216.914L1.42531 216.914L1.42531 220.014L3.24531 220.014L3.24531 217.024L4.32531 217.024L4.32531 220.014L6.24531 220.014L6.24531 216.914L7.32531 216.914L7.32531 221.324ZM7.44531 210.238C7.44531 210.838 7.34198 211.351 7.13531 211.778C6.92865 212.198 6.65531 212.541 6.31531 212.808L5.49531 212.018C5.79531 211.758 6.01865 211.478 6.16531 211.178C6.30531 210.871 6.37531 210.544 6.37531 210.198C6.37531 209.798 6.28531 209.491 6.10531 209.278C5.92531 209.064 5.66531 208.958 5.32531 208.958C5.04531 208.958 4.83531 209.038 4.69531 209.198C4.54865 209.358 4.44531 209.628 4.38531 210.008L4.26531 210.748C4.15198 211.394 3.91865 211.854 3.56531 212.128C3.20531 212.401 2.78198 212.538 2.29531 212.538C1.62865 212.538 1.11865 212.321 0.765313 211.888C0.405313 211.454 0.225313 210.854 0.225313 210.088C0.225313 209.541 0.31198 209.071 0.485313 208.678C0.658646 208.278 0.895313 207.958 1.19531 207.718L2.01531 208.488C1.79531 208.674 1.62198 208.898 1.49531 209.158C1.36198 209.418 1.29531 209.724 1.29531 210.078C1.29531 210.838 1.60865 211.218 2.23531 211.218C2.50198 211.218 2.70531 211.138 2.84531 210.978C2.98531 210.818 3.08865 210.544 3.15531 210.158L3.28531 209.428C3.39865 208.821 3.62198 208.371 3.95531 208.078C4.28865 207.784 4.71531 207.638 5.23531 207.638C5.56198 207.638 5.86198 207.694 6.13531 207.808C6.40198 207.921 6.63531 208.088 6.83531 208.308C7.02865 208.528 7.17865 208.801 7.28531 209.128C7.39198 209.448 7.44531 209.818 7.44531 210.238ZM7.32531 203.332L0.345313 203.332L0.345313 198.922L1.42531 198.922L1.42531 202.022L3.24531 202.022L3.24531 199.032L4.32531 199.032L4.32531 202.022L6.24531 202.022L6.24531 198.922L7.32531 198.922L7.32531 203.332ZM2.31531 193.276L2.31531 193.376L7.32531 193.376L7.32531 194.496L0.345312 194.496L0.345312 192.886L5.35531 191.056L5.35531 190.956L0.345312 190.956L0.345312 189.836L7.32531 189.836L7.32531 191.446L2.31531 193.276ZM7.32531 184.089L0.345312 185.999L0.345312 184.559L3.87531 183.689L6.07531 183.179L6.07531 183.109L3.87531 182.589L0.345312 181.709L0.345312 180.339L7.32531 182.249L7.32531 184.089ZM7.44531 174.173C7.44531 174.627 7.36531 175.02 7.20531 175.353C7.03865 175.687 6.80198 175.963 6.49531 176.183C6.18865 176.397 5.81198 176.557 5.36531 176.663C4.91865 176.763 4.40865 176.813 3.83531 176.813C3.26865 176.813 2.76198 176.763 2.31531 176.663C1.86198 176.557 1.48198 176.397 1.17531 176.183C0.868645 175.963 0.635312 175.687 0.475311 175.353C0.308645 175.02 0.225311 174.627 0.225311 174.173C0.225311 173.267 0.541978 172.6 1.17531 172.173C1.80864 171.747 2.69531 171.533 3.83531 171.533C4.97531 171.533 5.86198 171.747 6.49531 172.173C7.12864 172.6 7.44531 173.267 7.44531 174.173ZM6.37531 174.173C6.37531 173.94 6.33198 173.743 6.24531 173.583C6.15198 173.423 6.02198 173.297 5.85531 173.203C5.68864 173.103 5.48531 173.033 5.24531 172.993C4.99864 172.947 4.72531 172.923 4.42531 172.923L3.23531 172.923C2.63531 172.923 2.16198 173.017 1.81531 173.203C1.46864 173.383 1.29531 173.707 1.29531 174.173C1.29531 174.64 1.46864 174.967 1.81531 175.153C2.16198 175.333 2.63531 175.423 3.23531 175.423L4.43531 175.423C5.03531 175.423 5.50865 175.333 5.85531 175.153C6.20198 174.967 6.37531 174.64 6.37531 174.173ZM7.32531 167.177L0.345311 167.177L0.345311 165.867L6.24531 165.867L6.24531 162.777L7.32531 162.777L7.32531 167.177ZM7.32531 157.101L0.345311 159.011L0.345311 157.571L3.87531 156.701L6.07531 156.191L6.07531 156.121L3.87531 155.601L0.345311 154.721L0.345311 153.351L7.32531 155.261L7.32531 157.101ZM7.32531 149.405L6.34531 149.405L6.34531 147.835L1.32531 147.835L1.32531 149.405L0.345311 149.405L0.34531 144.965L1.32531 144.965L1.32531 146.535L6.34531 146.535L6.34531 144.965L7.32531 144.965L7.32531 149.405ZM4.09531 136.809L2.07531 136.749L2.07531 136.839L5.66531 138.189L2.07531 139.539L2.07531 139.629L4.09531 139.569L7.32531 139.569L7.32531 140.709L0.34531 140.709L0.34531 139.149L2.91531 138.179L2.91531 138.109L0.34531 137.129L0.34531 135.669L7.32531 135.669L7.32531 136.809L4.09531 136.809ZM7.32531 131.363L0.34531 131.363L0.34531 126.953L1.42531 126.953L1.42531 130.053L3.24531 130.053L3.24531 127.063L4.32531 127.063L4.32531 130.053L6.24531 130.053L6.24531 126.953L7.32531 126.953L7.32531 131.363ZM2.31531 121.307L2.31531 121.407L7.32531 121.407L7.32531 122.527L0.345309 122.527L0.345309 120.917L5.35531 119.087L5.35531 118.987L0.345309 118.987L0.345309 117.867L7.32531 117.867L7.32531 119.477L2.31531 121.307ZM1.42531 110.551L7.32531 110.551L7.32531 111.851L1.42531 111.851L1.42531 113.951L0.345309 113.951L0.345309 108.451L1.42531 108.451L1.42531 110.551ZM7.44531 102.205C7.44531 102.658 7.36531 103.051 7.20531 103.385C7.03864 103.718 6.80198 103.995 6.49531 104.215C6.18864 104.428 5.81198 104.588 5.36531 104.695C4.91864 104.795 4.40864 104.845 3.83531 104.845C3.26864 104.845 2.76198 104.795 2.31531 104.695C1.86198 104.588 1.48198 104.428 1.17531 104.215C0.868642 103.995 0.635308 103.718 0.475308 103.385C0.308642 103.051 0.225308 102.658 0.225308 102.205C0.225308 101.298 0.541975 100.631 1.17531 100.205C1.80864 99.7779 2.69531 99.5646 3.83531 99.5646C4.97531 99.5646 5.86198 99.7779 6.49531 100.205C7.12864 100.631 7.44531 101.298 7.44531 102.205ZM6.37531 102.205C6.37531 101.971 6.33198 101.775 6.24531 101.615C6.15198 101.455 6.02198 101.328 5.85531 101.235C5.68864 101.135 5.48531 101.065 5.24531 101.025C4.99864 100.978 4.72531 100.955 4.42531 100.955L3.23531 100.955C2.63531 100.955 2.16198 101.048 1.81531 101.235C1.46864 101.415 1.29531 101.738 1.29531 102.205C1.29531 102.671 1.46864 102.998 1.81531 103.185C2.16198 103.365 2.63531 103.455 3.23531 103.455L4.43531 103.455C5.03531 103.455 5.50864 103.365 5.85531 103.185C6.20198 102.998 6.37531 102.671 6.37531 102.205ZM4.09531 73.8363L2.07531 73.7763L2.07531 73.8663L5.66531 75.2163L2.07531 76.5663L2.07531 76.6563L4.09531 76.5963L7.32531 76.5963L7.32531 77.7363L0.345307 77.7363L0.345307 76.1763L2.91531 75.2063L2.91531 75.1363L0.345307 74.1563L0.345307 72.6963L7.32531 72.6963L7.32531 73.8363L4.09531 73.8363ZM7.32531 64.7302L5.55531 65.2202L5.55531 67.2902L7.32531 67.7702L7.32531 69.0902L0.345307 67.1302L0.345307 65.3102L7.32531 63.3402L7.32531 64.7302ZM1.63531 66.2102L1.63531 66.2902L4.48531 67.0602L4.48531 65.4402L1.63531 66.2102ZM7.32531 58.1141L7.32531 59.4241L0.345307 59.4241L0.345306 56.7741C0.345306 56.0941 0.53864 55.5741 0.925306 55.2141C1.31197 54.8541 1.83864 54.6741 2.50531 54.6741C3.01864 54.6741 3.45197 54.7941 3.80531 55.0341C4.15197 55.2675 4.37197 55.6041 4.46531 56.0441L7.32531 54.5541L7.32531 55.9941L4.61531 57.3241L4.61531 58.1141L7.32531 58.1141ZM3.59531 57.0441C3.59531 56.6908 3.52531 56.4375 3.38531 56.2841C3.23864 56.1308 3.00864 56.0541 2.69531 56.0541L2.31531 56.0541C2.00197 56.0541 1.77531 56.1308 1.63531 56.2841C1.48864 56.4375 1.41531 56.6908 1.41531 57.0441L1.41531 58.1141L3.59531 58.1141L3.59531 57.0441ZM4.26531 48.458L5.22531 49.188L7.32531 49.188L7.32531 50.498L0.345306 50.498L0.345306 49.188L3.48531 49.188L3.48531 49.128L2.32531 48.318L0.345306 46.848L0.345306 45.368L3.28531 47.558L7.32531 45.268L7.32531 46.748L4.26531 48.458ZM7.32531 41.4019L0.345306 41.4019L0.345306 36.9919L1.42531 36.9919L1.42531 40.0919L3.24531 40.0919L3.24531 37.1019L4.32531 37.1019L4.32531 40.0919L6.24531 40.0919L6.24531 36.9919L7.32531 36.9919L7.32531 41.4019ZM1.42531 29.5858L7.32531 29.5858L7.32531 30.8858L1.42531 30.8858L1.42531 32.9858L0.345305 32.9858L0.345305 27.4858L1.42531 27.4858L1.42531 29.5858ZM7.32531 23.4597L6.34531 23.4597L6.34531 21.8897L1.3253 21.8897L1.3253 23.4597L0.345305 23.4597L0.345305 19.0197L1.3253 19.0197L1.3253 20.5897L6.3453 20.5897L6.3453 19.0197L7.3253 19.0197L7.32531 23.4597ZM2.3153 13.3537L2.3153 13.4537L7.3253 13.4537L7.3253 14.5737L0.345305 14.5737L0.345305 12.9637L5.3553 11.1337L5.3553 11.0337L0.345304 11.0337L0.345304 9.91365L7.3253 9.91365L7.3253 11.5237L2.3153 13.3537ZM6.3553 2.03756L6.3553 2.11756C6.4953 2.17756 6.63197 2.25089 6.7653 2.33756C6.89864 2.42422 7.0153 2.53089 7.1153 2.65756C7.2153 2.78422 7.2953 2.93422 7.3553 3.10756C7.4153 3.27422 7.4453 3.46756 7.4453 3.68756C7.4453 4.39422 7.1353 4.93089 6.5153 5.29756C5.88864 5.65756 5.01197 5.83756 3.8853 5.83756C2.69864 5.83756 1.79197 5.62423 1.1653 5.19756C0.538637 4.77089 0.225304 4.11422 0.225304 3.22756C0.225304 2.88089 0.271971 2.57756 0.365304 2.31756C0.458637 2.05089 0.588637 1.82422 0.755304 1.63756C0.921971 1.44422 1.12197 1.28756 1.3553 1.16756C1.58197 1.04089 1.82864 0.940892 2.0953 0.867558L2.4353 2.06756C2.28864 2.11422 2.1453 2.16756 2.0053 2.22756C1.8653 2.28089 1.7453 2.35422 1.6453 2.44756C1.53864 2.53422 1.4553 2.64089 1.3953 2.76756C1.32864 2.89422 1.2953 3.05089 1.2953 3.23756C1.2953 3.67089 1.46864 3.98089 1.8153 4.16756C2.16197 4.35422 2.6353 4.44756 3.2353 4.44756L4.3553 4.44756C4.6553 4.44756 4.93197 4.42756 5.1853 4.38756C5.43197 4.34089 5.6453 4.26756 5.8253 4.16756C6.0053 4.06756 6.1453 3.93756 6.2453 3.77756C6.33864 3.61756 6.3853 3.41756 6.3853 3.17756C6.3853 2.80422 6.2753 2.52089 6.0553 2.32756C5.82864 2.13422 5.54197 2.03756 5.1953 2.03756L4.6253 2.03756L4.6253 3.30756L3.6753 3.30756L3.6753 0.867558L7.3253 0.867558L7.3253 2.03756L6.3553 2.03756Z" fill="#8785FF"/>
</svg>
