<svg width="206" height="51" viewBox="0 0 206 51" fill="none" xmlns="http://www.w3.org/2000/svg">
<path d="M16.4397 46.6833H14.5643V44.1441H7.97115V46.6833H6.09566V41.5112C6.09566 40.7562 6.2255 40.0613 6.48518 39.4266C6.74487 38.7918 7.10556 38.2459 7.56722 37.7891C8.02888 37.3322 8.57466 36.9764 9.20463 36.7215C9.8346 36.4667 10.5223 36.3392 11.2677 36.3392H15.4948C15.6246 36.3392 15.7473 36.3633 15.8627 36.4114C15.9781 36.4594 16.079 36.5268 16.1656 36.6133C16.2522 36.6999 16.3195 36.8009 16.3676 36.9163C16.4157 37.0317 16.4397 37.1543 16.4397 37.2842V46.6833ZM7.97115 42.2686H14.5643V38.2147H11.2677C11.21 38.2147 11.0874 38.2243 10.8998 38.2436C10.7171 38.258 10.5031 38.2989 10.2578 38.3662C10.0174 38.4335 9.76247 38.5369 9.49317 38.6764C9.22387 38.8158 8.97621 39.0082 8.75019 39.2534C8.52417 39.4987 8.33664 39.8065 8.18756 40.1768C8.0433 40.5423 7.97115 40.9871 7.97115 41.5112V42.2686Z" fill="#8785FF"/>
<path d="M27.5946 47.4334C27.5946 47.7556 27.5537 48.0442 27.472 48.2991C27.3902 48.5587 27.282 48.7848 27.1473 48.9771C27.0127 49.1743 26.8564 49.3402 26.6785 49.4749C26.5006 49.6143 26.313 49.7273 26.1158 49.8139C25.9235 49.9004 25.7263 49.9629 25.5243 50.0014C25.3272 50.0447 25.1396 50.0663 24.9617 50.0663H21.5786V48.1909H24.9617C25.2165 48.1909 25.4065 48.1259 25.5315 47.9961C25.6566 47.8662 25.7191 47.6787 25.7191 47.4334V41.5112C25.7191 41.266 25.6566 41.0808 25.5315 40.9558C25.4065 40.826 25.2165 40.761 24.9617 40.761H21.5786C21.3478 40.761 21.165 40.8332 21.0304 40.9774C20.8957 41.1169 20.8284 41.2948 20.8284 41.5112V44.0504C20.8284 44.2956 20.8933 44.4832 21.0232 44.613C21.153 44.7428 21.343 44.8078 21.593 44.8078H24.9617V46.6833H21.5786C21.4007 46.6833 21.2131 46.664 21.016 46.6255C20.8188 46.5823 20.6216 46.5173 20.4244 46.4308C20.2321 46.3442 20.0469 46.2336 19.869 46.099C19.6911 45.9595 19.5348 45.7936 19.4001 45.6012C19.2655 45.4041 19.1573 45.1781 19.0755 44.9232C18.9938 44.6635 18.9529 44.3726 18.9529 44.0504V41.5112C18.9529 41.3333 18.9721 41.1458 19.0106 40.9486C19.0539 40.7514 19.1188 40.5567 19.2054 40.3643C19.2919 40.1671 19.4025 39.9796 19.5372 39.8017C19.6766 39.6237 19.8426 39.4674 20.0349 39.3328C20.2321 39.1981 20.4581 39.0899 20.713 39.0082C20.9678 38.9264 21.2564 38.8855 21.5786 38.8855H24.9617C25.1396 38.8855 25.3272 38.9072 25.5243 38.9505C25.7263 38.989 25.9235 39.0515 26.1158 39.138C26.313 39.2246 26.5006 39.3376 26.6785 39.4771C26.8564 39.6117 27.0127 39.7776 27.1473 39.9748C27.282 40.1671 27.3902 40.3908 27.472 40.6456C27.5537 40.9005 27.5946 41.189 27.5946 41.5112V47.4334Z" fill="#8785FF"/>
<path d="M38.4394 41.4679C38.4394 41.7276 38.3937 42.0089 38.3023 42.3119C38.2109 42.6101 38.0618 42.889 37.8551 43.1487C37.6531 43.4036 37.3862 43.6176 37.0544 43.7907C36.7274 43.9638 36.3283 44.0504 35.857 44.0504H32.4738V42.2686H35.857C36.1119 42.2686 36.309 42.1917 36.4485 42.0378C36.5879 41.8791 36.6576 41.6844 36.6576 41.4535C36.6576 41.2083 36.5783 41.0159 36.4196 40.8765C36.2657 40.737 36.0782 40.6673 35.857 40.6673H32.4738C32.2189 40.6673 32.0217 40.7466 31.8823 40.9053C31.7428 41.0592 31.6731 41.2515 31.6731 41.4824V44.1008C31.6731 44.3509 31.75 44.5457 31.9039 44.6852C32.0626 44.8246 32.2574 44.8943 32.4882 44.8943H35.857V46.6833H32.4738C32.2141 46.6833 31.9328 46.6376 31.6298 46.5462C31.3317 46.4548 31.0527 46.3082 30.793 46.1062C30.5381 45.8994 30.3241 45.6325 30.151 45.3055C29.9779 44.9737 29.8913 44.5721 29.8913 44.1008V41.4679C29.8913 41.2083 29.9371 40.9294 30.0284 40.6312C30.1198 40.3282 30.2664 40.0493 30.4684 39.7945C30.6752 39.5348 30.9421 39.3184 31.2691 39.1452C31.6009 38.9721 32.0025 38.8855 32.4738 38.8855H35.857C36.1167 38.8855 36.3956 38.9312 36.6937 39.0226C36.9967 39.114 37.2756 39.2631 37.5304 39.4698C37.7901 39.6718 38.0066 39.9387 38.1797 40.2705C38.3528 40.5975 38.4394 40.9967 38.4394 41.4679ZM36.6721 37.8829L34.1617 36.5845L31.6514 37.8829L30.7786 36.671L34.1617 34.7523L37.5449 36.671L36.6721 37.8829Z" fill="#8785FF"/>
<path d="M49.0821 46.6833H47.2066V42.3552C47.2066 42.1099 47.1633 41.8911 47.0767 41.6988C46.995 41.5016 46.882 41.3333 46.7377 41.1938C46.5935 41.0544 46.4227 40.9486 46.2255 40.8765C46.0332 40.7995 45.824 40.761 45.598 40.761H42.3158V46.6833H40.4403V39.8161C40.4403 39.6862 40.4644 39.566 40.5125 39.4554C40.5606 39.34 40.6279 39.2414 40.7145 39.1597C40.801 39.0731 40.902 39.0058 41.0174 38.9577C41.1328 38.9096 41.2555 38.8855 41.3853 38.8855H45.6124C45.8481 38.8855 46.0957 38.912 46.3553 38.9649C46.6198 39.0178 46.8796 39.1044 47.1344 39.2246C47.3941 39.34 47.6394 39.4891 47.8702 39.6718C48.1059 39.8497 48.3126 40.0686 48.4906 40.3282C48.6733 40.5831 48.8176 40.8789 48.9234 41.2155C49.0292 41.5521 49.0821 41.932 49.0821 42.3552V46.6833Z" fill="#8785FF"/>
<path d="M59.0179 46.6833H53.9324C53.6727 46.6833 53.389 46.6376 53.0812 46.5462C52.7734 46.4548 52.4873 46.3058 52.2228 46.099C51.9631 45.8874 51.7443 45.6157 51.5664 45.2839C51.3932 44.9472 51.3067 44.5361 51.3067 44.0504V41.5112C51.3067 41.3333 51.3259 41.1458 51.3644 40.9486C51.4077 40.7514 51.4726 40.5567 51.5592 40.3643C51.6457 40.1671 51.7563 39.9796 51.891 39.8017C52.0304 39.6237 52.1963 39.4674 52.3887 39.3328C52.5858 39.1981 52.8119 39.0899 53.0667 39.0082C53.3216 38.9264 53.6102 38.8855 53.9324 38.8855H59.0179V40.761H53.9324C53.6871 40.761 53.4996 40.8236 53.3697 40.9486C53.2447 41.0736 53.1822 41.266 53.1822 41.5257V44.0504C53.1822 44.2956 53.2471 44.4832 53.3769 44.613C53.5068 44.7428 53.6967 44.8078 53.9468 44.8078H59.0179V46.6833Z" fill="#8785FF"/>
<path d="M63.2118 37.2842H61.3363V35.589H63.2118V37.2842ZM63.2118 46.6833H61.3363V38.8855H63.2118V46.6833Z" fill="#8785FF"/>
<path d="M73.8041 44.1008C73.8041 44.3605 73.7583 44.6419 73.667 44.9448C73.5756 45.243 73.4265 45.5219 73.2197 45.7816C73.0177 46.0365 72.7508 46.2505 72.419 46.4236C72.092 46.5967 71.6929 46.6833 71.2216 46.6833H67.8385C67.5788 46.6833 67.2975 46.6376 66.9945 46.5462C66.6964 46.4548 66.4174 46.3082 66.1578 46.1062C65.9029 45.8994 65.6889 45.6325 65.5158 45.3055C65.3426 44.9737 65.2561 44.5721 65.2561 44.1008C65.2561 43.8412 65.3018 43.5598 65.3931 43.2569C65.4845 42.9539 65.6312 42.675 65.8332 42.4201C66.0399 42.1604 66.3068 41.944 66.6338 41.7709C66.9656 41.5978 67.3672 41.5112 67.8385 41.5112H71.2216V43.3002H67.8385C67.5836 43.3002 67.3864 43.3795 67.247 43.5382C67.1075 43.6921 67.0378 43.8844 67.0378 44.1153C67.0378 44.3605 67.1171 44.5529 67.2758 44.6924C67.4393 44.827 67.6317 44.8943 67.8529 44.8943H71.2216C71.4765 44.8943 71.6737 44.8174 71.8131 44.6635C71.9526 44.5096 72.0223 44.3173 72.0223 44.0864V41.4679C72.0223 41.2227 71.9454 41.0279 71.7915 40.8837C71.6424 40.7394 71.4525 40.6673 71.2216 40.6673H67.1027V38.8855H71.2216C71.4813 38.8855 71.7602 38.9312 72.0584 39.0226C72.3613 39.114 72.6402 39.2631 72.8951 39.4698C73.1548 39.6718 73.3712 39.9387 73.5443 40.2705C73.7174 40.5975 73.8041 40.9967 73.8041 41.4679V44.1008Z" fill="#8785FF"/>
<path d="M90.242 44.0504C90.242 44.3726 90.2011 44.6635 90.1193 44.9232C90.0376 45.1781 89.9294 45.4041 89.7947 45.6012C89.6601 45.7936 89.5038 45.9595 89.3258 46.099C89.1479 46.2336 88.9604 46.3442 88.7632 46.4308C88.5709 46.5173 88.3737 46.5823 88.1717 46.6255C87.9746 46.664 87.787 46.6833 87.6091 46.6833H84.226C83.9038 46.6833 83.6153 46.6424 83.3604 46.5606C83.1055 46.4789 82.8795 46.3707 82.6823 46.236C82.49 46.0966 82.3241 45.9379 82.1846 45.7599C82.05 45.582 81.9394 45.3969 81.8528 45.2045C81.7662 45.0074 81.7013 44.8102 81.658 44.613C81.6195 44.411 81.6003 44.2235 81.6003 44.0504V41.5112C81.6003 41.0303 81.6869 40.624 81.86 40.2922C82.0379 39.9555 82.2567 39.6838 82.5164 39.4771C82.7809 39.2655 83.067 39.114 83.3748 39.0226C83.6826 38.9312 83.9663 38.8855 84.226 38.8855H87.6091V40.761H84.2404C83.9903 40.761 83.8004 40.826 83.6705 40.9558C83.5407 41.0808 83.4758 41.266 83.4758 41.5112V44.036C83.4758 44.2908 83.5383 44.4832 83.6633 44.613C83.7932 44.7428 83.9807 44.8078 84.226 44.8078H87.6091C87.8639 44.8078 88.0539 44.7428 88.1789 44.613C88.304 44.4832 88.3665 44.2956 88.3665 44.0504V35.589H90.242V44.0504Z" fill="#8785FF"/>
<path d="M101.159 41.4679C101.159 41.7276 101.113 42.0089 101.022 42.3119C100.93 42.6101 100.781 42.889 100.575 43.1487C100.373 43.4036 100.106 43.6176 99.7738 43.7907C99.4468 43.9638 99.0477 44.0504 98.5764 44.0504H95.1933V42.2686H98.5764C98.8312 42.2686 99.0284 42.1917 99.1679 42.0378C99.3073 41.8791 99.377 41.6844 99.377 41.4535C99.377 41.2083 99.2977 41.0159 99.139 40.8765C98.9851 40.737 98.7976 40.6673 98.5764 40.6673H95.1933C94.9384 40.6673 94.7412 40.7466 94.6018 40.9053C94.4623 41.0592 94.3926 41.2515 94.3926 41.4824V44.1008C94.3926 44.3509 94.4695 44.5457 94.6234 44.6852C94.7821 44.8246 94.9769 44.8943 95.2077 44.8943H98.5764V46.6833H95.1933C94.9336 46.6833 94.6523 46.6376 94.3493 46.5462C94.0511 46.4548 93.7722 46.3082 93.5125 46.1062C93.2577 45.8994 93.0437 45.6325 92.8705 45.3055C92.6974 44.9737 92.6109 44.5721 92.6109 44.1008V41.4679C92.6109 41.2083 92.6565 40.9294 92.7479 40.6312C92.8393 40.3282 92.986 40.0493 93.1879 39.7945C93.3947 39.5348 93.6616 39.3184 93.9886 39.1452C94.3205 38.9721 94.722 38.8855 95.1933 38.8855H98.5764C98.8361 38.8855 99.115 38.9312 99.4131 39.0226C99.7161 39.114 99.995 39.2631 100.25 39.4698C100.51 39.6718 100.726 39.9387 100.899 40.2705C101.072 40.5975 101.159 40.9967 101.159 41.4679Z" fill="#8785FF"/>
<path d="M120.951 46.6833H119.061V40.523L115.736 46.3731C115.654 46.5222 115.538 46.6351 115.389 46.7121C115.245 46.789 115.089 46.8275 114.921 46.8275C114.757 46.8275 114.603 46.789 114.459 46.7121C114.319 46.6351 114.209 46.5222 114.127 46.3731L110.787 40.523V46.6833H108.912V37.1399C108.912 36.9235 108.974 36.7311 109.099 36.5628C109.229 36.3945 109.397 36.2815 109.604 36.2238C109.705 36.1998 109.806 36.1925 109.907 36.2022C110.008 36.207 110.104 36.2286 110.196 36.2671C110.292 36.3008 110.378 36.3513 110.455 36.4186C110.532 36.4811 110.597 36.558 110.65 36.6494L114.921 44.072L119.191 36.6494C119.302 36.4667 119.453 36.3368 119.645 36.2599C119.843 36.1829 120.047 36.1709 120.258 36.2238C120.46 36.2815 120.626 36.3945 120.756 36.5628C120.886 36.7311 120.951 36.9235 120.951 37.1399V46.6833Z" fill="#8785FF"/>
<path d="M131.673 44.1008C131.673 44.3605 131.627 44.6419 131.536 44.9448C131.445 45.243 131.295 45.5219 131.089 45.7816C130.887 46.0365 130.62 46.2505 130.288 46.4236C129.961 46.5967 129.562 46.6833 129.091 46.6833H125.707C125.448 46.6833 125.166 46.6376 124.864 46.5462C124.565 46.4548 124.286 46.3082 124.027 46.1062C123.772 45.8994 123.558 45.6325 123.385 45.3055C123.212 44.9737 123.125 44.5721 123.125 44.1008C123.125 43.8412 123.171 43.5598 123.262 43.2569C123.354 42.9539 123.5 42.675 123.702 42.4201C123.909 42.1604 124.176 41.944 124.503 41.7709C124.835 41.5978 125.236 41.5112 125.707 41.5112H129.091V43.3002H125.707C125.453 43.3002 125.255 43.3795 125.116 43.5382C124.977 43.6921 124.907 43.8844 124.907 44.1153C124.907 44.3605 124.986 44.5529 125.145 44.6924C125.308 44.827 125.501 44.8943 125.722 44.8943H129.091C129.345 44.8943 129.543 44.8174 129.682 44.6635C129.822 44.5096 129.891 44.3173 129.891 44.0864V41.4679C129.891 41.2227 129.814 41.0279 129.66 40.8837C129.511 40.7394 129.321 40.6673 129.091 40.6673H124.972V38.8855H129.091C129.35 38.8855 129.629 38.9312 129.927 39.0226C130.23 39.114 130.509 39.2631 130.764 39.4698C131.024 39.6718 131.24 39.9387 131.413 40.2705C131.586 40.5975 131.673 40.9967 131.673 41.4679V44.1008Z" fill="#8785FF"/>
<path d="M140.837 40.761H136.617C136.362 40.761 136.17 40.826 136.04 40.9558C135.91 41.0808 135.845 41.266 135.845 41.5112V46.6833H133.97V41.5112C133.97 41.189 134.011 40.9005 134.092 40.6456C134.174 40.3908 134.282 40.1671 134.417 39.9748C134.556 39.7776 134.715 39.6117 134.893 39.4771C135.071 39.3376 135.256 39.2246 135.449 39.138C135.646 39.0515 135.843 38.989 136.04 38.9505C136.242 38.9072 136.43 38.8855 136.603 38.8855H140.837V40.761Z" fill="#8785FF"/>
<path d="M151.977 46.6833H149.272L145.493 43.0333C145.281 42.8409 145.182 42.6005 145.197 42.3119C145.206 42.1773 145.24 42.0522 145.298 41.9368C145.36 41.8166 145.444 41.7156 145.55 41.6339L148.977 38.8711H151.977L147.563 42.4273L151.977 46.6833ZM144.721 46.6833H142.845V35.589H144.721V46.6833Z" fill="#8785FF"/>
<path d="M161.899 41.4679C161.899 41.7276 161.853 42.0089 161.762 42.3119C161.67 42.6101 161.521 42.889 161.314 43.1487C161.112 43.4036 160.846 43.6176 160.514 43.7907C160.187 43.9638 159.788 44.0504 159.316 44.0504H155.933V42.2686H159.316C159.571 42.2686 159.768 42.1917 159.908 42.0378C160.047 41.8791 160.117 41.6844 160.117 41.4535C160.117 41.2083 160.038 41.0159 159.879 40.8765C159.725 40.737 159.537 40.6673 159.316 40.6673H155.933C155.678 40.6673 155.481 40.7466 155.342 40.9053C155.202 41.0592 155.133 41.2515 155.133 41.4824V44.1008C155.133 44.3509 155.209 44.5457 155.363 44.6852C155.522 44.8246 155.717 44.8943 155.948 44.8943H159.316V46.6833H155.933C155.674 46.6833 155.392 46.6376 155.089 46.5462C154.791 46.4548 154.512 46.3082 154.252 46.1062C153.998 45.8994 153.784 45.6325 153.61 45.3055C153.437 44.9737 153.351 44.5721 153.351 44.1008V41.4679C153.351 41.2083 153.396 40.9294 153.488 40.6312C153.579 40.3282 153.726 40.0493 153.928 39.7945C154.135 39.5348 154.402 39.3184 154.729 39.1452C155.06 38.9721 155.462 38.8855 155.933 38.8855H159.316C159.576 38.8855 159.855 38.9312 160.153 39.0226C160.456 39.114 160.735 39.2631 160.99 39.4698C161.249 39.6718 161.466 39.9387 161.639 40.2705C161.812 40.5975 161.899 40.9967 161.899 41.4679Z" fill="#8785FF"/>
<path d="M170.99 40.761H167.716V46.6833H165.818V40.761H163.38V38.8855H165.818V36.3392H167.716V38.8855H170.99V40.761Z" fill="#8785FF"/>
<path d="M174.867 37.2842H172.992V35.589H174.867V37.2842ZM174.867 46.6833H172.992V38.8855H174.867V46.6833Z" fill="#8785FF"/>
<path d="M186.051 46.6833H184.175V42.3552C184.175 42.1099 184.132 41.8911 184.045 41.6988C183.964 41.5016 183.851 41.3333 183.706 41.1938C183.562 41.0544 183.391 40.9486 183.194 40.8765C183.002 40.7995 182.793 40.761 182.567 40.761H179.284V46.6833H177.409V39.8161C177.409 39.6862 177.433 39.566 177.481 39.4554C177.529 39.34 177.597 39.2414 177.683 39.1597C177.77 39.0731 177.871 39.0058 177.986 38.9577C178.101 38.9096 178.224 38.8855 178.354 38.8855H182.581C182.817 38.8855 183.064 38.912 183.324 38.9649C183.588 39.0178 183.848 39.1044 184.103 39.2246C184.363 39.34 184.608 39.4891 184.839 39.6718C185.074 39.8497 185.281 40.0686 185.459 40.3282C185.642 40.5831 185.786 40.8789 185.892 41.2155C185.998 41.5521 186.051 41.932 186.051 42.3552V46.6833Z" fill="#8785FF"/>
<path d="M196.917 47.4334C196.917 47.7556 196.876 48.0442 196.794 48.2991C196.713 48.5587 196.604 48.7848 196.47 48.9771C196.335 49.1743 196.179 49.3402 196.001 49.4749C195.823 49.6143 195.635 49.7273 195.438 49.8139C195.246 49.9004 195.049 49.9629 194.847 50.0014C194.65 50.0447 194.462 50.0663 194.284 50.0663H190.901V48.1909H194.284C194.539 48.1909 194.729 48.1259 194.854 47.9961C194.979 47.8662 195.041 47.6787 195.041 47.4334V41.5112C195.041 41.266 194.979 41.0808 194.854 40.9558C194.729 40.826 194.539 40.761 194.284 40.761H190.901C190.67 40.761 190.487 40.8332 190.353 40.9774C190.218 41.1169 190.151 41.2948 190.151 41.5112V44.0504C190.151 44.2956 190.216 44.4832 190.346 44.613C190.475 44.7428 190.665 44.8078 190.915 44.8078H194.284V46.6833H190.901C190.723 46.6833 190.535 46.664 190.338 46.6255C190.141 46.5823 189.944 46.5173 189.747 46.4308C189.554 46.3442 189.369 46.2336 189.191 46.099C189.013 45.9595 188.857 45.7936 188.723 45.6012C188.588 45.4041 188.48 45.1781 188.398 44.9232C188.316 44.6635 188.275 44.3726 188.275 44.0504V41.5112C188.275 41.3333 188.295 41.1458 188.333 40.9486C188.376 40.7514 188.441 40.5567 188.528 40.3643C188.614 40.1671 188.725 39.9796 188.86 39.8017C188.999 39.6237 189.165 39.4674 189.357 39.3328C189.554 39.1981 189.781 39.0899 190.035 39.0082C190.29 38.9264 190.579 38.8855 190.901 38.8855H194.284C194.462 38.8855 194.65 38.9072 194.847 38.9505C195.049 38.989 195.246 39.0515 195.438 39.138C195.635 39.2246 195.823 39.3376 196.001 39.4771C196.179 39.6117 196.335 39.7776 196.47 39.9748C196.604 40.1671 196.713 40.3908 196.794 40.6456C196.876 40.9005 196.917 41.189 196.917 41.5112V47.4334Z" fill="#8785FF"/>
<path d="M196.766 10.6094L194.021 7.3809L199.567 0.680811H205.088L196.766 10.6094Z" fill="#807DF0"/>
<path d="M188.891 13.0624L191.636 16.2909L186.031 23.0495H180.51L188.891 13.0624Z" fill="#807DF0"/>
<path d="M23.3086 13.6884C23.3086 15.0505 23.0695 16.3034 22.5912 17.4472C22.1233 18.5909 21.4734 19.5787 20.6416 20.4105C19.8098 21.232 18.822 21.8766 17.6783 22.3445C16.5345 22.8124 15.292 23.0464 13.9507 23.0464H3.00185C2.71072 23.0464 2.4404 22.9944 2.19086 22.8904C1.94131 22.7864 1.72298 22.6461 1.53582 22.4693C1.35906 22.2821 1.21868 22.0638 1.1147 21.8142C1.01072 21.5647 0.95874 21.2944 0.95874 21.0032V2.72399C0.95874 2.44325 1.01072 2.17811 1.1147 1.92856C1.21868 1.67902 1.35906 1.46066 1.53582 1.2735C1.72298 1.08634 1.94131 0.940774 2.19086 0.836797C2.4404 0.73282 2.71072 0.680823 3.00185 0.680823H13.9507C15.292 0.680823 16.5345 0.914775 17.6783 1.38267C18.822 1.85057 19.8098 2.50043 20.6416 3.33225C21.4734 4.15367 22.1233 5.14147 22.5912 6.29562C23.0695 7.43937 23.3086 8.68709 23.3086 10.0388V13.6884ZM19.2535 10.0388C19.2535 9.24857 19.1235 8.52593 18.8636 7.87087C18.6141 7.21582 18.2553 6.65954 17.7874 6.20204C17.3195 5.73414 16.758 5.37542 16.103 5.12587C15.4583 4.86593 14.7409 4.73596 13.9507 4.73596H5.01382V18.9913H13.9507C14.7409 18.9913 15.4583 18.8665 16.103 18.6169C16.758 18.357 17.3195 17.9983 17.7874 17.5408C18.2553 17.0729 18.6141 16.5166 18.8636 15.8719C19.1235 15.2169 19.2535 14.489 19.2535 13.6884V10.0388Z" fill="white"/>
<path d="M29.9062 23.0464H25.8511V0.680823H29.9062V23.0464Z" fill="white"/>
<path d="M54.8115 21.0032C54.8115 21.2944 54.7595 21.5647 54.6555 21.8142C54.5515 22.0638 54.4059 22.2821 54.2188 22.4693C54.042 22.6461 53.8289 22.7864 53.5794 22.8904C53.3298 22.9944 53.0594 23.0464 52.7683 23.0464H38.1387C37.7644 23.0464 37.3589 23.0048 36.9222 22.9216C36.4959 22.828 36.0696 22.6877 35.6432 22.5005C35.2273 22.3133 34.827 22.0742 34.4422 21.7831C34.0575 21.4815 33.7144 21.1228 33.4129 20.7069C33.1217 20.2806 32.8878 19.7919 32.711 19.2408C32.5342 18.6793 32.4458 18.0503 32.4458 17.3536V6.3736C32.4458 5.99928 32.4874 5.59897 32.5706 5.17266C32.6642 4.73596 32.8046 4.30965 32.9917 3.89374C33.1789 3.46744 33.4232 3.06191 33.7248 2.6772C34.0263 2.29248 34.385 1.95455 34.801 1.66341C35.2273 1.36188 35.716 1.12273 36.2671 0.945969C36.8182 0.769208 37.4421 0.680823 38.1387 0.680823H54.6243V4.73596H38.1387C37.6084 4.73596 37.2029 4.87633 36.9222 5.15706C36.6414 5.4378 36.5011 5.85371 36.5011 6.40479V17.3536C36.5011 17.8735 36.6414 18.279 36.9222 18.5702C37.2133 18.8509 37.6188 18.9913 38.1387 18.9913H50.7563V13.9067H39.9635V9.82045H52.7683C53.0594 9.82045 53.3298 9.87763 53.5794 9.992C53.8289 10.096 54.042 10.2415 54.2188 10.4287C54.4059 10.6159 54.5515 10.8342 54.6555 11.0838C54.7595 11.3229 54.8115 11.5829 54.8115 11.8636V21.0032Z" fill="white"/>
<path d="M61.3656 23.0464H57.3104V0.680823H61.3656V23.0464Z" fill="white"/>
<path d="M85.5874 4.73596H76.6506V23.0464H72.5954V4.73596H63.6429V0.680823H85.5874V4.73596Z" fill="white"/>
<path d="M109.747 23.0464H105.691V17.5564H91.4361V23.0464H87.381V11.8636C87.381 10.2312 87.6617 8.72869 88.2232 7.35619C88.7847 5.98369 89.5645 4.80353 90.5627 3.81575C91.5609 2.82797 92.741 2.05853 94.1031 1.50745C95.4652 0.956374 96.9521 0.680823 98.5637 0.680823H107.703C107.984 0.680823 108.249 0.73282 108.499 0.836797C108.748 0.940774 108.967 1.08634 109.154 1.2735C109.341 1.46066 109.487 1.67902 109.591 1.92856C109.694 2.17811 109.747 2.44325 109.747 2.72399V23.0464ZM91.4361 13.5012H105.691V4.73596H98.5637C98.439 4.73596 98.1738 4.75675 97.7683 4.79834C97.3732 4.82954 96.9105 4.91792 96.3802 5.06349C95.8604 5.20906 95.3092 5.4326 94.727 5.73413C94.1447 6.03567 93.6092 6.45159 93.1205 6.98187C92.6318 7.51215 92.2263 8.17761 91.904 8.97823C91.5921 9.76846 91.4361 10.7302 91.4361 11.8636V13.5012Z" fill="white"/>
<path d="M132.814 23.0464H114.317C114.026 23.0464 113.755 22.9944 113.506 22.8904C113.256 22.7864 113.038 22.6461 112.851 22.4693C112.674 22.2821 112.534 22.0638 112.43 21.8142C112.326 21.5647 112.274 21.2944 112.274 21.0032V0.680823H116.329V18.9913H132.814V23.0464Z" fill="white"/>
<path d="M170.479 23.0464H166.392V9.72687L159.202 22.3757C159.025 22.6981 158.776 22.9424 158.454 23.1088C158.142 23.2751 157.804 23.3583 157.44 23.3583C157.086 23.3583 156.754 23.2751 156.442 23.1088C156.14 22.9424 155.901 22.6981 155.724 22.3757L148.503 9.72687V23.0464H144.448V2.41205C144.448 1.94415 144.583 1.52825 144.853 1.16433C145.134 0.800407 145.498 0.556059 145.945 0.431286C146.164 0.379297 146.382 0.363702 146.6 0.384498C146.819 0.394895 147.026 0.441681 147.224 0.524862C147.432 0.597646 147.619 0.706825 147.786 0.852393C147.952 0.987563 148.092 1.15392 148.207 1.35148L157.44 17.4004L166.673 1.35148C166.912 0.956367 167.24 0.67563 167.656 0.509266C168.082 0.342903 168.524 0.316911 168.981 0.431286C169.418 0.556059 169.777 0.800407 170.057 1.16433C170.338 1.52825 170.479 1.94415 170.479 2.41205V23.0464Z" fill="white"/>
<path d="M177.825 23.0464H173.77V0.680823H177.825V23.0464Z" fill="white"/>
<path d="M192.782 8.6663L195.527 11.8948L205.088 23.0464H199.582L192.782 15.1233L190.037 11.8948L180.461 0.680823H185.951L192.782 8.6663Z" fill="white"/>
</svg>
