<svg width="47" height="47" viewBox="0 0 47 47" fill="none" xmlns="http://www.w3.org/2000/svg">
<path d="M43.7965 37.2157V26.1503C45.316 24.2796 46.5315 21.9723 46.5315 19.3629C46.5315 15.735 43.7173 12.7837 40.2586 12.7837C39.2739 12.7838 38.3017 13.0339 37.415 13.5129C36.5283 13.0339 35.5561 12.7838 34.5715 12.7838C33.5421 12.7838 32.5726 13.0501 31.7146 13.5129H23.458C22.9165 11.5936 21.2349 10.1797 19.2257 10.1797C18.5812 10.1797 17.9451 10.3301 17.3584 10.6195C16.7712 10.3301 16.1356 10.1797 15.4919 10.1797C13.4827 10.1797 11.8012 11.5936 11.2596 13.5129H8.24238C5.72912 13.5129 3.68415 15.5579 3.68415 18.0711V37.2157C2.17602 37.2157 0.949219 38.4425 0.949219 39.9506V43.5972C0.949219 45.1053 2.17602 46.3321 3.68415 46.3321H43.7965C45.3047 46.3321 46.5315 45.1053 46.5315 43.5972V39.9506C46.5315 38.4425 45.3047 37.2157 43.7965 37.2157ZM36.9102 15.3344C37.2165 15.5374 37.6136 15.5374 37.9198 15.3344C38.6356 14.8581 39.444 14.607 40.2586 14.607C42.7122 14.607 44.7082 16.7401 44.7082 19.3629C44.7082 24.3075 39.0683 28.263 37.415 29.3162C35.7618 28.263 30.1219 24.3075 30.1219 19.3629C30.1219 16.7402 32.1179 14.607 34.5715 14.607C35.3861 14.607 36.1944 14.8581 36.9102 15.3344ZM16.9097 22.8421C17.1681 22.9887 17.525 23.0031 17.808 22.8421C17.9659 22.7525 20.4719 21.3021 22.1522 18.9828H28.3169C28.31 19.1093 28.2986 19.2346 28.2986 19.3629C28.2986 26.1931 36.612 30.9775 36.9663 31.1778C37.2423 31.3352 37.5879 31.3352 37.8637 31.1778C37.9072 31.1532 38.0733 31.0577 38.3267 30.8996V32.6574C38.3267 33.1604 37.918 33.5691 37.415 33.5691H10.0657C9.56311 33.5691 9.15403 33.1604 9.15403 32.6574V19.8944C9.15403 19.3914 9.56311 18.9828 10.0657 18.9828H12.5655C14.2457 21.302 16.7515 22.7524 16.9097 22.8421ZM28.6682 17.1595H23.179C23.4105 16.5848 23.5613 15.9743 23.6191 15.3362H29.6216C29.2168 15.8823 28.894 16.4962 28.6682 17.1595ZM15.4919 12.003C15.9647 12.003 16.4356 12.1499 16.854 12.4285C17.1603 12.6315 17.5591 12.6324 17.8645 12.4276C18.2874 12.1454 18.745 12.003 19.2257 12.003C20.664 12.003 21.8343 13.2636 21.8343 14.8127C21.8343 17.756 18.5749 20.1748 17.3588 20.9743C16.1427 20.1748 12.8834 17.756 12.8834 14.8127C12.8834 13.2636 14.0537 12.003 15.4919 12.003ZM5.50744 18.0711C5.50744 16.563 6.73425 15.3362 8.24238 15.3362H11.0986C11.1564 15.9743 11.3072 16.5848 11.5387 17.1595H10.0657C8.55754 17.1595 7.33073 18.3863 7.33073 19.8944V32.6574C7.33073 34.1656 8.55754 35.3924 10.0657 35.3924H37.415C38.9232 35.3924 40.15 34.1656 40.15 32.6574V29.6314C40.7165 29.1995 41.3402 28.6799 41.9732 28.0888V37.2157H31.2979C30.9712 37.2157 30.6694 37.391 30.5065 37.6742L28.6814 40.8622H18.7989L16.9738 37.6742C16.8113 37.391 16.5095 37.2157 16.1828 37.2157H5.50744V18.0711ZM44.7082 43.5972C44.7082 44.1002 44.2995 44.5088 43.7965 44.5088H3.68415C3.18159 44.5088 2.77251 44.1002 2.77251 43.5972V39.9506C2.77251 39.4476 3.18159 39.039 3.68415 39.039H15.6544L17.4795 42.227C17.6419 42.5102 17.9437 42.6855 18.2705 42.6855H29.2102C29.537 42.6855 29.8388 42.5102 30.0017 42.227L31.8267 39.039H43.7965C44.2995 39.039 44.7082 39.4476 44.7082 39.9506V43.5972Z" fill="#827FE3"/>
<path d="M41.0679 42.7002C41.5714 42.7002 41.9795 42.2921 41.9795 41.7886C41.9795 41.2851 41.5714 40.877 41.0679 40.877C40.5644 40.877 40.1562 41.2851 40.1562 41.7886C40.1562 42.2921 40.5644 42.7002 41.0679 42.7002Z" fill="#827FE3"/>
<path d="M37.4195 42.7002C37.9229 42.7002 38.3311 42.2921 38.3311 41.7886C38.3311 41.2851 37.9229 40.877 37.4195 40.877C36.916 40.877 36.5078 41.2851 36.5078 41.7886C36.5078 42.2921 36.916 42.7002 37.4195 42.7002Z" fill="#827FE3"/>
<path d="M32.8589 20.2915C33.3628 20.2915 33.7706 19.8837 33.7706 19.3798C33.7706 18.7789 34.1382 18.2706 34.5736 18.2706C35.0775 18.2706 35.4852 17.8628 35.4852 17.3589C35.4852 16.855 35.0775 16.4473 34.5736 16.4473C33.1251 16.4473 31.9473 17.7631 31.9473 19.3798C31.9473 19.8837 32.355 20.2915 32.8589 20.2915Z" fill="#827FE3"/>
<path d="M35.5855 10.7897C36.0894 10.7897 36.4971 10.382 36.4971 9.87807V5.31985C36.4971 4.81595 36.0894 4.4082 35.5855 4.4082C35.0816 4.4082 34.6738 4.81595 34.6738 5.31985V9.87807C34.6738 10.382 35.0816 10.7897 35.5855 10.7897Z" fill="#827FE3"/>
<path d="M39.2339 10.7879C39.7378 10.7879 40.1456 10.3801 40.1456 9.87622V1.67141C40.1456 1.16752 39.7378 0.759766 39.2339 0.759766C38.73 0.759766 38.3223 1.16752 38.3223 1.67141V9.87622C38.3223 10.3801 38.73 10.7879 39.2339 10.7879Z" fill="#827FE3"/>
<path d="M26.9372 8.31316C27.2023 8.46384 27.5586 8.47065 27.8364 8.31316C27.9664 8.23927 31.0334 6.47206 31.0334 3.84574C31.0334 2.30111 29.8226 1.04492 28.335 1.04492C28.01 1.04492 27.6895 1.10635 27.3868 1.22565C27.0841 1.10635 26.7636 1.04492 26.4387 1.04492C24.951 1.04492 23.7402 2.30111 23.7402 3.84574C23.7402 6.47185 26.8067 8.23898 26.9372 8.31316ZM26.4387 2.86821C26.5927 2.86821 26.7423 2.9154 26.8811 3.00799C27.1874 3.21275 27.5862 3.21275 27.8925 3.00799C28.4658 2.62606 29.2101 3.1353 29.2101 3.84574C29.2101 4.89627 28.132 5.89961 27.3868 6.43378C26.6541 5.90496 25.5635 4.89271 25.5635 3.84574C25.5635 3.30712 25.9561 2.86821 26.4387 2.86821Z" fill="#827FE3"/>
<path d="M19.1851 8.06018C19.6885 8.06018 20.0967 7.65243 20.0967 7.14853V4.4136C20.0967 3.9097 19.6885 3.50195 19.1851 3.50195C18.6816 3.50195 18.2734 3.9097 18.2734 4.4136V7.14853C18.2734 7.65243 18.6816 8.06018 19.1851 8.06018Z" fill="#827FE3"/>
<path d="M15.5347 8.05293C16.0381 8.05293 16.4463 7.64518 16.4463 7.14128V1.67141C16.4463 1.16752 16.0381 0.759766 15.5347 0.759766C15.0312 0.759766 14.623 1.16752 14.623 1.67141V7.14128C14.623 7.64518 15.0312 8.05293 15.5347 8.05293Z" fill="#827FE3"/>
</svg>
