<svg width="29" height="30" viewBox="0 0 29 30" fill="none" xmlns="http://www.w3.org/2000/svg">
<path fill-rule="evenodd" clip-rule="evenodd" d="M25.1296 29.1562H20.2356C19.0068 29.1562 18.0111 28.1595 18.0111 26.9316V20.7029C18.0111 19.4741 19.0068 18.4784 20.2356 18.4784H20.9542C21.417 18.4784 21.891 18.1082 22.0144 17.6424L22.4862 15.8654C22.6243 15.3475 22.3298 14.9186 21.827 14.9186H20.2355C19.0068 14.9186 18.011 13.923 18.011 12.6947V11.8049C18.011 10.5757 19.0068 9.57994 20.2355 9.57994H21.5707C22.0612 9.57994 22.4606 9.18196 22.4606 8.69011V6.91023C22.4606 6.41927 22.0612 6.02018 21.5707 6.02018H18.9008C16.4434 6.02018 14.4521 8.01273 14.4521 10.4699V12.6947C14.4521 13.923 13.4554 14.9186 12.2274 14.9186H11.8033C11.3006 14.9186 10.8924 15.3475 10.8924 15.8654V17.6424C10.8924 18.1082 11.2676 18.4784 11.7305 18.4784H12.2274C13.4555 18.4784 14.4521 19.4741 14.4521 20.7029V26.9316C14.4521 28.1595 13.4554 29.1562 12.2274 29.1562H11.7825C11.2906 29.1562 10.8924 28.7573 10.8924 28.2664C10.8924 27.7745 11.2906 27.3765 11.7825 27.3765C12.2732 27.3765 12.6723 26.9777 12.6723 26.4867V21.1478C12.6723 20.6559 12.2733 20.258 11.7825 20.258H11.1988C10.0465 20.258 9.1126 19.336 9.1126 18.1681V15.503C9.1126 14.2152 10.1343 13.1387 11.3943 13.1387H11.7825C12.2732 13.1387 12.6723 12.7405 12.6723 12.2498V10.025C12.6723 6.83042 15.2617 4.24135 18.4559 4.24135H22.0157C23.244 4.24135 24.2394 5.23696 24.2394 6.46526V9.13497C24.2394 10.3632 23.244 11.3597 22.0157 11.3597H20.6805H19.7907V12.2498C19.7907 12.7405 20.1887 13.1387 20.6805 13.1387H22.3472C23.6081 13.1387 24.4271 14.2151 24.1859 15.503L23.6859 18.1681C23.4673 19.336 22.3611 20.258 21.2088 20.258H20.6805C20.1887 20.258 19.7907 20.6559 19.7907 21.1478V26.4867C19.7907 26.9777 20.1887 27.3765 20.6805 27.3765H25.1296C26.1124 27.3765 26.9093 26.5797 26.9093 25.5969V4.24135C26.9093 3.25764 26.1124 2.46152 25.1296 2.46152H3.77407C2.79125 2.46152 1.99424 3.2577 1.99424 4.24135V25.5969C1.99424 26.5797 2.7913 27.3765 3.77407 27.3765H4.6639C5.15486 27.3765 5.55389 27.7745 5.55389 28.2664C5.55389 28.7573 5.15486 29.1562 4.6639 29.1562H3.77407C1.80871 29.1562 0.214355 27.5625 0.214355 25.5969V4.24135C0.214355 2.27488 1.80871 0.681641 3.77407 0.681641H25.1296C27.0961 0.681641 28.6889 2.27488 28.6889 4.24135V25.5969C28.6889 27.5625 27.0961 29.1562 25.1296 29.1562ZM8.22277 27.3765C8.71462 27.3765 9.1126 27.7745 9.1126 28.2664C9.1126 28.7573 8.71462 29.1562 8.22277 29.1562C7.73181 29.1562 7.33272 28.7573 7.33272 28.2664C7.33272 27.7745 7.73181 27.3765 8.22277 27.3765Z" fill="#3B5998"/>
</svg>
