<svg width="46" height="46" viewBox="0 0 46 46" fill="none" xmlns="http://www.w3.org/2000/svg">
<path d="M38.5759 9.38328V36.8885C38.5711 36.9477 38.5435 37.0027 38.4991 37.0421C38.4805 37.4029 38.3289 37.744 38.0734 37.9994C37.818 38.2549 37.4769 38.4065 37.1161 38.4251H29.049V26.5932H32.8137C33.0441 26.5932 33.0441 26.5932 33.121 26.3627L33.3515 24.442C33.4283 23.6737 33.5051 22.9054 33.6588 22.1371C33.8124 21.3688 33.6588 21.9066 33.5051 21.9066H29.049V18.9102C29.049 18.6797 29.1258 18.3724 29.1258 18.1419C29.1592 17.8273 29.2994 17.5337 29.5231 17.31C29.7468 17.0863 30.0405 16.946 30.3551 16.9126L31.3539 16.759H33.6588C33.8124 16.759 33.8124 16.759 33.8124 16.6053V12.687C33.8124 12.6101 33.8124 12.5333 33.6588 12.5333H30.1246C29.2488 12.5093 28.3798 12.6936 27.5892 13.0711C27.0044 13.2679 26.4651 13.5802 26.0031 13.9893C25.5412 14.3984 25.1662 14.8961 24.9002 15.4529C24.4619 16.307 24.2503 17.2594 24.2855 18.2187C24.2087 19.3712 24.2855 20.6005 24.2855 21.8298H20.3672C20.2135 21.8298 20.2135 21.9066 20.2135 21.9834V26.3627C20.2135 26.5164 20.2135 26.5164 20.3672 26.5164H24.2855V38.3482C24.2411 38.3876 24.2135 38.4427 24.2087 38.5019H9.30364C8.94287 38.4834 8.60178 38.3317 8.34634 38.0763C8.09089 37.8208 7.93924 37.4797 7.9207 37.119C7.84387 37.119 7.84387 37.0421 7.84387 36.9653V9.38328C7.84387 9.30645 7.84387 9.22962 7.9207 9.22962C7.93924 8.86885 8.09089 8.52776 8.34634 8.27231C8.60178 8.01687 8.94287 7.86522 9.30364 7.84668H37.1161C37.4769 7.86522 37.818 8.01687 38.0734 8.27231C38.3289 8.52776 38.4805 8.86885 38.4991 9.22962L38.5759 9.38328Z" fill="#59597F"/>
</svg>
