<svg width="23" height="28" viewBox="0 0 23 28" fill="none" xmlns="http://www.w3.org/2000/svg">
<path fill-rule="evenodd" clip-rule="evenodd" d="M0.712044 12.3748C0.712044 11.5229 0.723768 10.6709 0.735547 9.81507C0.741519 9.38116 0.747504 8.94624 0.751983 8.50977C0.751983 3.82041 4.1069 0.401367 8.73986 0.401367H14.6908C19.3237 0.401367 22.6788 3.82041 22.6788 8.50977C22.7186 10.3882 22.732 12.2667 22.732 14.1586C22.732 16.0506 22.7186 17.956 22.6788 19.8345C22.6788 24.5238 19.3237 27.9429 14.6908 27.9429H8.73986C4.1069 27.9429 0.751983 24.5238 0.751983 19.821C0.725357 18.0506 0.69873 16.2398 0.69873 14.4019L0.712044 12.3748ZM13.7298 24.693V24.9133C13.7298 25.841 12.8434 26.5658 11.7153 26.5658C10.6141 26.5658 9.70084 25.841 9.70084 24.9133V24.693C9.70084 23.7897 10.6141 23.0405 11.7153 23.0405C12.8434 23.0405 13.7298 23.7897 13.7298 24.693ZM3.87263 9.27444C3.86422 9.83075 3.85584 10.3845 3.85584 10.9382L3.84634 12.2558C3.84634 13.4505 3.86535 14.6276 3.88438 15.7783C3.88438 18.8352 6.28074 21.0575 9.59001 21.0575H13.8407C17.15 21.0575 19.5463 18.8352 19.5463 15.7871C19.5749 14.5661 19.5844 13.3275 19.5844 12.0977C19.5844 10.868 19.5749 9.64697 19.5463 8.42598C19.5463 5.37791 17.15 3.15552 13.8407 3.15552H9.59001C6.28074 3.15552 3.88438 5.37791 3.88438 8.42598C3.88118 8.70968 3.8769 8.9924 3.87263 9.27444Z" fill="#807DF0"/>
</svg>
