<svg width="118" height="113" viewBox="0 0 118 113" fill="none" xmlns="http://www.w3.org/2000/svg">
<path d="M111.404 109.334H6.59643C5.24939 109.334 4.16406 108.231 4.16406 106.88V6.15094C4.16406 4.79183 5.25709 3.69678 6.59643 3.69678H111.404C112.751 3.69678 113.836 4.7996 113.836 6.15094V106.88C113.836 108.239 112.743 109.334 111.404 109.334Z" fill="white"/>
<mask id="mask0_336_802" style="mask-type:luminance" maskUnits="userSpaceOnUse" x="3" y="3" width="112" height="107">
<path d="M114.145 3.38623H3.85742V109.645H114.145V3.38623Z" fill="white"/>
</mask>
<g mask="url(#mask0_336_802)">
<path d="M111.404 109.334H6.59643C5.24939 109.334 4.16406 108.231 4.16406 106.88V6.15094C4.16406 4.79183 5.25709 3.69678 6.59643 3.69678H111.404C112.751 3.69678 113.836 4.7996 113.836 6.15094V106.88C113.836 108.239 112.743 109.334 111.404 109.334Z" stroke="#5F6368" stroke-width="0.79" stroke-miterlimit="10"/>
</g>
<path d="M23.4989 79.799C22.8754 79.434 22.3828 78.937 22.0133 78.3001C21.6438 77.6633 21.4668 76.9566 21.4668 76.1877C21.4668 75.4188 21.6515 74.7121 22.0133 74.0753C22.3751 73.4384 22.8754 72.9414 23.4989 72.5764C24.1224 72.2113 24.8075 72.0327 25.5464 72.0327C26.1237 72.0327 26.6702 72.1337 27.1782 72.3434C27.6863 72.5531 28.1096 72.8404 28.4406 73.221L27.7709 73.8966C27.5246 73.586 27.2013 73.3452 26.8165 73.1821C26.4239 73.019 26.0082 72.9336 25.5618 72.9336C25.0076 72.9336 24.4842 73.0656 24.0069 73.3375C23.5297 73.6093 23.1448 73.9898 22.8523 74.4791C22.5598 74.9684 22.4213 75.5431 22.4213 76.1877C22.4213 76.8323 22.5675 77.3992 22.8523 77.8963C23.1371 78.3933 23.5297 78.7661 24.0146 79.0379C24.4996 79.3098 25.0153 79.4418 25.5695 79.4418C26.1237 79.4418 26.5394 79.3564 26.8934 79.1933C27.2475 79.0302 27.5554 78.805 27.8094 78.5331C28.0019 78.3234 28.1558 78.0749 28.2713 77.7798C28.3867 77.4847 28.4637 77.1663 28.4945 76.809H25.5772V75.9314H29.3643C29.4028 76.1411 29.4182 76.3275 29.4182 76.5061C29.4182 76.9954 29.3412 77.4691 29.1873 77.9351C29.0333 78.4011 28.787 78.8049 28.4483 79.1544C27.7248 79.9466 26.7549 80.3427 25.5541 80.3427C24.8152 80.3427 24.1301 80.1641 23.5066 79.799H23.4989ZM31.7274 79.9466C31.2886 79.6825 30.9423 79.3175 30.6959 78.8593C30.4496 78.4011 30.3265 77.8963 30.3265 77.3371C30.3265 76.7779 30.4496 76.2731 30.6959 75.8149C30.9423 75.3567 31.2886 74.9917 31.7274 74.7276C32.1661 74.4636 32.6665 74.3315 33.213 74.3315C33.7595 74.3315 34.2598 74.4636 34.6986 74.7276C35.1373 74.9917 35.4837 75.3567 35.73 75.8149C35.9763 76.2731 36.0995 76.7779 36.0995 77.3371C36.0995 77.8963 35.9763 78.4011 35.73 78.8593C35.4837 79.3175 35.1373 79.6825 34.6986 79.9466C34.2598 80.2107 33.7595 80.3427 33.213 80.3427C32.6665 80.3427 32.1661 80.2107 31.7274 79.9466ZM34.1752 79.2321C34.4753 79.0612 34.714 78.805 34.891 78.4788C35.068 78.1526 35.1604 77.772 35.1604 77.3371C35.1604 76.9022 35.068 76.5217 34.891 76.1955C34.714 75.8693 34.4753 75.6208 34.1752 75.4499C33.875 75.279 33.5594 75.1858 33.213 75.1858C32.8666 75.1858 32.5433 75.2713 32.2431 75.4499C31.9429 75.6208 31.7043 75.877 31.5196 76.1955C31.3425 76.5217 31.2502 76.9022 31.2502 77.3371C31.2502 77.772 31.3425 78.1526 31.5196 78.4788C31.6966 78.805 31.9429 79.0535 32.2431 79.2321C32.5433 79.403 32.8666 79.4962 33.213 79.4962C33.5594 79.4962 33.8827 79.4107 34.1752 79.2321ZM38.2779 79.9466C37.8391 79.6825 37.4927 79.3175 37.2464 78.8593C37.0001 78.4011 36.8769 77.8963 36.8769 77.3371C36.8769 76.7779 37.0001 76.2731 37.2464 75.8149C37.4927 75.3567 37.8391 74.9917 38.2779 74.7276C38.7166 74.4636 39.2169 74.3315 39.7634 74.3315C40.31 74.3315 40.8103 74.4636 41.249 74.7276C41.6878 74.9917 42.0342 75.3567 42.2805 75.8149C42.5268 76.2731 42.65 76.7779 42.65 77.3371C42.65 77.8963 42.5268 78.4011 42.2805 78.8593C42.0342 79.3175 41.6878 79.6825 41.249 79.9466C40.8103 80.2107 40.31 80.3427 39.7634 80.3427C39.2169 80.3427 38.7166 80.2107 38.2779 79.9466ZM40.7256 79.2321C41.0258 79.0612 41.2644 78.805 41.4415 78.4788C41.6185 78.1526 41.7109 77.772 41.7109 77.3371C41.7109 76.9022 41.6185 76.5217 41.4415 76.1955C41.2644 75.8693 41.0258 75.6208 40.7256 75.4499C40.4254 75.279 40.1098 75.1858 39.7634 75.1858C39.4171 75.1858 39.0938 75.2713 38.7936 75.4499C38.4934 75.6208 38.2548 75.877 38.07 76.1955C37.893 76.5217 37.8006 76.9022 37.8006 77.3371C37.8006 77.772 37.893 78.1526 38.07 78.4788C38.2471 78.805 38.4934 79.0535 38.7936 79.2321C39.0938 79.403 39.4171 79.4962 39.7634 79.4962C40.1098 79.4962 40.4331 79.4107 40.7256 79.2321ZM44.5589 82.2765C44.1279 81.9658 43.843 81.5931 43.6968 81.1581L44.5435 80.7931C44.6667 81.1193 44.8745 81.3834 45.167 81.5853C45.4595 81.7872 45.7982 81.8882 46.1984 81.8882C46.7757 81.8882 47.2299 81.7251 47.5455 81.3989C47.8611 81.0727 48.0227 80.6067 48.0227 80.001V79.3719H47.9765C47.7918 79.6592 47.5378 79.8922 47.1991 80.0786C46.8681 80.2573 46.4832 80.3504 46.0599 80.3504C45.575 80.3504 45.1362 80.2262 44.7359 79.9699C44.3357 79.7136 44.0201 79.3564 43.7815 78.9059C43.5428 78.4477 43.4274 77.9274 43.4274 77.3449C43.4274 76.7624 43.5428 76.2498 43.7815 75.7916C44.0201 75.3334 44.3357 74.9762 44.7359 74.7199C45.1362 74.4636 45.575 74.3393 46.0599 74.3393C46.4832 74.3393 46.8681 74.4325 47.1991 74.6111C47.5301 74.7898 47.7918 75.0305 47.9765 75.3256H48.0227V74.5179H48.9156V79.9621C48.9156 80.8708 48.6693 81.5698 48.169 82.0435C47.6686 82.5173 47.0144 82.758 46.1984 82.758C45.5365 82.758 44.99 82.6027 44.5666 82.292L44.5589 82.2765ZM47.1144 79.2321C47.3915 79.0612 47.6071 78.8127 47.7764 78.4865C47.938 78.1603 48.0227 77.7798 48.0227 77.3371C48.0227 76.8944 47.938 76.4984 47.7764 76.1722C47.6148 75.846 47.3915 75.6052 47.1144 75.4344C46.8373 75.2635 46.5294 75.1781 46.1984 75.1781C45.8675 75.1781 45.5519 75.2635 45.2748 75.4344C44.9977 75.6052 44.7744 75.8537 44.6051 76.1799C44.4434 76.5061 44.3588 76.8867 44.3588 77.3293C44.3588 77.772 44.4434 78.1603 44.6051 78.4865C44.7667 78.8127 44.99 79.0612 45.2748 79.2321C45.5596 79.403 45.8598 79.4884 46.1984 79.4884C46.5371 79.4884 46.845 79.403 47.1144 79.2321ZM50.2934 72.2191H51.2325V80.1718H50.2934V72.2191ZM53.6726 79.9621C53.2492 79.7058 52.9182 79.3486 52.6796 78.8904C52.441 78.4322 52.3255 77.9196 52.3255 77.3526C52.3255 76.7857 52.441 76.3042 52.6642 75.8382C52.8875 75.38 53.203 75.015 53.6187 74.7354C54.0267 74.4636 54.5039 74.3238 55.0504 74.3238C55.5969 74.3238 56.0742 74.448 56.4821 74.6966C56.8824 74.9451 57.198 75.2868 57.4135 75.7217C57.629 76.1566 57.7368 76.6614 57.7368 77.2206C57.7368 77.3293 57.7291 77.4303 57.706 77.508H53.2723C53.2954 77.9351 53.3955 78.3001 53.5802 78.5953C53.765 78.8904 53.9959 79.1156 54.2807 79.2632C54.5655 79.4107 54.858 79.4884 55.1659 79.4884C55.8817 79.4884 56.4359 79.1467 56.8285 78.4632L57.6213 78.8515C57.3827 79.3098 57.0517 79.6748 56.6361 79.9388C56.2204 80.2029 55.7201 80.3349 55.1351 80.3349C54.5963 80.3349 54.119 80.2029 53.6957 79.9466L53.6726 79.9621ZM56.7361 76.7391C56.7207 76.5061 56.6515 76.2654 56.536 76.0246C56.4206 75.7916 56.2358 75.5897 55.9818 75.4266C55.7278 75.2635 55.4122 75.1858 55.0273 75.1858C54.5886 75.1858 54.2114 75.3256 53.9112 75.613C53.6033 75.9003 53.4032 76.2731 53.3108 76.7391H56.7361ZM61.1159 72.2191H63.7715C64.2103 72.2191 64.6182 72.3201 64.9954 72.522C65.3726 72.7239 65.6651 73.0035 65.896 73.3608C66.1192 73.718 66.2347 74.1219 66.2347 74.5801C66.2347 75.0383 66.1192 75.4344 65.896 75.7994C65.6728 76.1566 65.3726 76.4362 64.9954 76.6381C64.6182 76.8401 64.2103 76.941 63.7715 76.941H62.0396V80.1874H61.1159V72.2346V72.2191ZM63.7946 76.0246C64.0871 76.0246 64.3488 75.9547 64.5721 75.8149C64.7953 75.6751 64.9723 75.4965 65.0955 75.2713C65.2186 75.046 65.2802 74.8131 65.2802 74.5723C65.2802 74.3315 65.2186 74.0986 65.0955 73.8733C64.9723 73.6481 64.7953 73.4695 64.5721 73.3297C64.3488 73.1899 64.0871 73.12 63.7946 73.12H62.0473V76.0324H63.7946V76.0246ZM68.1128 80.1019C67.7896 79.9388 67.5432 79.7136 67.3662 79.4263C67.1892 79.1389 67.1045 78.8205 67.1045 78.4555C67.1045 77.8575 67.3277 77.3837 67.7742 77.0498C68.2206 76.7158 68.7902 76.5449 69.4676 76.5449C69.8063 76.5449 70.1219 76.5838 70.4067 76.6537C70.6992 76.7313 70.9224 76.8168 71.0763 76.91V76.5682C71.0763 76.1489 70.9301 75.8071 70.6376 75.5509C70.3451 75.2946 69.9756 75.1703 69.5292 75.1703C69.2136 75.1703 68.9211 75.2402 68.6594 75.3722C68.3977 75.512 68.1898 75.6984 68.0359 75.9469L67.3277 75.4111C67.5509 75.0693 67.8511 74.8053 68.236 74.6111C68.6209 74.417 69.0519 74.3238 69.5215 74.3238C70.2835 74.3238 70.8839 74.5257 71.3227 74.9296C71.7614 75.3334 71.9769 75.8848 71.9769 76.576V80.1641H71.084V79.3564H71.0378C70.8762 79.6282 70.6376 79.8612 70.3143 80.0553C69.991 80.2495 69.6292 80.3427 69.2213 80.3427C68.8133 80.3427 68.4438 80.265 68.1205 80.1019H68.1128ZM70.1834 79.2709C70.4528 79.1078 70.6684 78.8904 70.83 78.6186C70.9917 78.3467 71.0686 78.0438 71.0686 77.7177C70.8916 77.6012 70.6761 77.5002 70.4221 77.4303C70.168 77.3604 69.8909 77.3216 69.6061 77.3216C69.0904 77.3216 68.7055 77.4303 68.4438 77.6478C68.1821 77.8652 68.0513 78.137 68.0513 78.4788C68.0513 78.7894 68.1667 79.0379 68.4054 79.2321C68.644 79.4263 68.9365 79.5194 69.2982 79.5194C69.6138 79.5194 69.9063 79.4418 70.1757 79.2787L70.1834 79.2709ZM73.1084 74.5956H74.0013V75.4965H74.0475C74.1784 75.1625 74.4016 74.9063 74.7172 74.7199C75.0328 74.5335 75.3792 74.4403 75.7486 74.4403C75.9103 74.4403 76.0488 74.448 76.1566 74.4713V75.4344C76.0334 75.4033 75.8641 75.3878 75.6486 75.3878C75.1713 75.3878 74.7865 75.5509 74.4863 75.8615C74.1861 76.1799 74.0398 76.5915 74.0398 77.1041V80.2495H73.1007V74.5878L73.1084 74.5956ZM78.8045 80.234C78.6121 80.1563 78.4504 80.0553 78.3119 79.9311C78.1656 79.7913 78.0579 79.6204 77.9809 79.434C77.9039 79.2476 77.8731 79.0146 77.8731 78.7428V75.3645H76.8955V74.5102H77.8731V72.9103H78.8045V74.5102H80.1669V75.3645H78.8045V78.5176C78.8045 78.836 78.8661 79.069 78.9815 79.2243C79.1201 79.3874 79.3202 79.4729 79.5896 79.4729C79.8052 79.4729 80.0053 79.4107 80.2054 79.2865V80.2107C80.0977 80.265 79.9822 80.2961 79.8667 80.3194C79.7513 80.3427 79.605 80.3504 79.4357 80.3504C79.2048 80.3504 78.9969 80.3116 78.8045 80.234ZM81.2446 74.5024H82.1375V75.3334H82.1836C82.3376 75.0538 82.5839 74.8131 82.9226 74.6189C83.2613 74.4247 83.623 74.3238 84.0002 74.3238C84.6776 74.3238 85.1933 74.5179 85.5474 74.914C85.9015 75.3101 86.0785 75.846 86.0785 76.5294V80.1641H85.1394V76.677C85.1394 76.1489 85.0163 75.7683 84.7623 75.5353C84.5159 75.3023 84.1696 75.1781 83.7385 75.1781C83.4383 75.1781 83.1689 75.2635 82.9303 75.4344C82.6917 75.6052 82.5069 75.8304 82.3761 76.11C82.2452 76.3896 82.1759 76.677 82.1759 76.9799V80.1641H81.2369V74.5024H81.2446ZM88.4724 79.9544C88.049 79.6981 87.718 79.3408 87.4794 78.8826C87.2408 78.4244 87.1254 77.9118 87.1254 77.3449C87.1254 76.7779 87.2408 76.2964 87.464 75.8304C87.6873 75.3722 88.0029 75.0072 88.4185 74.7276C88.8342 74.448 89.3037 74.316 89.8502 74.316C90.3967 74.316 90.874 74.4403 91.2819 74.6888C91.6899 74.9373 91.9978 75.279 92.2133 75.714C92.4288 76.1489 92.5366 76.6537 92.5366 77.2129C92.5366 77.3216 92.5289 77.4225 92.5058 77.5002H88.0721C88.0952 77.9274 88.1953 78.2924 88.38 78.5875C88.5648 78.8826 88.7957 79.1078 89.0805 79.2554C89.3653 79.403 89.6578 79.4806 89.9657 79.4806C90.6815 79.4806 91.2357 79.1389 91.6283 78.4555L92.4211 78.8438C92.1748 79.302 91.8515 79.667 91.4359 79.9311C91.0202 80.1951 90.5199 80.3271 89.9349 80.3271C89.3961 80.3271 88.9188 80.1951 88.4955 79.9388L88.4724 79.9544ZM91.5359 76.7313C91.5205 76.4984 91.4513 76.2576 91.3358 76.0168C91.2204 75.7838 91.0356 75.5819 90.7816 75.4188C90.5276 75.2557 90.212 75.1781 89.8271 75.1781C89.3884 75.1781 89.0112 75.3179 88.711 75.6052C88.4031 75.8926 88.203 76.2654 88.1106 76.7313H91.5359ZM93.6065 74.5024H94.4994V75.4111H94.5456C94.6534 75.1004 94.8689 74.8441 95.1845 74.6344C95.5001 74.4247 95.8311 74.3238 96.1775 74.3238C96.4315 74.3238 96.6547 74.3626 96.8394 74.448V75.4577C96.6008 75.3412 96.3391 75.279 96.0466 75.279C95.7772 75.279 95.5232 75.3567 95.3 75.512C95.069 75.6674 94.892 75.877 94.7534 76.1411C94.6149 76.4052 94.5533 76.6847 94.5533 76.9954V80.1641H93.6142V74.5024H93.6065Z" fill="#5F6368" stroke="#5F6368" stroke-width="0.25" stroke-miterlimit="10"/>
<path d="M75.1729 46.3341C75.1729 45.1458 74.9881 44.0042 74.7957 42.9014H59.3086V49.3785H67.9989C67.6141 51.4754 66.6288 53.2539 64.8661 54.4499V58.6748H70.2466C73.3794 55.7546 75.1806 51.4366 75.1806 46.3341H75.1729Z" fill="#4284F4"/>
<path d="M59.2531 62.721C63.7253 62.721 67.4893 61.2376 70.2372 58.6747L64.8568 54.4499C63.3789 55.4595 61.4776 56.0497 59.2531 56.0497C54.9426 56.0497 51.2786 53.1063 49.9701 49.1377H44.4434V53.4791C47.1682 58.9621 52.7719 62.721 59.2531 62.721Z" fill="#34A853"/>
<path d="M49.9789 49.1452C49.6479 48.1356 49.4631 47.0638 49.4631 45.9533C49.4631 44.8427 49.6479 43.7709 49.9789 42.7613V38.4199H44.4521C43.3283 40.6877 42.6895 43.2428 42.6895 45.9533C42.6895 48.6637 43.3283 51.2188 44.4521 53.4866L49.9789 49.1452Z" fill="#FBBC04"/>
<path d="M59.2531 35.8495C61.6855 35.8495 63.8715 36.696 65.5957 38.358L70.345 33.5507C67.4739 30.8402 63.7253 29.1782 59.2531 29.1782C52.7796 29.1782 47.1682 32.9371 44.4434 38.4201L49.9701 42.7615C51.2786 38.7929 54.9349 35.8495 59.2531 35.8495Z" fill="#EA4335"/>
</svg>
