<svg width="63" height="63" viewBox="0 0 63 63" fill="none" xmlns="http://www.w3.org/2000/svg">
<path d="M52.3962 22.0864C44.1656 7.48865 20.0275 4.29269 20.0275 4.29269C20.0275 4.29269 31.1667 16.456 16.9321 26.0739C7.93117 32.145 4.37207 40.0336 8.22732 48.6484C11.18 55.2483 17.4274 57.9366 24.1596 58.9379C20.9424 52.8668 23.4315 45.4524 23.7083 44.6592C29.9997 54.1783 41.8881 44.6592 35.9157 34.3133C43.739 36.0091 44.906 49.5844 38.9019 58.0565C47.7706 55.2695 53.676 48.2623 55.296 42.015C57.0041 35.482 55.7032 27.9231 52.3979 22.0847L52.3962 22.0864Z" fill="#A09DFF"/>
</svg>
