<svg width="46" height="47" viewBox="0 0 46 47" fill="none" xmlns="http://www.w3.org/2000/svg">
<path d="M11.9253 4.15131H13.6638V5.86893H15.2541V4.15131H16.9926V9.35269H15.2542V7.61096H13.6639V9.35269H11.9254L11.9253 4.15131Z" fill="#59597F"/>
<path d="M19.2792 5.87616H17.7487V4.15131H22.549V5.87616H21.0177V9.35269H19.2792L19.2792 5.87616Z" fill="#59597F"/>
<path d="M23.3108 4.15131H25.1236L26.2387 5.97892L27.3526 4.15131H29.166V9.35269H27.4347V6.77459L26.2387 8.62398H26.2088L25.0118 6.77459V9.35269H23.3108V4.15131Z" fill="#59597F"/>
<path d="M30.0312 4.15131H31.7703V7.63341H34.2151V9.35269H30.0312V4.15131Z" fill="#59597F"/>
<path fill-rule="evenodd" clip-rule="evenodd" d="M11.8697 39.6244L8.58167 11.7314H37.51L34.2197 39.6201L23.0293 42.7224L11.8697 39.6244ZM18.5193 24.3572L18.2066 20.854H31.2973L31.6036 17.433H14.4679L15.3906 27.7781H27.2466L26.8496 32.2148L23.0341 33.2446L23.0314 33.2457L19.2215 32.217L18.9779 29.4886H15.5438L16.0231 34.8601L23.0307 36.8054L30.0473 34.8599L30.9026 25.2758L30.986 24.3572H18.5193Z" fill="#59597F"/>
</svg>
