<svg width="25" height="25" viewBox="0 0 25 25" fill="none" xmlns="http://www.w3.org/2000/svg">
<path d="M15.4079 6.42151C14.6687 6.38751 14.4463 6.38151 12.5743 6.38151C10.7022 6.38151 10.4808 6.38851 9.74161 6.42151C7.8395 6.50851 6.95405 7.40751 6.8669 9.29151C6.83385 10.0295 6.82584 10.2505 6.82584 12.1195C6.82584 13.9885 6.83385 14.2095 6.8669 14.9485C6.95405 16.8275 7.83549 17.7315 9.74161 17.8185C10.4798 17.8515 10.7022 17.8595 12.5743 17.8595C14.4473 17.8595 14.6687 17.8525 15.4079 17.8185C17.31 17.7325 18.1945 16.8305 18.2826 14.9485C18.3157 14.2105 18.3227 13.9885 18.3227 12.1195C18.3227 10.2505 18.3157 10.0295 18.2826 9.29151C18.1945 7.40851 17.308 6.50851 15.4079 6.42151ZM12.5743 15.7145C10.586 15.7145 8.97335 14.1055 8.97335 12.1195C8.97335 10.1345 10.586 8.52551 12.5743 8.52551C14.5625 8.52551 16.1752 10.1345 16.1752 12.1195C16.1752 14.1045 14.5625 15.7145 12.5743 15.7145ZM16.3174 9.22351C15.8526 9.22351 15.476 8.84751 15.476 8.38351C15.476 7.91951 15.8526 7.54351 16.3174 7.54351C16.7821 7.54351 17.1588 7.91951 17.1588 8.38351C17.1588 8.84651 16.7821 9.22351 16.3174 9.22351ZM14.9111 12.1195C14.9111 13.4085 13.8644 14.4525 12.5743 14.4525C11.2841 14.4525 10.2374 13.4085 10.2374 12.1195C10.2374 10.8305 11.2841 9.78651 12.5743 9.78651C13.8644 9.78651 14.9111 10.8305 14.9111 12.1195ZM12.5743 0.119507C5.93638 0.119507 0.554565 5.49251 0.554565 12.1195C0.554565 18.7465 5.93638 24.1195 12.5743 24.1195C19.2121 24.1195 24.5939 18.7465 24.5939 12.1195C24.5939 5.49251 19.2121 0.119507 12.5743 0.119507ZM19.5437 15.0055C19.4285 17.5505 18.0092 18.9605 15.466 19.0775C14.7178 19.1115 14.4784 19.1195 12.5743 19.1195C10.6701 19.1195 10.4317 19.1115 9.68352 19.0775C7.13534 18.9605 5.72203 17.5485 5.60484 15.0055C5.57078 14.2595 5.56277 14.0205 5.56277 12.1195C5.56277 10.2185 5.57078 9.98051 5.60484 9.23351C5.72203 6.68951 7.13635 5.27851 9.68352 5.16251C10.4317 5.12751 10.6701 5.11951 12.5743 5.11951C14.4784 5.11951 14.7178 5.12751 15.466 5.16251C18.0152 5.27951 19.4295 6.69451 19.5437 9.23351C19.5777 9.98051 19.5857 10.2185 19.5857 12.1195C19.5857 14.0205 19.5777 14.2595 19.5437 15.0055Z" fill="#807DF0"/>
</svg>
