<svg width="47" height="46" viewBox="0 0 47 46" fill="none" xmlns="http://www.w3.org/2000/svg">
<path d="M28.3316 23.2894C28.3316 24.2522 28.0461 25.1934 27.5112 25.9939C26.9763 26.7945 26.216 27.4184 25.3265 27.7869C24.437 28.1553 23.4582 28.2517 22.5139 28.0639C21.5696 27.8761 20.7022 27.4124 20.0214 26.7316C19.3406 26.0508 18.8769 25.1834 18.6891 24.2391C18.5013 23.2948 18.5977 22.316 18.9661 21.4265C19.3346 20.537 19.9585 19.7768 20.7591 19.2418C21.5596 18.7069 22.5008 18.4214 23.4636 18.4214C24.7542 18.4229 25.9915 18.9363 26.9041 19.8489C27.8167 20.7615 28.3301 21.9988 28.3316 23.2894ZM38.676 16.5959V29.9829C38.6735 32.2415 37.7751 34.4069 36.1781 36.0039C34.581 37.601 32.4156 38.4993 30.1571 38.5019H16.7701C14.5115 38.4993 12.3461 37.601 10.7491 36.0039C9.15201 34.4069 8.25366 32.2415 8.2511 29.9829V16.5959C8.25366 14.3374 9.15201 12.172 10.7491 10.5749C12.3461 8.97788 14.5115 8.07952 16.7701 8.07697H30.1571C32.4156 8.07952 34.581 8.97788 36.1781 10.5749C37.7751 12.172 38.6735 14.3374 38.676 16.5959V16.5959ZM30.7656 23.2894C30.7656 21.8452 30.3373 20.4335 29.5349 19.2327C28.7326 18.0319 27.5922 17.096 26.2579 16.5433C24.9237 15.9906 23.4555 15.846 22.039 16.1278C20.6226 16.4095 19.3215 17.105 18.3003 18.1262C17.2791 19.1474 16.5836 20.4484 16.3019 21.8649C16.0201 23.2813 16.1647 24.7495 16.7174 26.0838C17.2701 27.418 18.206 28.5585 19.4068 29.3608C20.6076 30.1632 22.0194 30.5914 23.4636 30.5914C25.3995 30.5892 27.2555 29.8192 28.6244 28.4503C29.9933 27.0814 30.7634 25.2254 30.7656 23.2894V23.2894ZM33.1995 15.379C33.1995 15.0179 33.0925 14.665 32.8919 14.3648C32.6913 14.0646 32.4062 13.8306 32.0726 13.6924C31.7391 13.5542 31.372 13.5181 31.0179 13.5885C30.6638 13.659 30.3385 13.8328 30.0832 14.0881C29.8279 14.3434 29.6541 14.6687 29.5836 15.0228C29.5132 15.3769 29.5493 15.744 29.6875 16.0775C29.8257 16.4111 30.0597 16.6962 30.3599 16.8968C30.6601 17.0974 31.013 17.2044 31.3741 17.2044C31.8582 17.2044 32.3225 17.0121 32.6649 16.6698C33.0072 16.3274 33.1995 15.8631 33.1995 15.379Z" fill="#59597F"/>
</svg>
