<svg width="27" height="28" viewBox="0 0 27 28" fill="none" xmlns="http://www.w3.org/2000/svg">
<path fill-rule="evenodd" clip-rule="evenodd" d="M9.32342 17.2785C9.78584 17.2785 10.1597 17.6532 10.1597 18.1148C10.1597 18.5764 9.78542 18.9507 9.32342 18.9507C8.86183 18.9507 8.48753 18.5764 8.48753 18.1148C8.48753 17.6532 8.86225 17.2785 9.32342 17.2785ZM6.87242 14.8837C6.34328 11.2125 8.89079 7.80812 12.562 7.27898C16.2333 6.74984 19.6381 9.29735 20.1672 12.9686C20.6964 16.6399 18.1489 20.0447 14.4776 20.5738C14.4365 20.5801 14.397 20.5801 14.3563 20.5847L14.4805 20.5675C14.0215 20.6334 13.5968 20.3149 13.5301 19.8562C13.4642 19.3976 13.7827 18.9717 14.2414 18.905L14.2401 18.902C14.2414 18.902 14.2422 18.902 14.2435 18.902C16.9962 18.5055 18.905 15.9529 18.5085 13.2002C18.1119 10.4471 15.5598 8.53826 12.8067 8.9348C10.0552 9.33134 8.1447 11.8839 8.54166 14.6366C8.54166 14.6379 8.54166 14.6387 8.5425 14.6387L8.53957 14.6399C8.60545 15.0986 8.28695 15.5237 7.82831 15.59C7.36967 15.6558 6.94375 15.3378 6.87703 14.8791L6.8955 15.0042C6.88962 14.9631 6.87829 14.9245 6.87242 14.8837ZM20.2348 5.94837C20.2348 5.25264 20.7996 4.68783 21.4962 4.68783C22.1852 4.68783 22.7437 5.24089 22.7546 5.92906V5.96851C22.7437 6.65668 22.1852 7.20974 21.4962 7.20974C20.7996 7.20974 20.2348 6.64493 20.2348 5.94837ZM24.713 25.0474C23.2535 26.5219 21.2284 27.3469 17.7267 27.3469H9.32342C5.82169 27.3469 3.79702 26.5219 2.33843 25.0474C0.898291 23.593 0.0976562 21.5628 0.0976562 18.1211V9.71781C0.0976562 6.27483 0.898291 4.24597 2.33843 2.79157C3.79702 1.3166 5.82169 0.491211 9.32342 0.491211H17.7263C21.2284 0.491211 23.2531 1.3166 24.7125 2.79157C24.8061 2.88514 24.8917 2.98795 24.9782 3.0895C25.1552 3.24308 25.2698 3.46799 25.2698 3.72102C25.2698 4.1847 24.8942 4.56026 24.4306 4.56026C24.1771 4.56026 23.9522 4.44529 23.7986 4.26737L23.7877 4.27618C23.7013 4.17337 23.6203 4.06679 23.5246 3.9707C22.2481 2.67995 20.3636 2.17347 17.2987 2.17347H9.74765C6.68359 2.17347 4.80285 2.67995 3.52637 3.9707C2.26625 5.2434 1.77614 7.13295 1.77614 10.1446V17.6965C1.77614 20.7093 2.26625 22.5938 3.52637 23.8661C4.80285 25.1565 6.68359 25.6684 9.74765 25.6684H17.2995C20.3645 25.6684 22.249 25.1565 23.5254 23.8661C24.7856 22.5938 25.2706 20.7093 25.2706 17.6965V10.145C25.2706 9.41149 25.2404 8.74639 25.1792 8.1392L25.1829 8.13836C25.1376 7.67552 25.4729 7.26178 25.9366 7.21268C26.4011 7.16484 26.8178 7.50222 26.8652 7.9659C26.8665 7.97807 26.8652 7.9894 26.8652 8.00157H26.8673C26.9181 8.53616 26.9533 9.09635 26.9533 9.71781V18.1207C26.9533 21.5628 26.1518 23.593 24.713 25.0474Z" fill="#FF78E1"/>
</svg>
