<svg width="47" height="46" viewBox="0 0 47 46" fill="none" xmlns="http://www.w3.org/2000/svg">
<path d="M7.55212 7.52875V38.6854H38.7088V7.52875H7.55212ZM24.508 31.8276C24.508 34.8598 22.7276 36.2441 20.1338 36.2441C17.7904 36.2441 16.434 35.0345 15.7385 33.5668L18.1242 32.1269C18.5838 32.9403 19.0011 33.6291 20.0092 33.6291C20.9684 33.6291 21.5804 33.253 21.5804 31.7864V21.8341H24.508V31.8276ZM31.4337 36.2441C28.7142 36.2441 26.9549 34.9511 26.0992 33.253L28.4849 31.8766C29.1114 32.8992 29.9315 33.6569 31.3714 33.6569C32.5809 33.6569 33.361 33.0516 33.361 32.2104C33.361 31.2089 32.5676 30.854 31.2256 30.2631L30.4957 29.9504C28.3815 29.0535 26.9839 27.9197 26.9839 25.534C26.9839 23.3363 28.6596 21.6672 31.2679 21.6672C33.1317 21.6672 34.467 22.3137 35.4273 24.0106L33.1462 25.4716C32.6455 24.5748 32.1025 24.2198 31.2612 24.2198C30.4066 24.2198 29.8636 24.7628 29.8636 25.4716C29.8636 26.3485 30.4066 26.7023 31.6651 27.252L32.3951 27.5647C34.8854 28.6285 36.283 29.7212 36.283 32.1681C36.283 34.7975 34.21 36.2429 31.4348 36.2429L31.4337 36.2441Z" fill="#59597F"/>
</svg>
