<svg width="46" height="46" viewBox="0 0 46 46" fill="none" xmlns="http://www.w3.org/2000/svg">
<path d="M32.9285 33.3856H28.6313V26.6546C28.6313 25.0498 28.6023 22.9834 26.3957 22.9834C24.1577 22.9834 23.8145 24.7332 23.8145 26.5362V33.3856H19.5173V19.5441H23.6429V21.4366H23.7009C24.542 20.0009 26.1081 19.1405 27.7709 19.2009C32.1261 19.2009 32.931 22.0649 32.931 25.7942L32.9285 33.3832V33.3856ZM14.669 17.6517C14.0089 17.6485 13.3767 17.3851 12.9097 16.9185C12.4427 16.452 12.1786 15.82 12.1748 15.1599C12.1748 13.792 13.3011 12.6657 14.669 12.6657C16.037 12.6657 17.1608 13.792 17.1632 15.1599C17.1632 16.5279 16.037 17.6541 14.669 17.6541V17.6517ZM16.8176 33.3856H12.5156V19.5441H16.8176V33.3856V33.3856ZM35.0675 8.67301H10.3549C9.79453 8.66975 9.25553 8.88777 8.85502 9.27969C8.45451 9.6716 8.22485 10.2057 8.21594 10.766V35.5826C8.22485 36.1428 8.45451 36.677 8.85502 37.0689C9.25553 37.4608 9.79453 37.6788 10.3549 37.6756H35.0699C35.6315 37.6801 36.1723 37.4628 36.5746 37.0709C36.9769 36.679 37.2083 36.1441 37.2185 35.5826V10.7636C37.2083 10.2025 36.9768 9.66811 36.5743 9.27696C36.1719 8.88581 35.6311 8.66959 35.0699 8.67543L35.0675 8.67301Z" fill="#59597F"/>
</svg>
