<svg width="29" height="28" viewBox="0 0 29 28" fill="none" xmlns="http://www.w3.org/2000/svg">
<path fill-rule="evenodd" clip-rule="evenodd" d="M26.3462 27.2662H21.8975C20.82 27.2662 19.9219 26.501 19.7168 25.4843C19.7017 25.4843 19.6877 25.4865 19.6725 25.4865V17.4338C19.6725 16.4749 18.8757 15.6989 17.8929 15.6989C16.9101 15.6989 16.1132 16.4749 16.1132 17.4338V25.0185V25.0424C16.1132 25.5851 15.9104 26.0739 15.5884 26.4611C15.4115 26.7287 15.1096 26.9051 14.765 26.9051C14.2193 26.9051 13.7774 26.4632 13.7774 25.9175C13.7774 25.629 13.903 25.3718 14.1015 25.1911C14.2453 25.0324 14.334 24.8269 14.334 24.5975V23.3253V21.4934V17.3509C14.334 15.4556 15.9272 13.9187 17.8929 13.9187C19.8584 13.9187 21.4526 15.4556 21.4526 17.3509V23.3253C21.4526 23.3891 21.4465 23.4444 21.4426 23.503C21.4456 23.5021 21.4495 23.5021 21.4526 23.5008V24.5975C21.4526 25.0885 21.8505 25.4865 22.3424 25.4865H25.9013C26.3931 25.4865 26.7911 25.0885 26.7911 24.5975V16.5888C26.7911 16.5219 26.7833 16.458 26.7694 16.3954C26.5408 12.5309 23.4552 9.46903 19.6725 9.46903C18.1023 9.46903 16.6564 10.0017 15.4815 10.8959C15.4772 10.8938 15.4724 10.8947 15.4633 10.9016C15.3438 10.9977 15.193 11.0545 15.0288 11.0545C14.6443 11.0545 14.3341 10.743 14.3341 10.3589C14.3341 10.3111 14.3312 10.2863 14.3262 10.2794C14.2852 9.82619 13.908 9.46903 13.4443 9.46903H10.7744C9.79178 9.46903 8.99455 10.2663 8.99455 11.2492V24.5975C8.99455 24.6775 9.00867 24.7544 9.02842 24.8278C9.00756 24.8917 8.99455 24.9625 8.99455 25.0424C8.99455 26.2708 7.99894 27.2662 6.76975 27.2662H6.60702H2.32093C1.09291 27.2662 0.0961914 26.2708 0.0961914 25.0424V9.91395C0.0961914 8.68565 1.09291 7.69021 2.32093 7.69021H4.54573C6.01929 7.69021 7.21455 6.49489 7.21455 5.02016C7.21455 3.54549 6.01929 2.35017 4.54573 2.35017C3.07128 2.35017 1.87607 3.54549 1.87607 5.02016C1.87607 5.51201 1.4781 5.90999 0.986022 5.90999C0.49528 5.90999 0.0961914 5.51201 0.0961914 5.02016C0.0961914 2.56262 2.08852 0.571289 4.54573 0.571289C7.00316 0.571289 8.99444 2.56262 8.99444 5.02016C8.99444 5.24568 8.97247 5.46508 8.93971 5.68192C8.93254 5.72363 8.92865 5.76662 8.92058 5.80833C8.88171 6.02472 8.82893 6.23762 8.75897 6.44183C8.75613 6.45184 8.75113 6.46096 8.74812 6.47092C8.59451 6.91283 8.37601 7.3221 8.09966 7.68926C7.28847 8.76768 6.00044 9.46898 4.54579 9.46898H2.76585C2.274 9.46898 1.87602 9.86829 1.87602 10.3588V24.5974C1.87602 25.0884 2.274 25.4864 2.76585 25.4864H7.25949C7.23057 25.3425 7.2145 25.1948 7.2145 25.0423V11.2492C7.2145 9.2835 8.80885 7.69021 10.7742 7.69021H13.889C14.4386 7.69021 14.9383 7.8927 15.3259 8.22505C15.3306 8.22811 15.3354 8.22288 15.3406 8.22678C15.4962 8.36058 15.6978 8.44056 15.9185 8.44056C16.0402 8.44056 16.1558 8.41664 16.2605 8.37232C16.2922 8.35841 16.3113 8.36058 16.3295 8.36275C17.3627 7.93958 18.4863 7.69015 19.6724 7.69015C24.2849 7.69015 28.0771 11.2 28.5259 15.6937C28.5559 15.8384 28.5706 15.99 28.5706 16.1438V25.0424C28.5708 26.2708 27.5754 27.2662 26.3462 27.2662ZM11.6643 25.4865C12.1551 25.4865 12.5541 25.8853 12.5541 26.3763C12.5541 26.8682 12.1551 27.2662 11.6643 27.2662C11.1725 27.2662 10.7743 26.8682 10.7743 26.3763C10.7743 25.8853 11.1725 25.4865 11.6643 25.4865Z" fill="#469EC8"/>
</svg>
