<svg width="26" height="30" viewBox="0 0 26 30" fill="none" xmlns="http://www.w3.org/2000/svg">
<path fill-rule="evenodd" clip-rule="evenodd" d="M13.133 0.484404C16.4529 0.499094 19.6259 1.82118 21.9469 4.14216C24.2826 6.47784 25.59 9.63614 25.5753 12.912V12.9854C25.4872 17.4364 22.9899 21.5348 19.8757 24.7372C18.1129 26.5441 16.1591 28.1452 14.0291 29.4967C13.4562 29.9815 12.6189 29.9815 12.046 29.4967C8.8877 27.4401 6.09664 24.8547 3.83441 21.8433C1.85129 19.2285 0.720179 16.0849 0.602661 12.8091C0.632041 5.97838 6.24354 0.469717 13.133 0.484404ZM13.1331 17.0254C14.1761 17.0254 15.175 16.6287 15.9094 15.9089C16.6733 15.1597 17.1008 14.1623 17.1008 13.1178C17.1008 10.9438 15.3218 9.19568 13.1331 9.19568C10.9443 9.19568 9.18154 10.9438 9.18154 13.1178C9.18154 15.2641 10.9149 16.996 13.089 17.0254H13.1331Z" fill="#807DF0"/>
</svg>
