<svg width="264" height="63" viewBox="0 0 264 63" fill="none" xmlns="http://www.w3.org/2000/svg">
<path d="M252.655 13.2204L249.119 9.15725L256.265 0.724609H263.378L252.655 13.2204Z" fill="#807DF0"/>
<path d="M242.509 16.3105L246.045 20.3737L238.825 28.8798H231.711L242.509 16.3105Z" fill="#807DF0"/>
<path d="M29.1722 17.0976C29.1722 18.8122 28.8636 20.3887 28.2476 21.8282C27.6445 23.2678 26.807 24.5106 25.7361 25.5577C24.6642 26.5911 23.3919 27.4024 21.9183 27.9915C20.4447 28.5806 18.8438 28.8752 17.1157 28.8752H3.00964C2.63497 28.8752 2.28635 28.8096 1.96478 28.6785C1.64321 28.5473 1.36171 28.3712 1.12128 28.1481C0.893873 27.9122 0.71255 27.6382 0.578311 27.3231C0.444073 27.009 0.376953 26.6684 0.376953 26.3024V3.29834C0.376953 2.94506 0.444073 2.61136 0.578311 2.29722C0.71255 1.98309 0.892871 1.7081 1.12128 1.47324C1.36271 1.23739 1.64421 1.0544 1.96478 0.923262C2.28635 0.792129 2.63497 0.726562 3.00964 0.726562H17.1157C18.8438 0.726562 20.4447 1.02112 21.9183 1.61024C23.3919 2.19936 24.6642 3.01748 25.7361 4.06361C26.808 5.09701 27.6455 6.34082 28.2476 7.79307C28.8636 9.2326 29.1722 10.8033 29.1722 12.5041V17.0976ZM23.9479 12.5041C23.9479 11.5098 23.7806 10.5997 23.446 9.77573C23.1244 8.95174 22.6626 8.25106 22.0595 7.67564C21.4565 7.08652 20.7332 6.63538 19.8897 6.32125C19.0592 5.99439 18.1346 5.83097 17.1167 5.83097H5.60125V23.7727H17.1157C18.1336 23.7727 19.0582 23.6152 19.8887 23.302C20.7322 22.9752 21.4565 22.523 22.0585 21.9476C22.6616 21.3585 23.1234 20.6588 23.445 19.8475C23.7796 19.0226 23.9469 18.1076 23.9469 17.0996V12.506L23.9479 12.5041Z" fill="white"/>
<path d="M37.6735 28.8752H32.4492V0.726562H37.6735V28.8752Z" fill="white"/>
<path d="M69.7626 26.3034C69.7626 26.6694 69.6955 27.0099 69.5612 27.3241C69.427 27.6382 69.2397 27.9132 68.9982 28.149C68.7708 28.3712 68.4953 28.5483 68.1748 28.6794C67.8532 28.8106 67.5046 28.8761 67.1299 28.8761H48.2814C47.7995 28.8761 47.2766 28.8233 46.7136 28.7186C46.1646 28.6012 45.6146 28.424 45.0656 28.1882C44.5297 27.9523 44.0138 27.6519 43.5179 27.2849C43.022 26.9052 42.5802 26.4541 42.1915 25.9305C41.8169 25.3943 41.5153 24.7787 41.2869 24.0859C41.0595 23.3793 40.9453 22.5876 40.9453 21.7108V7.89093C40.9453 7.42022 40.9994 6.91624 41.1066 6.37899C41.2268 5.82901 41.4081 5.29274 41.6496 4.76918C41.891 4.23291 42.2056 3.72208 42.5942 3.23767C42.9829 2.75326 43.4448 2.32854 43.9807 1.96157C44.5297 1.58187 45.1598 1.28144 45.8701 1.05831C46.5803 0.83617 47.3838 0.724609 48.2814 0.724609H69.5212V5.82803H48.2814C47.5982 5.82803 47.0752 6.00516 46.7136 6.35844C46.3519 6.71172 46.1706 7.23527 46.1706 7.9291V21.7088C46.1706 22.3635 46.3509 22.8734 46.7136 23.2404C47.0882 23.5936 47.6112 23.7708 48.2814 23.7708H64.5383V17.3717H50.6326V12.2291H67.1299C67.5046 12.2291 67.8532 12.3015 68.1748 12.4454C68.4963 12.5765 68.7708 12.7595 68.9982 12.9953C69.2397 13.2312 69.427 13.5052 69.5612 13.8193C69.6955 14.1207 69.7626 14.4476 69.7626 14.8009V26.3034Z" fill="white"/>
<path d="M78.2048 28.8732H72.9805V0.724609H78.2048V28.8732Z" fill="white"/>
<path d="M109.414 5.82804H97.8994V28.8732H92.6752V5.82804H81.1406V0.724609H109.414V5.82804Z" fill="white"/>
<path d="M140.54 28.8732H135.316V21.9633H116.949V28.8732H111.725V14.7989C111.725 12.7438 112.086 10.8532 112.81 9.12594C113.533 7.3987 114.538 5.91317 115.824 4.67035C117.109 3.42752 118.63 2.4587 120.385 1.76487C122.14 1.07104 124.056 0.724609 126.132 0.724609H137.907C138.269 0.724609 138.61 0.790176 138.932 0.921309C139.254 1.05244 139.535 1.23544 139.777 1.47129C140.017 1.70713 140.205 1.98212 140.339 2.29527C140.473 2.6094 140.54 2.94311 140.54 3.29638V28.8742V28.8732ZM116.949 16.8599H135.316V5.82804H126.132C125.971 5.82804 125.629 5.85446 125.107 5.90632C124.599 5.94547 124.002 6.05703 123.319 6.24003C122.649 6.42303 121.939 6.70487 121.188 7.08456C120.439 7.46426 119.749 7.98782 119.119 8.65523C118.49 9.32263 117.967 10.1603 117.552 11.1683C117.15 12.1625 116.949 13.3731 116.949 14.7999V16.8608V16.8599Z" fill="white"/>
<path d="M170.262 28.8732H146.43C146.054 28.8732 145.706 28.8076 145.385 28.6765C145.063 28.5454 144.782 28.3692 144.54 28.1461C144.313 27.9103 144.132 27.6363 143.998 27.3211C143.864 27.007 143.797 26.6665 143.797 26.3005V0.724609H149.022V23.7698H170.262V28.8732Z" fill="white"/>
<path d="M218.785 28.875H213.519V12.1115L204.256 28.0314C204.029 28.4376 203.707 28.7448 203.291 28.9543C202.889 29.1637 202.455 29.2684 201.985 29.2684C201.515 29.2684 201.101 29.1637 200.7 28.9543C200.311 28.7448 200.002 28.4376 199.775 28.0314L190.471 12.1115V28.875H185.246V2.90477C185.246 2.31565 185.42 1.7921 185.769 1.33411C186.131 0.876122 186.6 0.56884 187.176 0.411285C187.457 0.345718 187.739 0.326146 188.02 0.352568C188.301 0.36529 188.569 0.424985 188.823 0.529696C189.091 0.621685 189.332 0.75869 189.547 0.941689C189.761 1.11197 189.942 1.32139 190.09 1.56995L201.985 21.7693L213.881 1.56995C214.19 1.07282 214.611 0.719545 215.147 0.510124C215.696 0.300702 216.266 0.268408 216.855 0.412263C217.418 0.56884 217.88 0.877101 218.242 1.33509C218.603 1.79308 218.785 2.31663 218.785 2.90575V28.876V28.875Z" fill="white"/>
<path d="M228.253 28.8732H223.027V0.724609H228.253V28.8732Z" fill="white"/>
<path d="M247.521 10.7749L251.057 14.8381L263.376 28.8732H256.282L247.521 18.9012L243.984 14.8381L231.646 0.724609H238.719L247.521 10.7749Z" fill="white"/>
<path d="M21.9177 58.5043H19.6266V55.4745H11.5743V58.5043H9.2832V52.3332C9.2832 51.4329 9.44148 50.603 9.75905 49.8456C10.0766 49.0881 10.5164 48.4374 11.0804 47.8923C11.6444 47.3472 12.3106 46.9225 13.08 46.6181C13.8493 46.3138 14.6888 46.1621 15.5994 46.1621H20.7626C20.9209 46.1621 21.0712 46.1905 21.2114 46.2482C21.3527 46.306 21.4759 46.3862 21.5811 46.489C21.6873 46.5917 21.7694 46.7131 21.8275 46.8501C21.8866 46.9881 21.9157 47.1339 21.9157 47.2895V58.5033L21.9177 58.5043ZM11.5743 53.2374H19.6266V48.4012H15.6004C15.5303 48.4012 15.3811 48.4109 15.1557 48.4315C14.9293 48.452 14.6678 48.502 14.3713 48.5822C14.0747 48.6624 13.7622 48.7858 13.4326 48.9521C13.104 49.1185 12.8015 49.3484 12.525 49.641C12.2485 49.9337 12.0211 50.2997 11.8418 50.7381C11.6624 51.1775 11.5733 51.7088 11.5733 52.3342V53.2374H11.5743Z" fill="#8785FF"/>
<path d="M33.529 55.3625C33.529 55.7471 33.4789 56.0925 33.3797 56.3998C33.2796 56.7071 33.1473 56.9762 32.983 57.2091C32.8187 57.441 32.6274 57.6397 32.41 57.8031C32.1926 57.9665 31.9652 58.0996 31.7268 58.2034C31.4884 58.3071 31.2479 58.3824 31.0045 58.4314C30.7611 58.4803 30.5297 58.5048 30.3133 58.5048H24.1112V56.2667H30.2963C30.6078 56.2667 30.8422 56.1894 31.0015 56.0338C31.1608 55.8782 31.2389 55.6551 31.2389 55.3625C31.2099 54.7655 30.9013 54.467 30.3143 54.467H26.764C26.2591 54.467 25.8303 54.3809 25.4777 54.2087C25.1251 54.0365 24.8385 53.8212 24.6192 53.5628C24.3988 53.3045 24.2405 53.0265 24.1433 52.7281C24.0461 52.4296 23.998 52.1517 23.998 51.8933C23.998 51.3942 24.0892 50.9744 24.2715 50.6329C24.4539 50.2913 24.6823 50.0144 24.9588 49.802C25.2352 49.5897 25.5348 49.436 25.8574 49.3411C26.1799 49.2462 26.4825 49.1992 26.765 49.1992H32.395V51.4373H26.783C26.6658 51.4373 26.5726 51.45 26.5055 51.4764C26.4384 51.5019 26.3883 51.5371 26.3552 51.5802C26.3232 51.6232 26.3042 51.6692 26.2981 51.7181C26.2921 51.7671 26.2891 51.814 26.2891 51.86C26.2951 51.952 26.3122 52.0235 26.3422 52.0753C26.3713 52.1272 26.4083 52.1644 26.4524 52.1869C26.4965 52.2104 26.5466 52.2231 26.6027 52.226C26.6588 52.229 26.7129 52.23 26.766 52.23H30.3163C30.9033 52.23 31.4032 52.3337 31.814 52.5402C32.2247 52.7467 32.5573 53.006 32.8097 53.3191C33.0622 53.6323 33.2455 53.9719 33.3607 54.3389C33.4749 54.7058 33.532 55.0474 33.532 55.3625H33.529Z" fill="#8785FF"/>
<path d="M44.3396 55.3625C44.3396 55.7471 44.2895 56.0925 44.1903 56.3998C44.0901 56.7071 43.9579 56.9762 43.7936 57.2091C43.6293 57.441 43.4379 57.6397 43.2206 57.8031C43.0032 57.9665 42.7758 58.0996 42.5373 58.2034C42.2989 58.3071 42.0585 58.3824 41.8151 58.4314C41.5716 58.4803 41.3402 58.5048 41.1238 58.5048H34.9218V56.2667H41.1068C41.4184 56.2667 41.6528 56.1894 41.8121 56.0338C41.9713 55.8782 42.0495 55.6551 42.0495 55.3625C42.0204 54.7655 41.7119 54.467 41.1248 54.467H37.5745C37.0696 54.467 36.6409 54.3809 36.2882 54.2087C35.9356 54.0365 35.6491 53.8212 35.4297 53.5628C35.2093 53.3045 35.051 53.0265 34.9539 52.7281C34.8567 52.4296 34.8086 52.1517 34.8086 51.8933C34.8086 51.3942 34.8998 50.9744 35.0821 50.6329C35.2644 50.2913 35.4928 50.0144 35.7693 49.802C36.0458 49.5897 36.3453 49.436 36.6679 49.3411C36.9905 49.2462 37.293 49.1992 37.5755 49.1992H43.2055V51.4373H37.5935C37.4763 51.4373 37.3832 51.45 37.3161 51.4764C37.2489 51.5019 37.1988 51.5371 37.1658 51.5802C37.1337 51.6232 37.1147 51.6692 37.1087 51.7181C37.1027 51.7671 37.0997 51.814 37.0997 51.86C37.1057 51.952 37.1227 52.0235 37.1528 52.0753C37.1818 52.1272 37.2189 52.1644 37.263 52.1869C37.307 52.2104 37.3571 52.2231 37.4132 52.226C37.4693 52.229 37.5234 52.23 37.5765 52.23H41.1268C41.7139 52.23 42.2138 52.3337 42.6245 52.5402C43.0352 52.7467 43.3678 53.006 43.6203 53.3191C43.8727 53.6323 44.056 53.9719 44.1713 54.3389C44.2855 54.7058 44.3426 55.0474 44.3426 55.3625H44.3396Z" fill="#8785FF"/>
<path d="M56.1886 52.2808C56.1886 52.5911 56.1325 52.9248 56.0213 53.2839C55.9101 53.6431 55.7288 53.9758 55.4794 54.2821C55.2299 54.5894 54.9033 54.8458 54.5016 55.0523C54.0989 55.2587 53.61 55.3625 53.035 55.3625H48.9027V53.2369H53.035C53.3466 53.2369 53.587 53.144 53.7573 52.9571C53.9276 52.7711 54.0128 52.5392 54.0128 52.2642C54.0128 51.9716 53.9176 51.7426 53.7262 51.5753C53.5349 51.4089 53.3045 51.3257 53.035 51.3257H48.9027C48.5911 51.3257 48.3507 51.4187 48.1804 51.6056C48.0101 51.7925 47.9249 52.0235 47.9249 52.2985V55.4222C47.9249 55.7206 48.0201 55.9526 48.2114 56.1189C48.4018 56.2853 48.6392 56.3685 48.9207 56.3685H53.035V58.5028H48.9027C48.5851 58.5028 48.2435 58.448 47.8758 58.3394C47.5092 58.2308 47.1676 58.0536 46.854 57.81C46.5395 57.5663 46.277 57.2473 46.0656 56.8548C45.8542 56.4614 45.748 55.9839 45.748 55.4222V52.2808C45.748 51.9706 45.8041 51.6369 45.9153 51.2778C46.0265 50.9196 46.2079 50.5869 46.4573 50.2796C46.7068 49.9723 47.0333 49.7159 47.435 49.5094C47.8378 49.303 48.3266 49.1992 48.9017 49.1992H53.034C53.3516 49.1992 53.6932 49.254 54.0608 49.3626C54.4275 49.4713 54.7681 49.6484 55.0827 49.8921C55.3972 50.1357 55.6597 50.4548 55.8711 50.8472C56.0824 51.2406 56.1886 51.7181 56.1886 52.2799V52.2808Z" fill="#8785FF"/>
<path d="M66.9392 55.3625C66.9392 55.7471 66.8891 56.0925 66.7899 56.3998C66.6897 56.7071 66.5575 56.9762 66.3932 57.2091C66.2289 57.441 66.0376 57.6397 65.8202 57.8031C65.6028 57.9665 65.3754 58.0996 65.137 58.2034C64.8985 58.3071 64.6581 58.3824 64.4147 58.4314C64.1712 58.4803 63.9398 58.5048 63.7234 58.5048H57.5214V56.2667H63.7064C64.018 56.2667 64.2524 56.1894 64.4117 56.0338C64.571 55.8782 64.6491 55.6551 64.6491 55.3625C64.62 54.7655 64.3115 54.467 63.7244 54.467H60.1741C59.6692 54.467 59.2405 54.3809 58.8878 54.2087C58.5352 54.0365 58.2487 53.8212 58.0293 53.5628C57.8089 53.3045 57.6506 53.0265 57.5535 52.7281C57.4563 52.4296 57.4082 52.1517 57.4082 51.8933C57.4082 51.3942 57.4994 50.9744 57.6817 50.6329C57.864 50.2913 58.0924 50.0144 58.3689 49.802C58.6454 49.5897 58.9449 49.436 59.2675 49.3411C59.5901 49.2462 59.8926 49.1992 60.1751 49.1992H65.8051V51.4373H60.1932C60.0759 51.4373 59.9828 51.45 59.9157 51.4764C59.8485 51.5019 59.7985 51.5371 59.7654 51.5802C59.7333 51.6232 59.7143 51.6692 59.7083 51.7181C59.7023 51.7671 59.6993 51.814 59.6993 51.86C59.7053 51.952 59.7223 52.0235 59.7524 52.0753C59.7814 52.1272 59.8185 52.1644 59.8626 52.1869C59.9066 52.2104 59.9567 52.2231 60.0128 52.226C60.0689 52.229 60.123 52.23 60.1761 52.23H63.7264C64.3135 52.23 64.8134 52.3337 65.2241 52.5402C65.6348 52.7467 65.9674 53.006 66.2199 53.3191C66.4723 53.6323 66.6557 53.9719 66.7709 54.3389C66.8851 54.7058 66.9422 55.0474 66.9422 55.3625H66.9392Z" fill="#8785FF"/>
<path d="M77.7497 55.3625C77.7497 55.7471 77.6996 56.0925 77.6004 56.3998C77.5003 56.7071 77.368 56.9762 77.2037 57.2091C77.0394 57.441 76.8481 57.6397 76.6307 57.8031C76.4133 57.9665 76.1859 58.0996 75.9475 58.2034C75.7091 58.3071 75.4687 58.3824 75.2252 58.4314C74.9818 58.4803 74.7504 58.5048 74.534 58.5048H68.332V56.2667H74.517C74.8285 56.2667 75.0629 56.1894 75.2222 56.0338C75.3815 55.8782 75.4596 55.6551 75.4596 55.3625C75.4306 54.7655 75.122 54.467 74.535 54.467H70.9847C70.4798 54.467 70.051 54.3809 69.6984 54.2087C69.3458 54.0365 69.0592 53.8212 68.8399 53.5628C68.6195 53.3045 68.4612 53.0265 68.364 52.7281C68.2668 52.4296 68.2188 52.1517 68.2188 51.8933C68.2188 51.3942 68.3099 50.9744 68.4922 50.6329C68.6746 50.2913 68.903 50.0144 69.1795 49.802C69.4559 49.5897 69.7555 49.436 70.0781 49.3411C70.4006 49.2462 70.7032 49.1992 70.9857 49.1992H76.6157V51.4373H71.0037C70.8865 51.4373 70.7933 51.45 70.7262 51.4764C70.6591 51.5019 70.609 51.5371 70.5759 51.5802C70.5439 51.6232 70.5249 51.6692 70.5188 51.7181C70.5128 51.7671 70.5098 51.814 70.5098 51.86C70.5158 51.952 70.5329 52.0235 70.5629 52.0753C70.592 52.1272 70.629 52.1644 70.6731 52.1869C70.7172 52.2104 70.7673 52.2231 70.8234 52.226C70.8795 52.229 70.9336 52.23 70.9867 52.23H74.537C75.124 52.23 75.6239 52.3337 76.0347 52.5402C76.4454 52.7467 76.778 53.006 77.0304 53.3191C77.2829 53.6323 77.4662 53.9719 77.5814 54.3389C77.6956 54.7058 77.7527 55.0474 77.7527 55.3625H77.7497Z" fill="#8785FF"/>
<path d="M89.714 55.3615C89.714 55.7461 89.6639 56.0915 89.5637 56.3988C89.4635 56.7061 89.3313 56.9752 89.167 57.2081C89.0027 57.4401 88.8114 57.6387 88.594 57.8021C88.3766 57.9656 88.1492 58.0987 87.9108 58.2024C87.6724 58.3061 87.4319 58.3815 87.1885 58.4304C86.9451 58.4793 86.7147 58.5038 86.4973 58.5038H82.3649C82.0473 58.5038 81.7007 58.449 81.3251 58.3404C80.9494 58.2317 80.6008 58.0517 80.2812 57.8021C79.9606 57.5526 79.6942 57.2287 79.4798 56.8294C79.2654 56.4311 79.1582 55.9418 79.1582 55.3625V52.3327C79.1582 51.7593 79.2654 51.2729 79.4798 50.8736C79.6942 50.4753 79.9616 50.1504 80.2812 49.9009C80.6008 49.6513 80.9494 49.4723 81.3251 49.3626C81.7007 49.254 82.0473 49.1992 82.3649 49.1992H86.4973C87.0843 49.1992 87.5842 49.303 87.9949 49.5094C88.4057 49.7159 88.7383 49.9753 88.9907 50.2884C89.2432 50.6016 89.4265 50.9411 89.5417 51.3081C89.6559 51.6751 89.713 52.0166 89.713 52.3327V55.3625L89.714 55.3615ZM87.4229 52.3493C87.4229 52.0391 87.3438 51.8101 87.1855 51.6604C87.0272 51.5107 86.7978 51.4363 86.4983 51.4363H82.3839C82.0784 51.4363 81.847 51.5126 81.6877 51.6643C81.5294 51.816 81.4503 52.0391 81.4503 52.3317V55.3615C81.4503 55.6541 81.5294 55.8782 81.6877 56.0328C81.846 56.1874 82.0784 56.2657 82.3839 56.2657H86.4983C86.8098 56.2657 87.0412 56.1884 87.1945 56.0328C87.3468 55.8782 87.4239 55.6541 87.4239 55.3615V52.3493H87.4229Z" fill="#8785FF"/>
<path d="M99.9914 51.4402H94.8373C94.5257 51.4402 94.2913 51.5165 94.132 51.6682C93.9737 51.8199 93.8946 52.043 93.8946 52.3356V58.5067H91.6035V52.3356C91.6035 51.951 91.6536 51.6066 91.7538 51.3032C91.854 50.9989 91.9872 50.7307 92.1545 50.4988C92.3218 50.2669 92.5141 50.0682 92.7315 49.9048C92.9489 49.7414 93.1763 49.6083 93.4147 49.5045C93.6532 49.4008 93.8936 49.3255 94.137 49.2765C94.3805 49.2276 94.6089 49.2031 94.8202 49.2031H99.9914V51.4412V51.4402Z" fill="#8785FF"/>
<path d="M103.824 47.2904H101.533V45.2676H103.824V47.2904ZM103.824 58.5042H101.533V49.2006H103.824V58.5042Z" fill="#8785FF"/>
<path d="M115.851 55.4241C115.851 55.7343 115.795 56.068 115.683 56.4272C115.572 56.7863 115.391 57.1191 115.141 57.4254C114.892 57.7326 114.565 57.989 114.164 58.1955C113.761 58.402 113.272 58.5057 112.697 58.5057H108.565C108.247 58.5057 107.906 58.4509 107.538 58.3423C107.171 58.2337 106.83 58.0566 106.516 57.8129C106.202 57.5692 105.939 57.2502 105.728 56.8578C105.516 56.4644 105.41 55.9868 105.41 55.4251C105.41 55.1149 105.466 54.7792 105.577 54.4181C105.689 54.057 105.87 53.7223 106.119 53.415C106.369 53.1078 106.695 52.8514 107.097 52.6449C107.5 52.4384 107.989 52.3347 108.564 52.3347H112.696V54.469H108.564C108.252 54.469 108.012 54.562 107.841 54.7489C107.671 54.9358 107.586 55.1667 107.586 55.4417C107.586 55.7343 107.684 55.9623 107.882 56.1258C108.078 56.2892 108.311 56.3714 108.582 56.3714H112.696C113.008 56.3714 113.248 56.2794 113.418 56.0964C113.589 55.9124 113.674 55.6834 113.674 55.4075V52.2838C113.674 51.9912 113.582 51.7583 113.396 51.587C113.211 51.4148 112.978 51.3287 112.696 51.3287H107.665V49.2031H112.696C113.014 49.2031 113.355 49.2579 113.723 49.3666C114.09 49.4752 114.43 49.6523 114.745 49.896C115.059 50.1396 115.322 50.4587 115.533 50.8511C115.745 51.2445 115.851 51.7221 115.851 52.2838V55.4251V55.4241Z" fill="#8785FF"/>
<path d="M134.124 55.3629C134.124 55.7475 134.074 56.0929 133.974 56.4002C133.874 56.7075 133.741 56.9766 133.577 57.2095C133.413 57.4414 133.222 57.6401 133.004 57.8035C132.787 57.9669 132.559 58.1 132.321 58.2038C132.083 58.3075 131.842 58.3828 131.599 58.4318C131.355 58.4807 131.124 58.5052 130.907 58.5052H126.775C126.381 58.5052 126.029 58.4562 125.718 58.3584C125.407 58.2605 125.132 58.1304 124.895 57.9669C124.657 57.8035 124.454 57.6156 124.287 57.4033C124.119 57.1909 123.983 56.9688 123.877 56.7359C123.771 56.5029 123.694 56.2681 123.643 56.0303C123.593 55.7925 123.568 55.5694 123.568 55.3629V52.3331C123.568 51.7596 123.676 51.2733 123.89 50.874C124.104 50.4757 124.372 50.1508 124.691 49.9013C125.011 49.6517 125.36 49.4726 125.735 49.363C126.111 49.2544 126.458 49.1996 126.775 49.1996H130.907V51.4377H126.793C126.488 51.4377 126.256 51.514 126.097 51.6657C125.939 51.8174 125.859 52.0405 125.859 52.3331V55.3453C125.859 55.6496 125.938 55.8786 126.093 56.0342C126.248 56.1888 126.477 56.2671 126.776 56.2671H130.908C131.22 56.2671 131.451 56.1898 131.605 56.0342C131.757 55.8796 131.834 55.6555 131.834 55.3629V45.2676H134.125V55.3629H134.124Z" fill="#8785FF"/>
<path d="M146.554 52.2808C146.554 52.5911 146.498 52.9248 146.387 53.2839C146.275 53.6431 146.094 53.9758 145.845 54.2821C145.595 54.5894 145.269 54.8458 144.867 55.0523C144.464 55.2587 143.975 55.3625 143.4 55.3625H139.268V53.2369H143.4C143.712 53.2369 143.952 53.144 144.123 52.9571C144.293 52.7711 144.378 52.5392 144.378 52.2642C144.378 51.9716 144.283 51.7426 144.091 51.5753C143.9 51.4089 143.67 51.3257 143.4 51.3257H139.268C138.956 51.3257 138.716 51.4187 138.546 51.6056C138.375 51.7925 138.29 52.0235 138.29 52.2985V55.4222C138.29 55.7206 138.385 55.9526 138.577 56.1189C138.767 56.2853 139.003 56.3685 139.286 56.3685H143.4V58.5028H139.268C138.95 58.5028 138.609 58.448 138.241 58.3394C137.873 58.2308 137.533 58.0536 137.219 57.81C136.905 57.5663 136.642 57.2473 136.431 56.8548C136.219 56.4614 136.113 55.9839 136.113 55.4222V52.2808C136.113 51.9706 136.169 51.6369 136.281 51.2778C136.392 50.9196 136.573 50.5869 136.823 50.2796C137.072 49.9723 137.399 49.7159 137.8 49.5094C138.202 49.303 138.692 49.1992 139.267 49.1992H143.399C143.717 49.1992 144.058 49.254 144.426 49.3626C144.793 49.4713 145.133 49.6484 145.448 49.8921C145.762 50.1357 146.025 50.4548 146.236 50.8472C146.448 51.2406 146.554 51.7181 146.554 52.2799V52.2808Z" fill="#8785FF"/>
<path d="M168.925 58.5059H166.617V51.1565L162.556 58.1359C162.455 58.3141 162.316 58.4491 162.137 58.5401C161.957 58.6321 161.765 58.6781 161.56 58.6781C161.354 58.6781 161.173 58.6321 161.001 58.5401C160.827 58.4481 160.691 58.3131 160.591 58.1359L156.512 51.1565V58.5059H154.221V47.1198C154.221 46.8614 154.299 46.6324 154.454 46.4309C154.609 46.2302 154.814 46.0952 155.066 46.0267C155.189 45.9983 155.313 45.9875 155.436 45.9964C155.559 46.0052 155.678 46.0306 155.793 46.0737C155.907 46.1167 156.011 46.1774 156.105 46.2547C156.199 46.332 156.278 46.426 156.342 46.5346L161.558 55.39L166.773 46.5346C166.908 46.3164 167.095 46.1617 167.332 46.0697C167.57 45.9778 167.818 45.9641 168.076 46.0267C168.323 46.0952 168.526 46.2302 168.684 46.4309C168.843 46.6315 168.922 46.8614 168.922 47.1198V58.5059H168.925Z" fill="#8785FF"/>
<path d="M181.116 55.4241C181.116 55.7343 181.06 56.068 180.949 56.4272C180.837 56.7863 180.657 57.1191 180.407 57.4254C180.158 57.7326 179.831 57.989 179.429 58.1955C179.027 58.402 178.538 58.5057 177.963 58.5057H173.83C173.513 58.5057 173.171 58.4509 172.804 58.3423C172.436 58.2337 172.095 58.0566 171.782 57.8129C171.467 57.5692 171.205 57.2502 170.993 56.8578C170.782 56.4644 170.676 55.9868 170.676 55.4251C170.676 55.1149 170.732 54.7792 170.843 54.4181C170.954 54.057 171.136 53.7223 171.385 53.415C171.634 53.1078 171.961 52.8514 172.363 52.6449C172.766 52.4384 173.254 52.3347 173.829 52.3347H177.962V54.469H173.829C173.518 54.469 173.277 54.562 173.107 54.7489C172.937 54.9358 172.852 55.1667 172.852 55.4417C172.852 55.7343 172.95 55.9623 173.147 56.1258C173.344 56.2892 173.577 56.3714 173.847 56.3714H177.962C178.273 56.3714 178.514 56.2794 178.684 56.0964C178.854 55.9124 178.939 55.6834 178.939 55.4075V52.2838C178.939 51.9912 178.847 51.7583 178.662 51.587C178.477 51.4148 178.243 51.3287 177.962 51.3287H172.931V49.2031H177.962C178.279 49.2031 178.621 49.2579 178.989 49.3666C179.355 49.4752 179.696 49.6523 180.01 49.896C180.325 50.1396 180.587 50.4587 180.799 50.8511C181.01 51.2445 181.116 51.7221 181.116 52.2838V55.4251V55.4241Z" fill="#8785FF"/>
<path d="M191.407 51.4402H186.253C185.942 51.4402 185.707 51.5165 185.548 51.6682C185.39 51.8199 185.311 52.043 185.311 52.3356V58.5067H183.02V52.3356C183.02 51.951 183.07 51.6066 183.17 51.3032C183.27 50.9989 183.403 50.7307 183.571 50.4988C183.738 50.2669 183.93 50.0682 184.148 49.9048C184.365 49.7414 184.592 49.6083 184.831 49.5045C185.068 49.4008 185.31 49.3255 185.553 49.2765C185.796 49.2276 186.025 49.2031 186.236 49.2031H191.407V51.4412V51.4402Z" fill="#8785FF"/>
<path d="M195.24 58.5042H192.949V45.2676H195.24V58.5042ZM204.103 58.5042H200.799L196.183 54.1494C195.925 53.9204 195.804 53.6327 195.821 53.2892C195.833 53.1287 195.875 52.978 195.949 52.8371C196.022 52.6962 196.123 52.5778 196.252 52.4799L200.437 49.184H204.101L198.709 53.4272L204.101 58.5052L204.103 58.5042Z" fill="#8785FF"/>
<path d="M215.323 52.2808C215.323 52.5911 215.267 52.9248 215.156 53.2839C215.045 53.6431 214.864 53.9758 214.614 54.2821C214.365 54.5894 214.038 54.8458 213.636 55.0523C213.234 55.2587 212.745 55.3625 212.17 55.3625H208.037V53.2369H212.17C212.481 53.2369 212.722 53.144 212.892 52.9571C213.062 52.7711 213.148 52.5392 213.148 52.2642C213.148 51.9716 213.052 51.7426 212.861 51.5753C212.67 51.4089 212.439 51.3257 212.17 51.3257H208.037C207.726 51.3257 207.485 51.4187 207.315 51.6056C207.145 51.7925 207.06 52.0235 207.06 52.2985V55.4222C207.06 55.7206 207.155 55.9526 207.346 56.1189C207.537 56.2853 207.773 56.3685 208.055 56.3685H212.17V58.5028H208.037C207.72 58.5028 207.378 58.448 207.011 58.3394C206.643 58.2308 206.302 58.0536 205.989 57.81C205.674 57.5663 205.412 57.2473 205.2 56.8548C204.989 56.4614 204.883 55.9839 204.883 55.4222V52.2808C204.883 51.9706 204.939 51.6369 205.05 51.2778C205.161 50.9196 205.343 50.5869 205.592 50.2796C205.842 49.9723 206.168 49.7159 206.57 49.5094C206.972 49.303 207.461 49.1992 208.036 49.1992H212.169C212.486 49.1992 212.828 49.254 213.196 49.3626C213.562 49.4713 213.903 49.6484 214.217 49.8921C214.532 50.1357 214.794 50.4548 215.006 50.8472C215.217 51.2406 215.323 51.7181 215.323 52.2799V52.2808Z" fill="#8785FF"/>
<path d="M225.527 51.4378H221.527V58.5033H219.21V51.4378H216.232V49.1997H219.21V46.1621H221.527V49.1997H225.527V51.4378Z" fill="#8785FF"/>
<path d="M229.359 47.2904H227.068V45.2676H229.359V47.2904ZM229.359 58.5042H227.068V49.2006H229.359V58.5042Z" fill="#8785FF"/>
<path d="M242.109 58.5028H239.818V53.3387C239.818 53.0461 239.767 52.7838 239.664 52.5509C239.561 52.319 239.422 52.1194 239.245 51.953C239.069 51.7867 238.862 51.6594 238.624 51.5704C238.387 51.4813 238.129 51.4373 237.854 51.4373H233.846V58.5028H231.555V50.3099C231.555 50.1553 231.584 50.0105 231.643 49.8754C231.702 49.7404 231.784 49.623 231.889 49.5222C231.994 49.4214 232.119 49.3431 232.259 49.2853C232.399 49.2276 232.549 49.1992 232.709 49.1992H237.872C238.159 49.1992 238.464 49.2305 238.784 49.2941C239.104 49.3578 239.421 49.4595 239.735 49.5995C240.05 49.7404 240.349 49.9175 240.634 50.1328C240.918 50.3481 241.171 50.6094 241.391 50.9157C241.612 51.223 241.786 51.5772 241.915 51.9785C242.044 52.3797 242.108 52.8338 242.108 53.3377V58.5018L242.109 58.5028Z" fill="#8785FF"/>
<path d="M254.476 59.3992C254.476 59.7838 254.426 60.1293 254.325 60.4365C254.225 60.7438 254.093 61.0129 253.929 61.2458C253.764 61.4788 253.573 61.6764 253.356 61.8399C253.138 62.0033 252.911 62.1364 252.673 62.2401C252.434 62.3429 252.194 62.4192 251.95 62.4681C251.707 62.5171 251.475 62.5415 251.259 62.5415H247.127V60.3035H251.259C251.571 60.3035 251.802 60.2261 251.955 60.0715C252.108 59.9169 252.185 59.6928 252.185 59.4002V52.3347C252.185 52.0421 252.109 51.8199 251.955 51.6673C251.802 51.5156 251.571 51.4392 251.259 51.4392H247.127C246.845 51.4392 246.622 51.5244 246.457 51.6927C246.293 51.862 246.211 52.0753 246.211 52.3337V55.3634C246.211 55.6561 246.29 55.8802 246.448 56.0348C246.607 56.1894 246.839 56.2677 247.145 56.2677H251.259V58.5058H247.127C246.909 58.5058 246.68 58.4813 246.439 58.4324C246.199 58.3834 245.96 58.3071 245.721 58.2043C245.483 58.1006 245.255 57.9675 245.038 57.8041C244.821 57.6407 244.629 57.443 244.465 57.2101C244.301 56.9772 244.168 56.7081 244.068 56.4008C243.968 56.0935 243.918 55.748 243.918 55.3634V52.3337C243.918 52.1213 243.943 51.8972 243.993 51.6624C244.043 51.4275 244.121 51.1936 244.227 50.9607C244.333 50.7288 244.469 50.5057 244.636 50.2933C244.804 50.0809 245.006 49.895 245.244 49.7335C245.482 49.573 245.756 49.4439 246.068 49.346C246.379 49.2481 246.731 49.1992 247.125 49.1992H251.257C251.474 49.1992 251.705 49.2237 251.948 49.2726C252.192 49.3215 252.433 49.3979 252.671 49.5006C252.908 49.6044 253.136 49.7374 253.354 49.9009C253.571 50.0643 253.761 50.262 253.927 50.4949C254.091 50.7278 254.223 50.9959 254.323 51.2993C254.424 51.6037 254.474 51.9481 254.474 52.3317V59.3973L254.476 59.3992Z" fill="#8785FF"/>
</svg>
