<svg width="257" height="64" viewBox="0 0 257 64" fill="none" xmlns="http://www.w3.org/2000/svg">
<path d="M19.416 59.168H17.0638V55.9835H8.79504V59.168H6.44287V52.6814C6.44287 51.7345 6.60571 50.863 6.9314 50.0669C7.25708 49.2708 7.70942 48.5863 8.28842 48.0133C8.86741 47.4403 9.55195 46.994 10.342 46.6744C11.1321 46.3547 11.9946 46.1949 12.9294 46.1949H18.2308C18.3937 46.1949 18.5475 46.225 18.6922 46.2854C18.837 46.3457 18.9636 46.4301 19.0722 46.5387C19.1808 46.6472 19.2652 46.7739 19.3255 46.9186C19.3858 47.0634 19.416 47.2172 19.416 47.38V59.168ZM8.79504 53.6313H17.0638V48.5471H12.9294C12.857 48.5471 12.7033 48.5591 12.468 48.5832C12.2388 48.6013 11.9705 48.6526 11.6629 48.737C11.3613 48.8215 11.0417 48.9511 10.7039 49.126C10.3662 49.3009 10.0556 49.5422 9.77209 49.8498C9.48862 50.1574 9.25341 50.5434 9.06644 51.0078C8.88551 51.4661 8.79504 52.024 8.79504 52.6814V53.6313Z" fill="white"/>
<path d="M33.4059 60.1089C33.4059 60.5129 33.3547 60.8748 33.2521 61.1945C33.1496 61.5202 33.0139 61.8036 32.845 62.0449C32.6762 62.2921 32.4801 62.5002 32.257 62.6691C32.0338 62.844 31.7986 62.9857 31.5513 63.0943C31.3101 63.2029 31.0628 63.2813 30.8095 63.3295C30.5622 63.3838 30.327 63.4109 30.1039 63.4109H25.8609V61.0588H30.1039C30.4235 61.0588 30.6617 60.9773 30.8186 60.8145C30.9754 60.6517 31.0538 60.4164 31.0538 60.1089V52.6814C31.0538 52.3738 30.9754 52.1416 30.8186 51.9848C30.6617 51.822 30.4235 51.7406 30.1039 51.7406H25.8609C25.5714 51.7406 25.3422 51.831 25.1734 52.012C25.0045 52.1869 24.92 52.41 24.92 52.6814V55.8659C24.92 56.1735 25.0015 56.4087 25.1643 56.5716C25.3271 56.7344 25.5654 56.8158 25.879 56.8158H30.1039V59.168H25.8609C25.6378 59.168 25.4025 59.1439 25.1553 59.0956C24.908 59.0413 24.6607 58.9599 24.4134 58.8513C24.1722 58.7428 23.94 58.6041 23.7168 58.4352C23.4937 58.2603 23.2976 58.0522 23.1288 57.811C22.9599 57.5637 22.8242 57.2802 22.7217 56.9606C22.6191 56.6349 22.5679 56.27 22.5679 55.8659V52.6814C22.5679 52.4583 22.592 52.2231 22.6402 51.9758C22.6945 51.7285 22.776 51.4842 22.8845 51.243C22.9931 50.9957 23.1318 50.7605 23.3007 50.5373C23.4756 50.3142 23.6836 50.1182 23.9249 49.9493C24.1722 49.7804 24.4556 49.6447 24.7753 49.5422C25.0949 49.4397 25.4568 49.3884 25.8609 49.3884H30.1039C30.327 49.3884 30.5622 49.4155 30.8095 49.4698C31.0628 49.5181 31.3101 49.5965 31.5513 49.705C31.7986 49.8136 32.0338 49.9553 32.257 50.1302C32.4801 50.2991 32.6762 50.5072 32.845 50.7545C33.0139 50.9957 33.1496 51.2762 33.2521 51.5958C33.3547 51.9155 33.4059 52.2773 33.4059 52.6814V60.1089Z" fill="white"/>
<path d="M47.0069 52.6272C47.0069 52.9528 46.9496 53.3057 46.835 53.6856C46.7204 54.0596 46.5334 54.4094 46.2741 54.7351C46.0208 55.0547 45.686 55.3231 45.2699 55.5402C44.8598 55.7573 44.3592 55.8659 43.7681 55.8659H39.5252V53.6313H43.7681C44.0878 53.6313 44.3351 53.5348 44.51 53.3419C44.6849 53.1428 44.7723 52.8986 44.7723 52.6091C44.7723 52.3015 44.6728 52.0602 44.4738 51.8853C44.2808 51.7104 44.0456 51.623 43.7681 51.623H39.5252C39.2055 51.623 38.9583 51.7225 38.7833 51.9215C38.6084 52.1145 38.521 52.3558 38.521 52.6452V55.9292C38.521 56.2429 38.6175 56.4871 38.8105 56.662C39.0095 56.8369 39.2538 56.9244 39.5433 56.9244H43.7681V59.168H39.5252C39.1995 59.168 38.8467 59.1107 38.4667 58.9961C38.0928 58.8815 37.743 58.6976 37.4173 58.4442C37.0976 58.1849 36.8292 57.8502 36.6121 57.44C36.395 57.0239 36.2864 56.5203 36.2864 55.9292V52.6272C36.2864 52.3015 36.3437 51.9517 36.4583 51.5777C36.5729 51.1978 36.7569 50.848 37.0102 50.5283C37.2695 50.2026 37.6042 49.9312 38.0144 49.7141C38.4305 49.497 38.9341 49.3884 39.5252 49.3884H43.7681C44.0938 49.3884 44.4436 49.4457 44.8176 49.5603C45.1975 49.6749 45.5473 49.8619 45.867 50.1212C46.1927 50.3745 46.4641 50.7092 46.6812 51.1254C46.8983 51.5355 47.0069 52.0361 47.0069 52.6272ZM44.7904 48.1309L41.6421 46.5025L38.4938 48.1309L37.3992 46.611L41.6421 44.2046L45.8851 46.611L44.7904 48.1309Z" fill="white"/>
<path d="M60.3545 59.168H58.0024V53.7399C58.0024 53.4323 57.9481 53.1579 57.8395 52.9167C57.737 52.6694 57.5952 52.4583 57.4143 52.2834C57.2334 52.1085 57.0193 51.9758 56.772 51.8853C56.5307 51.7888 56.2684 51.7406 55.9849 51.7406H51.8686V59.168H49.5165V50.5554C49.5165 50.3926 49.5466 50.2418 49.6069 50.1031C49.6672 49.9584 49.7517 49.8347 49.8602 49.7322C49.9688 49.6236 50.0955 49.5392 50.2402 49.4789C50.385 49.4186 50.5388 49.3884 50.7016 49.3884H56.003C56.2985 49.3884 56.6091 49.4216 56.9348 49.4879C57.2665 49.5543 57.5922 49.6628 57.9119 49.8136C58.2376 49.9584 58.5452 50.1453 58.8347 50.3745C59.1302 50.5977 59.3895 50.8721 59.6127 51.1978C59.8419 51.5174 60.0228 51.8883 60.1555 52.3105C60.2882 52.7327 60.3545 53.2092 60.3545 53.7399V59.168Z" fill="white"/>
<path d="M72.8156 59.168H66.4376C66.1119 59.168 65.7561 59.1107 65.3701 58.9961C64.9841 58.8815 64.6252 58.6945 64.2935 58.4352C63.9678 58.1698 63.6934 57.8291 63.4702 57.4129C63.2531 56.9907 63.1446 56.4751 63.1446 55.8659V52.6814C63.1446 52.4583 63.1687 52.2231 63.2169 51.9758C63.2712 51.7285 63.3526 51.4842 63.4612 51.243C63.5698 50.9957 63.7085 50.7605 63.8773 50.5373C64.0523 50.3142 64.2603 50.1182 64.5016 49.9493C64.7489 49.7804 65.0323 49.6447 65.352 49.5422C65.6716 49.4397 66.0335 49.3884 66.4376 49.3884H72.8156V51.7406H66.4376C66.13 51.7406 65.8948 51.819 65.7319 51.9758C65.5751 52.1326 65.4967 52.3738 65.4967 52.6995V55.8659C65.4967 56.1735 65.5781 56.4087 65.741 56.5716C65.9038 56.7344 66.1421 56.8158 66.4557 56.8158H72.8156V59.168Z" fill="white"/>
<path d="M78.0754 47.38H75.7232V45.254H78.0754V47.38ZM78.0754 59.168H75.7232V49.3884H78.0754V59.168Z" fill="white"/>
<path d="M91.3597 55.9292C91.3597 56.2549 91.3024 56.6077 91.1878 56.9877C91.0732 57.3616 90.8862 57.7115 90.6269 58.0371C90.3736 58.3568 90.0389 58.6252 89.6227 58.8423C89.2126 59.0594 88.712 59.168 88.1209 59.168H83.878C83.5523 59.168 83.1995 59.1107 82.8195 58.9961C82.4456 58.8815 82.0958 58.6976 81.7701 58.4442C81.4504 58.1849 81.182 57.8502 80.9649 57.44C80.7478 57.0239 80.6392 56.5203 80.6392 55.9292C80.6392 55.6035 80.6965 55.2507 80.8111 54.8708C80.9257 54.4908 81.1097 54.141 81.363 53.8213C81.6223 53.4956 81.9571 53.2242 82.3672 53.0071C82.7833 52.79 83.2869 52.6814 83.878 52.6814H88.1209V54.925H83.878C83.5583 54.925 83.3111 55.0246 83.1362 55.2236C82.9613 55.4166 82.8738 55.6578 82.8738 55.9473C82.8738 56.2549 82.9733 56.4962 83.1723 56.6711C83.3774 56.8399 83.6187 56.9244 83.8961 56.9244H88.1209C88.4406 56.9244 88.6879 56.8279 88.8628 56.6349C89.0377 56.4419 89.1251 56.2006 89.1251 55.9111V52.6272C89.1251 52.3196 89.0286 52.0753 88.8356 51.8944C88.6487 51.7134 88.4104 51.623 88.1209 51.623H82.9552V49.3884H88.1209C88.4466 49.3884 88.7964 49.4457 89.1704 49.5603C89.5503 49.6749 89.9001 49.8619 90.2198 50.1212C90.5455 50.3745 90.8169 50.7092 91.034 51.1254C91.2511 51.5355 91.3597 52.0361 91.3597 52.6272V55.9292Z" fill="white"/>
<path d="M111.976 55.8659C111.976 56.27 111.924 56.6349 111.822 56.9606C111.719 57.2802 111.583 57.5637 111.415 57.811C111.246 58.0522 111.05 58.2603 110.827 58.4352C110.603 58.6041 110.368 58.7428 110.121 58.8513C109.88 58.9599 109.632 59.0413 109.379 59.0956C109.132 59.1439 108.897 59.168 108.673 59.168H104.43C104.026 59.168 103.665 59.1167 103.345 59.0142C103.025 58.9117 102.742 58.776 102.494 58.6071C102.253 58.4322 102.045 58.2332 101.87 58.01C101.701 57.7868 101.563 57.5546 101.454 57.3134C101.346 57.0661 101.264 56.8188 101.21 56.5716C101.162 56.3182 101.137 56.083 101.137 55.8659V52.6814C101.137 52.0783 101.246 51.5687 101.463 51.1525C101.686 50.7303 101.961 50.3896 102.286 50.1302C102.618 49.8649 102.977 49.6749 103.363 49.5603C103.749 49.4457 104.105 49.3884 104.43 49.3884H108.673V51.7406H104.449C104.135 51.7406 103.897 51.822 103.734 51.9848C103.571 52.1416 103.49 52.3738 103.49 52.6814V55.8478C103.49 56.1675 103.568 56.4087 103.725 56.5716C103.888 56.7344 104.123 56.8158 104.43 56.8158H108.673C108.993 56.8158 109.231 56.7344 109.388 56.5716C109.545 56.4087 109.623 56.1735 109.623 55.8659V45.254H111.976V55.8659Z" fill="white"/>
<path d="M125.667 52.6272C125.667 52.9528 125.61 53.3057 125.495 53.6856C125.38 54.0596 125.193 54.4094 124.934 54.7351C124.681 55.0547 124.346 55.3231 123.93 55.5402C123.52 55.7573 123.019 55.8659 122.428 55.8659H118.185V53.6313H122.428C122.748 53.6313 122.995 53.5348 123.17 53.3419C123.345 53.1428 123.432 52.8986 123.432 52.6091C123.432 52.3015 123.333 52.0602 123.134 51.8853C122.941 51.7104 122.706 51.623 122.428 51.623H118.185C117.866 51.623 117.618 51.7225 117.443 51.9215C117.268 52.1145 117.181 52.3558 117.181 52.6452V55.9292C117.181 56.2429 117.278 56.4871 117.471 56.662C117.67 56.8369 117.914 56.9244 118.203 56.9244H122.428V59.168H118.185C117.86 59.168 117.507 59.1107 117.127 58.9961C116.753 58.8815 116.403 58.6976 116.077 58.4442C115.758 58.1849 115.489 57.8502 115.272 57.44C115.055 57.0239 114.946 56.5203 114.946 55.9292V52.6272C114.946 52.3015 115.004 51.9517 115.118 51.5777C115.233 51.1978 115.417 50.848 115.67 50.5283C115.93 50.2026 116.264 49.9312 116.674 49.7141C117.091 49.497 117.594 49.3884 118.185 49.3884H122.428C122.754 49.3884 123.104 49.4457 123.478 49.5603C123.858 49.6749 124.207 49.8619 124.527 50.1212C124.853 50.3745 125.124 50.7092 125.341 51.1254C125.558 51.5355 125.667 52.0361 125.667 52.6272Z" fill="white"/>
<path d="M150.49 59.168H148.119V51.442L143.949 58.779C143.846 58.9659 143.701 59.1077 143.514 59.2042C143.334 59.3007 143.137 59.3489 142.926 59.3489C142.721 59.3489 142.528 59.3007 142.347 59.2042C142.173 59.1077 142.034 58.9659 141.931 58.779L137.743 51.442V59.168H135.39V47.1991C135.39 46.9277 135.469 46.6864 135.626 46.4753C135.788 46.2642 136 46.1225 136.259 46.0501C136.386 46.02 136.512 46.0109 136.639 46.023C136.766 46.029 136.886 46.0562 137.001 46.1044C137.121 46.1466 137.23 46.21 137.326 46.2944C137.423 46.3728 137.504 46.4693 137.571 46.5839L142.926 55.893L148.282 46.5839C148.421 46.3547 148.611 46.1919 148.852 46.0954C149.099 45.9989 149.356 45.9838 149.621 46.0501C149.874 46.1225 150.082 46.2642 150.245 46.4753C150.408 46.6864 150.49 46.9277 150.49 47.1991V59.168Z" fill="white"/>
<path d="M163.937 55.9292C163.937 56.2549 163.879 56.6077 163.765 56.9877C163.65 57.3616 163.463 57.7115 163.204 58.0371C162.951 58.3568 162.616 58.6252 162.2 58.8423C161.79 59.0594 161.289 59.168 160.698 59.168H156.455C156.129 59.168 155.776 59.1107 155.397 58.9961C155.023 58.8815 154.673 58.6976 154.347 58.4442C154.027 58.1849 153.759 57.8502 153.542 57.44C153.325 57.0239 153.216 56.5203 153.216 55.9292C153.216 55.6035 153.274 55.2507 153.388 54.8708C153.503 54.4908 153.687 54.141 153.94 53.8213C154.199 53.4956 154.534 53.2242 154.944 53.0071C155.36 52.79 155.864 52.6814 156.455 52.6814H160.698V54.925H156.455C156.135 54.925 155.888 55.0246 155.713 55.2236C155.538 55.4166 155.451 55.6578 155.451 55.9473C155.451 56.2549 155.55 56.4962 155.749 56.6711C155.954 56.8399 156.196 56.9244 156.473 56.9244H160.698C161.018 56.9244 161.265 56.8279 161.44 56.6349C161.615 56.4419 161.702 56.2006 161.702 55.9111V52.6272C161.702 52.3196 161.606 52.0753 161.413 51.8944C161.226 51.7134 160.987 51.623 160.698 51.623H155.532V49.3884H160.698C161.024 49.3884 161.373 49.4457 161.747 49.5603C162.127 49.6749 162.477 49.8619 162.797 50.1212C163.122 50.3745 163.394 50.7092 163.611 51.1254C163.828 51.5355 163.937 52.0361 163.937 52.6272V55.9292Z" fill="white"/>
<path d="M175.43 51.7406H170.137C169.818 51.7406 169.576 51.822 169.414 51.9848C169.251 52.1416 169.169 52.3738 169.169 52.6814V59.168H166.817V52.6814C166.817 52.2773 166.868 51.9155 166.971 51.5958C167.074 51.2762 167.209 50.9957 167.378 50.7545C167.553 50.5072 167.752 50.2991 167.975 50.1302C168.198 49.9553 168.431 49.8136 168.672 49.705C168.919 49.5965 169.166 49.5181 169.414 49.4698C169.667 49.4155 169.902 49.3884 170.119 49.3884H175.43V51.7406Z" fill="white"/>
<path d="M189.402 59.168H186.009L181.269 54.5903C181.003 54.3491 180.88 54.0475 180.898 53.6856C180.91 53.5168 180.952 53.3599 181.024 53.2152C181.103 53.0644 181.208 52.9378 181.341 52.8352L185.638 49.3703H189.402L183.865 53.8304L189.402 59.168ZM180.301 59.168H177.948V45.254H180.301V59.168Z" fill="white"/>
<path d="M201.845 52.6272C201.845 52.9528 201.787 53.3057 201.673 53.6856C201.558 54.0596 201.371 54.4094 201.112 54.7351C200.858 55.0547 200.524 55.3231 200.108 55.5402C199.697 55.7573 199.197 55.8659 198.606 55.8659H194.363V53.6313H198.606C198.925 53.6313 199.173 53.5348 199.348 53.3419C199.523 53.1428 199.61 52.8986 199.61 52.6091C199.61 52.3015 199.51 52.0602 199.311 51.8853C199.118 51.7104 198.883 51.623 198.606 51.623H194.363C194.043 51.623 193.796 51.7225 193.621 51.9215C193.446 52.1145 193.359 52.3558 193.359 52.6452V55.9292C193.359 56.2429 193.455 56.4871 193.648 56.662C193.847 56.8369 194.091 56.9244 194.381 56.9244H198.606V59.168H194.363C194.037 59.168 193.684 59.1107 193.304 58.9961C192.93 58.8815 192.581 58.6976 192.255 58.4442C191.935 58.1849 191.667 57.8502 191.45 57.44C191.233 57.0239 191.124 56.5203 191.124 55.9292V52.6272C191.124 52.3015 191.181 51.9517 191.296 51.5777C191.411 51.1978 191.595 50.848 191.848 50.5283C192.107 50.2026 192.442 49.9312 192.852 49.7141C193.268 49.497 193.772 49.3884 194.363 49.3884H198.606C198.931 49.3884 199.281 49.4457 199.655 49.5603C200.035 49.6749 200.385 49.8619 200.705 50.1212C201.03 50.3745 201.302 50.7092 201.519 51.1254C201.736 51.5355 201.845 52.0361 201.845 52.6272Z" fill="white"/>
<path d="M213.247 51.7406H209.14V59.168H206.761V51.7406H203.703V49.3884H206.761V46.1949H209.14V49.3884H213.247V51.7406Z" fill="white"/>
<path d="M218.109 47.38H215.757V45.254H218.109V47.38ZM218.109 59.168H215.757V49.3884H218.109V59.168Z" fill="white"/>
<path d="M232.135 59.168H229.783V53.7399C229.783 53.4323 229.729 53.1579 229.62 52.9167C229.518 52.6694 229.376 52.4583 229.195 52.2834C229.014 52.1085 228.8 51.9758 228.553 51.8853C228.311 51.7888 228.049 51.7406 227.765 51.7406H223.649V59.168H221.297V50.5554C221.297 50.3926 221.327 50.2418 221.387 50.1031C221.448 49.9584 221.532 49.8347 221.641 49.7322C221.749 49.6236 221.876 49.5392 222.021 49.4789C222.165 49.4186 222.319 49.3884 222.482 49.3884H227.784C228.079 49.3884 228.39 49.4216 228.715 49.4879C229.047 49.5543 229.373 49.6628 229.692 49.8136C230.018 49.9584 230.326 50.1453 230.615 50.3745C230.911 50.5977 231.17 50.8721 231.393 51.1978C231.622 51.5174 231.803 51.8883 231.936 52.3105C232.069 52.7327 232.135 53.2092 232.135 53.7399V59.168Z" fill="white"/>
<path d="M245.763 60.1089C245.763 60.5129 245.712 60.8748 245.609 61.1945C245.507 61.5202 245.371 61.8036 245.202 62.0449C245.033 62.2921 244.837 62.5002 244.614 62.6691C244.391 62.844 244.156 62.9857 243.909 63.0943C243.667 63.2029 243.42 63.2813 243.167 63.3295C242.919 63.3838 242.684 63.4109 242.461 63.4109H238.218V61.0588H242.461C242.781 61.0588 243.019 60.9773 243.176 60.8145C243.333 60.6517 243.411 60.4164 243.411 60.1089V52.6814C243.411 52.3738 243.333 52.1416 243.176 51.9848C243.019 51.822 242.781 51.7406 242.461 51.7406H238.218C237.929 51.7406 237.699 51.831 237.531 52.012C237.362 52.1869 237.277 52.41 237.277 52.6814V55.8659C237.277 56.1735 237.359 56.4087 237.521 56.5716C237.684 56.7344 237.923 56.8158 238.236 56.8158H242.461V59.168H238.218C237.995 59.168 237.76 59.1439 237.512 59.0956C237.265 59.0413 237.018 58.9599 236.771 58.8513C236.529 58.7428 236.297 58.6041 236.074 58.4352C235.851 58.2603 235.655 58.0522 235.486 57.811C235.317 57.5637 235.181 57.2802 235.079 56.9606C234.976 56.6349 234.925 56.27 234.925 55.8659V52.6814C234.925 52.4583 234.949 52.2231 234.997 51.9758C235.052 51.7285 235.133 51.4842 235.242 51.243C235.35 50.9957 235.489 50.7605 235.658 50.5373C235.833 50.3142 236.041 50.1182 236.282 49.9493C236.529 49.7804 236.813 49.6447 237.132 49.5422C237.452 49.4397 237.814 49.3884 238.218 49.3884H242.461C242.684 49.3884 242.919 49.4155 243.167 49.4698C243.42 49.5181 243.667 49.5965 243.909 49.705C244.156 49.8136 244.391 49.9553 244.614 50.1302C244.837 50.2991 245.033 50.5072 245.202 50.7545C245.371 50.9957 245.507 51.2762 245.609 51.5958C245.712 51.9155 245.763 52.2773 245.763 52.6814V60.1089Z" fill="white"/>
<path d="M245.573 13.5278L242.13 9.47878L249.086 1.07582L256.01 1.07582L245.573 13.5278Z" fill="#E1E0FF"/>
<path d="M235.697 16.6035L239.139 20.6526L232.111 29.1289H225.186L235.697 16.6035Z" fill="white"/>
<path d="M28.0304 17.3885C28.0304 19.0968 27.7305 20.6682 27.1306 22.1026C26.5438 23.5371 25.7288 24.7759 24.6855 25.8191C23.6423 26.8493 22.4034 27.6578 20.969 28.2447C19.5346 28.8315 17.9762 29.1249 16.294 29.1249H2.56244C2.19731 29.1249 1.85826 29.0597 1.54529 28.9293C1.23232 28.7989 0.958471 28.6228 0.723743 28.4012C0.502056 28.1664 0.326011 27.8926 0.195606 27.5796C0.0652021 27.2666 0 26.9276 0 26.5625V3.63739C0 3.2853 0.0652021 2.95277 0.195606 2.6398C0.326011 2.32683 0.502056 2.05298 0.723743 1.81825C0.958471 1.58352 1.23232 1.40096 1.54529 1.27055C1.85826 1.14015 2.19731 1.07495 2.56244 1.07495H16.294C17.9762 1.07495 19.5346 1.36836 20.969 1.95518C22.4034 2.54199 23.6423 3.35702 24.6855 4.40025C25.7288 5.43045 26.5438 6.66929 27.1306 8.11678C27.7305 9.55122 28.0304 11.1161 28.0304 12.8113V17.3885ZM22.9446 12.8113C22.9446 11.8203 22.7816 10.9139 22.4556 10.0924C22.1426 9.27085 21.6927 8.57319 21.1059 7.99941C20.5191 7.41259 19.8149 6.9627 18.9934 6.64973C18.1849 6.32372 17.2851 6.16071 16.294 6.16071H5.08576V24.0391H16.294C17.2851 24.0391 18.1849 23.8826 18.9934 23.5697C19.8149 23.2437 20.5191 22.7938 21.1059 22.22C21.6927 21.6332 22.1426 20.9355 22.4556 20.127C22.7816 19.3055 22.9446 18.3926 22.9446 17.3885V12.8113Z" fill="#111111"/>
<path d="M36.3049 29.1249H31.2191V1.07495H36.3049V29.1249Z" fill="#111111"/>
<path d="M67.5398 26.5625C67.5398 26.9276 67.4746 27.2666 67.3442 27.5796C67.2138 27.8926 67.0313 28.1664 66.7965 28.4012C66.5749 28.6228 66.3075 28.7989 65.9946 28.9293C65.6816 29.0597 65.3425 29.1249 64.9774 29.1249H46.6295C46.1601 29.1249 45.6515 29.0727 45.1038 28.9684C44.5691 28.851 44.0345 28.675 43.4998 28.4403C42.9782 28.2055 42.4762 27.9056 41.9937 27.5405C41.5112 27.1623 41.0808 26.7124 40.7027 26.1908C40.3375 25.6561 40.0441 25.0432 39.8224 24.3521C39.6007 23.6479 39.4899 22.859 39.4899 21.9853V8.21458C39.4899 7.74512 39.5421 7.24307 39.6464 6.70841C39.7638 6.16071 39.9398 5.62605 40.1745 5.10444C40.4093 4.56978 40.7157 4.0612 41.0939 3.57871C41.472 3.09621 41.9219 2.6724 42.4436 2.30727C42.9782 1.92909 43.5911 1.62917 44.2823 1.40748C44.9734 1.18579 45.7558 1.07495 46.6295 1.07495H67.3051V6.16071H46.6295C45.9645 6.16071 45.4559 6.33676 45.1038 6.68885C44.7517 7.04094 44.5757 7.56256 44.5757 8.2537V21.9853C44.5757 22.6373 44.7517 23.1459 45.1038 23.511C45.4689 23.8631 45.9775 24.0391 46.6295 24.0391H62.4541V17.6624H48.9181V12.5375H64.9774C65.3425 12.5375 65.6816 12.6092 65.9946 12.7526C66.3075 12.883 66.5749 13.0656 66.7965 13.3003C67.0313 13.5351 67.2138 13.8089 67.3442 14.1219C67.4746 14.4218 67.5398 14.7478 67.5398 15.0999V26.5625Z" fill="#111111"/>
<path d="M75.7597 29.1249H70.674V1.07495H75.7597V29.1249Z" fill="#111111"/>
<path d="M106.138 6.16071H94.9294V29.1249H89.8436V6.16071H78.6158V1.07495H106.138V6.16071Z" fill="#111111"/>
<path d="M136.437 29.1249H131.351V22.2396H113.473V29.1249H108.387V15.0999C108.387 13.0526 108.739 11.1682 109.443 9.4469C110.148 7.72556 111.126 6.24547 112.377 5.00663C113.629 3.76779 115.109 2.8028 116.818 2.11166C118.526 1.42052 120.391 1.07495 122.412 1.07495H133.875C134.227 1.07495 134.559 1.14015 134.872 1.27055C135.185 1.40096 135.459 1.58352 135.694 1.81825C135.928 2.05298 136.111 2.32683 136.241 2.6398C136.372 2.95277 136.437 3.2853 136.437 3.63739V29.1249ZM113.473 17.1538H131.351V6.16071H122.412C122.256 6.16071 121.923 6.18679 121.414 6.23895C120.919 6.27808 120.339 6.38892 119.674 6.57148C119.022 6.75405 118.33 7.03442 117.6 7.41259C116.87 7.79076 116.198 8.31238 115.585 8.97744C114.973 9.6425 114.464 10.4771 114.06 11.4812C113.668 12.4723 113.473 13.6785 113.473 15.0999V17.1538Z" fill="#111111"/>
<path d="M165.368 29.1249H142.169C141.804 29.1249 141.465 29.0597 141.152 28.9293C140.839 28.7989 140.565 28.6228 140.33 28.4012C140.109 28.1664 139.933 27.8926 139.802 27.5796C139.672 27.2666 139.607 26.9276 139.607 26.5625V1.07495H144.692V24.0391H165.368V29.1249Z" fill="#111111"/>
<path d="M212.605 29.1249H207.48V12.4201L198.462 28.2838C198.241 28.688 197.928 28.9945 197.524 29.2031C197.132 29.4118 196.709 29.5161 196.252 29.5161C195.809 29.5161 195.391 29.4118 195 29.2031C194.622 28.9945 194.322 28.688 194.1 28.2838L185.044 12.4201V29.1249H179.958V3.24618C179.958 2.65936 180.128 2.13774 180.467 1.68133C180.819 1.22491 181.275 0.918462 181.836 0.761977C182.11 0.696775 182.384 0.677214 182.658 0.703295C182.931 0.716336 183.192 0.775017 183.44 0.879341C183.701 0.970624 183.935 1.10755 184.144 1.29011C184.353 1.45964 184.529 1.66829 184.672 1.91605L196.252 22.0439L207.832 1.91605C208.132 1.42052 208.543 1.06843 209.064 0.85978C209.599 0.651133 210.153 0.618532 210.727 0.761977C211.275 0.918462 211.725 1.22491 212.077 1.68133C212.429 2.13774 212.605 2.65936 212.605 3.24618V29.1249Z" fill="#111111"/>
<path d="M221.818 29.1249H216.733V1.07495H221.818V29.1249Z" fill="#111111"/>
<path d="M240.577 11.09L244.02 15.139L256.01 29.1249H249.105L240.577 19.1881L237.134 15.139L225.124 1.07495H232.009L240.577 11.09Z" fill="#111111"/>
</svg>
