<svg width="173" height="42" viewBox="0 0 173 42" fill="none" xmlns="http://www.w3.org/2000/svg">
<path d="M165.934 9.03834L163.621 6.38107L168.294 0.866211H172.946L165.934 9.03834Z" fill="#807DF0"/>
<path d="M159.296 11.0586L161.609 13.7159L156.887 19.2787H152.234L159.296 11.0586Z" fill="#807DF0"/>
<path d="M19.7771 11.5727C19.7771 12.694 19.5753 13.725 19.1724 14.6665C18.778 15.6079 18.2303 16.4207 17.5299 17.1055C16.8289 17.7813 15.9968 18.3119 15.0331 18.6972C14.0694 19.0825 13.0224 19.2751 11.8923 19.2751H2.66706C2.42203 19.2751 2.19404 19.2322 1.98373 19.1465C1.77343 19.0607 1.58933 18.9455 1.43209 18.7996C1.28337 18.6453 1.16479 18.4661 1.077 18.2601C0.989208 18.0546 0.945312 17.8319 0.945312 17.5925V2.54812C0.945312 2.31708 0.989208 2.09885 1.077 1.89341C1.16479 1.68797 1.28272 1.50813 1.43209 1.35453C1.58999 1.20029 1.77408 1.08061 1.98373 0.99485C2.19404 0.909091 2.42203 0.866211 2.66706 0.866211H11.8923C13.0224 0.866211 14.0694 1.05885 15.0331 1.44413C15.9968 1.82941 16.8289 2.36444 17.5299 3.0486C18.2309 3.72444 18.7786 4.53787 19.1724 5.48763C19.5753 6.42907 19.7771 7.45626 19.7771 8.56858V11.5727ZM16.3605 8.56858C16.3605 7.91834 16.251 7.32314 16.0322 6.78427C15.8219 6.24539 15.5199 5.78715 15.1255 5.41083C14.7311 5.02555 14.2581 4.73051 13.7064 4.52507C13.1633 4.31132 12.5586 4.20444 11.893 4.20444H4.36195V15.9381H11.8923C12.5579 15.9381 13.1626 15.8351 13.7058 15.6303C14.2574 15.4165 14.7311 15.1209 15.1248 14.7446C15.5192 14.3593 15.8213 13.9017 16.0316 13.3711C16.2504 12.8316 16.3598 12.2332 16.3598 11.574V8.56986L16.3605 8.56858Z" fill="white"/>
<path d="M25.3346 19.2751H21.918V0.866211H25.3346V19.2751Z" fill="white"/>
<path d="M46.3188 17.5935C46.3188 17.8328 46.275 18.0556 46.1872 18.261C46.0994 18.4664 45.9769 18.6463 45.819 18.8005C45.6702 18.9458 45.4901 19.0616 45.2804 19.1474C45.0701 19.2332 44.8421 19.276 44.5971 19.276H32.2704C31.9552 19.276 31.6132 19.2415 31.245 19.173C30.886 19.0962 30.5263 18.9804 30.1673 18.8261C29.8168 18.6719 29.4794 18.4754 29.1551 18.2354C28.8308 17.9871 28.5419 17.692 28.2877 17.3496C28.0426 16.9989 27.8454 16.5964 27.6961 16.1432C27.5473 15.6812 27.4727 15.1634 27.4727 14.59V5.55193C27.4727 5.24409 27.508 4.9145 27.5781 4.56314C27.6568 4.20346 27.7753 3.85274 27.9332 3.51034C28.0911 3.15962 28.2968 2.82555 28.551 2.50875C28.8052 2.19195 29.1073 1.91419 29.4578 1.67419C29.8168 1.42587 30.2289 1.22939 30.6934 1.08347C31.1579 0.938194 31.6833 0.865234 32.2704 0.865234H46.161V4.20282H32.2704C31.8235 4.20282 31.4815 4.31866 31.245 4.5497C31.0085 4.78074 30.8899 5.12314 30.8899 5.57689V14.5887C30.8899 15.0169 31.0079 15.3503 31.245 15.5903C31.4901 15.8213 31.8321 15.9372 32.2704 15.9372H42.9022V11.7522H33.808V8.38904H44.5971C44.8421 8.38904 45.0701 8.4364 45.2804 8.53048C45.4907 8.61624 45.6702 8.73592 45.819 8.89016C45.9769 9.0444 46.0994 9.2236 46.1872 9.42904C46.275 9.62616 46.3188 9.83991 46.3188 10.071V17.5935Z" fill="white"/>
<path d="M51.8424 19.2751H48.4258V0.866211H51.8424V19.2751Z" fill="white"/>
<path d="M72.2522 4.2038H64.7218V19.2751H61.3052V4.2038H53.7617V0.866211H72.2522V4.2038Z" fill="white"/>
<path d="M92.6105 19.2751H89.1939V14.7561H77.1823V19.2751H73.7656V10.0707C73.7656 8.72666 74.0021 7.49018 74.4752 6.36059C74.9482 5.23099 75.6053 4.25948 76.4465 3.44668C77.2871 2.63388 78.2816 2.00029 79.4294 1.54653C80.5773 1.09277 81.8299 0.866211 83.1881 0.866211H90.8888C91.1253 0.866211 91.3487 0.909091 91.559 0.99485C91.7693 1.08061 91.9534 1.20029 92.1113 1.35453C92.2685 1.50877 92.3917 1.68861 92.4788 1.89341C92.5666 2.09885 92.6105 2.31708 92.6105 2.54812V19.2757V19.2751ZM77.1823 11.4185H89.1939V4.2038H83.1881C83.0826 4.2038 82.8592 4.22108 82.5178 4.255C82.185 4.2806 81.7952 4.35356 81.3484 4.47324C80.9101 4.59291 80.4456 4.77723 79.9549 5.02555C79.4648 5.27387 79.0134 5.61627 78.6013 6.05275C78.1899 6.48923 77.8479 7.03706 77.5767 7.69626C77.3139 8.3465 77.1823 9.13817 77.1823 10.0713V11.4191V11.4185Z" fill="white"/>
<path d="M112.046 19.2751H96.46C96.2143 19.2751 95.987 19.2322 95.7767 19.1465C95.5664 19.0607 95.3823 18.9455 95.2244 18.7996C95.0757 18.6453 94.9578 18.4661 94.87 18.2601C94.7822 18.0546 94.7383 17.8319 94.7383 17.5925V0.866211H98.1556V15.9375H112.046V19.2751Z" fill="white"/>
<path d="M143.782 19.2764H140.338V8.31324L134.28 18.7247C134.131 18.9903 133.921 19.1913 133.649 19.3282C133.386 19.4652 133.102 19.5337 132.795 19.5337C132.487 19.5337 132.217 19.4652 131.954 19.3282C131.7 19.1913 131.498 18.9903 131.349 18.7247L125.265 8.31324V19.2764H121.848V2.29215C121.848 1.90687 121.962 1.56447 122.19 1.26495C122.426 0.965431 122.733 0.764472 123.109 0.661432C123.294 0.618553 123.478 0.605753 123.662 0.623033C123.845 0.631353 124.021 0.670392 124.187 0.738872C124.362 0.799032 124.52 0.888631 124.66 1.00831C124.8 1.11967 124.919 1.25663 125.015 1.41919L132.795 14.6294L140.575 1.41919C140.776 1.09407 141.052 0.863032 141.403 0.726072C141.762 0.589113 142.135 0.567993 142.52 0.662072C142.888 0.764472 143.19 0.966071 143.426 1.26559C143.663 1.56511 143.782 1.90751 143.782 2.29279V19.277V19.2764Z" fill="white"/>
<path d="M149.972 19.2751H146.555V0.866211H149.972V19.2751Z" fill="white"/>
<path d="M162.577 7.43898L164.89 10.0963L172.946 19.2751H168.307L162.577 12.7535L160.264 10.0963L152.195 0.866211H156.821L162.577 7.43898Z" fill="white"/>
<path d="M15.0402 38.6532H13.5418V36.6718H8.27568V38.6532H6.77734V34.6174C6.77734 34.0286 6.88086 33.4858 7.08854 32.9905C7.29623 32.4951 7.58384 32.0695 7.95269 31.7131C8.32154 31.3566 8.75722 31.0788 9.26038 30.8798C9.76354 30.6807 10.3126 30.5815 10.9081 30.5815H14.2848C14.3883 30.5815 14.4866 30.6001 14.5783 30.6379C14.6707 30.6756 14.7512 30.7281 14.82 30.7953C14.8895 30.8625 14.9432 30.9419 14.9812 31.0315C15.0198 31.1217 15.0388 31.2171 15.0388 31.3188V38.6525L15.0402 38.6532ZM8.27568 35.2087H13.5418V32.0459H10.9088C10.8629 32.0459 10.7653 32.0523 10.6179 32.0657C10.4698 32.0791 10.2988 32.1118 10.1049 32.1643C9.91095 32.2167 9.70654 32.2974 9.491 32.4062C9.27611 32.515 9.07825 32.6654 8.89743 32.8567C8.7166 33.0481 8.56788 33.2875 8.45061 33.5742C8.33334 33.8615 8.27503 34.209 8.27503 34.618V35.2087H8.27568Z" fill="#8785FF"/>
<path d="M22.6316 36.5991C22.6316 36.8506 22.5988 37.0765 22.534 37.2775C22.4684 37.4784 22.382 37.6544 22.2745 37.8067C22.1671 37.9584 22.0419 38.0883 21.8998 38.1952C21.7576 38.3021 21.6089 38.3891 21.453 38.457C21.297 38.5248 21.1398 38.5741 20.9806 38.6061C20.8214 38.6381 20.67 38.6541 20.5285 38.6541H16.4725V37.1904H20.5174C20.7212 37.1904 20.8745 37.1399 20.9786 37.0381C21.0828 36.9363 21.1339 36.7904 21.1339 36.5991C21.1149 36.2087 20.9131 36.0135 20.5292 36.0135H18.2073C17.8771 36.0135 17.5967 35.9571 17.3661 35.8445C17.1355 35.7319 16.9481 35.5911 16.8046 35.4221C16.6605 35.2531 16.557 35.0714 16.4934 34.8762C16.4299 34.681 16.3984 34.4992 16.3984 34.3303C16.3984 34.0039 16.4581 33.7293 16.5773 33.506C16.6965 33.2826 16.8459 33.1015 17.0267 32.9626C17.2076 32.8237 17.4034 32.7232 17.6144 32.6612C17.8254 32.5991 18.0232 32.5684 18.208 32.5684H21.8899V34.032H18.2198C18.1431 34.032 18.0822 34.0404 18.0383 34.0576C17.9944 34.0743 17.9616 34.0973 17.94 34.1255C17.9191 34.1536 17.9066 34.1837 17.9027 34.2157C17.8987 34.2477 17.8968 34.2784 17.8968 34.3085C17.9007 34.3687 17.9118 34.4154 17.9315 34.4493C17.9505 34.4832 17.9747 34.5076 18.0036 34.5223C18.0324 34.5376 18.0652 34.5459 18.1018 34.5479C18.1385 34.5498 18.1739 34.5504 18.2086 34.5504H20.5305C20.9144 34.5504 21.2413 34.6183 21.51 34.7533C21.7786 34.8883 21.9961 35.0579 22.1612 35.2627C22.3263 35.4675 22.4462 35.6896 22.5215 35.9296C22.5962 36.1696 22.6335 36.393 22.6335 36.5991H22.6316Z" fill="#8785FF"/>
<path d="M29.7019 36.5991C29.7019 36.8506 29.6691 37.0765 29.6043 37.2775C29.5388 37.4784 29.4523 37.6544 29.3448 37.8067C29.2374 37.9584 29.1123 38.0883 28.9701 38.1952C28.8279 38.3021 28.6792 38.3891 28.5233 38.457C28.3673 38.5248 28.2101 38.5741 28.0509 38.6061C27.8917 38.6381 27.7404 38.6541 27.5988 38.6541H23.5428V37.1904H27.5877C27.7915 37.1904 27.9448 37.1399 28.0489 37.0381C28.1531 36.9363 28.2042 36.7904 28.2042 36.5991C28.1852 36.2087 27.9834 36.0135 27.5995 36.0135H25.2776C24.9474 36.0135 24.667 35.9571 24.4364 35.8445C24.2058 35.7319 24.0184 35.5911 23.8749 35.4221C23.7308 35.2531 23.6273 35.0714 23.5637 34.8762C23.5002 34.681 23.4688 34.4992 23.4688 34.3303C23.4688 34.0039 23.5284 33.7293 23.6476 33.506C23.7668 33.2826 23.9162 33.1015 24.097 32.9626C24.2779 32.8237 24.4738 32.7232 24.6847 32.6612C24.8957 32.5991 25.0935 32.5684 25.2783 32.5684H28.9603V34.032H25.2901C25.2134 34.032 25.1525 34.0404 25.1086 34.0576C25.0647 34.0743 25.032 34.0973 25.0103 34.1255C24.9894 34.1536 24.9769 34.1837 24.973 34.2157C24.9691 34.2477 24.9671 34.2784 24.9671 34.3085C24.971 34.3687 24.9822 34.4154 25.0018 34.4493C25.0208 34.4832 25.0451 34.5076 25.0739 34.5223C25.1027 34.5376 25.1355 34.5459 25.1722 34.5479C25.2088 34.5498 25.2442 34.5504 25.2789 34.5504H27.6008C27.9847 34.5504 28.3117 34.6183 28.5803 34.7533C28.8489 34.8883 29.0664 35.0579 29.2315 35.2627C29.3966 35.4675 29.5165 35.6896 29.5918 35.9296C29.6665 36.1696 29.7039 36.393 29.7039 36.5991H29.7019Z" fill="#8785FF"/>
<path d="M37.4569 34.5837C37.4569 34.7866 37.4202 35.0048 37.3475 35.2397C37.2748 35.4746 37.1562 35.6922 36.9931 35.8925C36.8299 36.0935 36.6164 36.2611 36.3537 36.3962C36.0903 36.5312 35.7706 36.5991 35.3945 36.5991H32.692V35.209H35.3945C35.5983 35.209 35.7555 35.1482 35.8669 35.026C35.9782 34.9044 36.0339 34.7527 36.0339 34.5728C36.0339 34.3815 35.9717 34.2317 35.8466 34.1223C35.7214 34.0135 35.5707 33.9591 35.3945 33.9591H32.692C32.4882 33.9591 32.331 34.0199 32.2196 34.1421C32.1082 34.2644 32.0526 34.4154 32.0526 34.5952V36.6381C32.0526 36.8333 32.1148 36.985 32.2399 37.0938C32.3644 37.2026 32.5197 37.257 32.7038 37.257H35.3945V38.6528H32.692C32.4843 38.6528 32.2609 38.617 32.0205 38.5459C31.7807 38.4749 31.5573 38.3591 31.3522 38.1997C31.1465 38.0403 30.9748 37.8317 30.8366 37.5751C30.6984 37.3178 30.6289 37.0055 30.6289 36.6381V34.5837C30.6289 34.3808 30.6656 34.1626 30.7383 33.9277C30.811 33.6935 30.9296 33.4759 31.0928 33.2749C31.2559 33.074 31.4695 32.9063 31.7322 32.7712C31.9956 32.6362 32.3153 32.5684 32.6913 32.5684H35.3938C35.6015 32.5684 35.8249 32.6042 36.0654 32.6752C36.3052 32.7463 36.5279 32.8621 36.7336 33.0215C36.9394 33.1808 37.111 33.3895 37.2492 33.6461C37.3875 33.9034 37.4569 34.2157 37.4569 34.5831V34.5837Z" fill="#8785FF"/>
<path d="M44.4792 36.5991C44.4792 36.8506 44.4465 37.0765 44.3816 37.2775C44.3161 37.4784 44.2296 37.6544 44.1222 37.8067C44.0147 37.9584 43.8896 38.0883 43.7474 38.1952C43.6053 38.3021 43.4565 38.3891 43.3006 38.457C43.1447 38.5248 42.9875 38.5741 42.8282 38.6061C42.669 38.6381 42.5177 38.6541 42.3762 38.6541H38.3201V37.1904H42.3651C42.5688 37.1904 42.7221 37.1399 42.8263 37.0381C42.9305 36.9363 42.9816 36.7904 42.9816 36.5991C42.9626 36.2087 42.7608 36.0135 42.3768 36.0135H40.055C39.7248 36.0135 39.4444 35.9571 39.2138 35.8445C38.9831 35.7319 38.7958 35.5911 38.6523 35.4221C38.5082 35.2531 38.4046 35.0714 38.3411 34.8762C38.2775 34.681 38.2461 34.4992 38.2461 34.3303C38.2461 34.0039 38.3057 33.7293 38.425 33.506C38.5442 33.2826 38.6936 33.1015 38.8744 32.9626C39.0552 32.8237 39.2511 32.7232 39.4621 32.6612C39.673 32.5991 39.8709 32.5684 40.0556 32.5684H43.7376V34.032H40.0674C39.9908 34.032 39.9298 34.0404 39.8859 34.0576C39.8421 34.0743 39.8093 34.0973 39.7877 34.1255C39.7667 34.1536 39.7543 34.1837 39.7503 34.2157C39.7464 34.2477 39.7444 34.2784 39.7444 34.3085C39.7484 34.3687 39.7595 34.4154 39.7792 34.4493C39.7982 34.4832 39.8224 34.5076 39.8512 34.5223C39.8801 34.5376 39.9128 34.5459 39.9495 34.5479C39.9862 34.5498 40.0216 34.5504 40.0563 34.5504H42.3782C42.7621 34.5504 43.089 34.6183 43.3576 34.7533C43.6262 34.8883 43.8437 35.0579 44.0088 35.2627C44.1739 35.4675 44.2938 35.6896 44.3692 35.9296C44.4439 36.1696 44.4812 36.393 44.4812 36.5991H44.4792Z" fill="#8785FF"/>
<path d="M51.5495 36.5991C51.5495 36.8506 51.5168 37.0765 51.4519 37.2775C51.3864 37.4784 51.2999 37.6544 51.1925 37.8067C51.085 37.9584 50.9599 38.0883 50.8177 38.1952C50.6756 38.3021 50.5269 38.3891 50.3709 38.457C50.215 38.5248 50.0578 38.5741 49.8986 38.6061C49.7394 38.6381 49.588 38.6541 49.4465 38.6541H45.3904V37.1904H49.4354C49.6391 37.1904 49.7924 37.1399 49.8966 37.0381C50.0008 36.9363 50.0519 36.7904 50.0519 36.5991C50.0329 36.2087 49.8311 36.0135 49.4472 36.0135H47.1253C46.7951 36.0135 46.5147 35.9571 46.2841 35.8445C46.0535 35.7319 45.8661 35.5911 45.7226 35.4221C45.5785 35.2531 45.475 35.0714 45.4114 34.8762C45.3479 34.681 45.3164 34.4992 45.3164 34.3303C45.3164 34.0039 45.376 33.7293 45.4953 33.506C45.6145 33.2826 45.7639 33.1015 45.9447 32.9626C46.1255 32.8237 46.3214 32.7232 46.5324 32.6612C46.7433 32.5991 46.9412 32.5684 47.1259 32.5684H50.8079V34.032H47.1377C47.0611 34.032 47.0002 34.0404 46.9563 34.0576C46.9124 34.0743 46.8796 34.0973 46.858 34.1255C46.837 34.1536 46.8246 34.1837 46.8206 34.2157C46.8167 34.2477 46.8147 34.2784 46.8147 34.3085C46.8187 34.3687 46.8298 34.4154 46.8495 34.4493C46.8685 34.4832 46.8927 34.5076 46.9215 34.5223C46.9504 34.5376 46.9831 34.5459 47.0198 34.5479C47.0565 34.5498 47.0919 34.5504 47.1266 34.5504H49.4485C49.8324 34.5504 50.1593 34.6183 50.4279 34.7533C50.6965 34.8883 50.914 35.0579 51.0791 35.2627C51.2442 35.4675 51.3641 35.6896 51.4395 35.9296C51.5142 36.1696 51.5515 36.393 51.5515 36.5991H51.5495Z" fill="#8785FF"/>
<path d="M59.376 36.5984C59.376 36.8499 59.3433 37.0759 59.2778 37.2768C59.2122 37.4778 59.1258 37.6538 59.0183 37.8061C58.9109 37.9578 58.7857 38.0877 58.6436 38.1946C58.5014 38.3015 58.3527 38.3885 58.1968 38.4563C58.0408 38.5242 57.8836 38.5735 57.7244 38.6055C57.5652 38.6375 57.4145 38.6535 57.2723 38.6535H54.5698C54.3621 38.6535 54.1354 38.6176 53.8898 38.5466C53.6441 38.4755 53.4161 38.3578 53.2071 38.1946C52.9974 38.0314 52.8232 37.8195 52.683 37.5584C52.5428 37.2979 52.4727 36.9779 52.4727 36.5991V34.6176C52.4727 34.2426 52.5428 33.9245 52.683 33.6634C52.8232 33.4029 52.9981 33.1904 53.2071 33.0272C53.4161 32.864 53.6441 32.7469 53.8898 32.6752C54.1354 32.6042 54.3621 32.5684 54.5698 32.5684H57.2723C57.6562 32.5684 57.9832 32.6362 58.2518 32.7712C58.5204 32.9063 58.7379 33.0759 58.903 33.2807C59.0681 33.4855 59.188 33.7076 59.2633 33.9476C59.338 34.1876 59.3754 34.4109 59.3754 34.6176V36.5991L59.376 36.5984ZM57.8777 34.6285C57.8777 34.4256 57.8259 34.2759 57.7224 34.178C57.6189 34.08 57.4689 34.0314 57.273 34.0314H54.5823C54.3824 34.0314 54.2311 34.0813 54.1269 34.1805C54.0234 34.2797 53.9717 34.4256 53.9717 34.617V36.5984C53.9717 36.7898 54.0234 36.9363 54.1269 37.0375C54.2304 37.1386 54.3824 37.1898 54.5823 37.1898H57.273C57.4767 37.1898 57.6281 37.1392 57.7283 37.0375C57.8279 36.9363 57.8783 36.7898 57.8783 36.5984V34.6285H57.8777Z" fill="#8785FF"/>
<path d="M66.0989 34.0324H62.7281C62.5244 34.0324 62.3711 34.0823 62.2669 34.1815C62.1634 34.2807 62.1116 34.4266 62.1116 34.618V38.6538H60.6133V34.618C60.6133 34.3664 60.646 34.1412 60.7116 33.9428C60.7771 33.7437 60.8642 33.5684 60.9736 33.4167C61.083 33.265 61.2088 33.1351 61.351 33.0282C61.4932 32.9213 61.6419 32.8343 61.7978 32.7665C61.9537 32.6986 62.111 32.6493 62.2702 32.6173C62.4294 32.5853 62.5787 32.5693 62.717 32.5693H66.0989V34.033V34.0324Z" fill="#8785FF"/>
<path d="M68.6038 31.319H67.1055V29.9961H68.6038V31.319ZM68.6038 38.6527H67.1055V32.5682H68.6038V38.6527Z" fill="#8785FF"/>
<path d="M76.4726 36.6378C76.4726 36.8407 76.4359 37.0589 76.3632 37.2938C76.2904 37.5287 76.1718 37.7463 76.0087 37.9466C75.8456 38.1475 75.632 38.3152 75.3693 38.4503C75.1059 38.5853 74.7862 38.6531 74.4101 38.6531H71.7076C71.4999 38.6531 71.2765 38.6173 71.0361 38.5463C70.7963 38.4752 70.5729 38.3594 70.3678 38.2C70.1621 38.0407 69.9905 37.832 69.8522 37.5754C69.714 37.3181 69.6445 37.0058 69.6445 36.6384C69.6445 36.4356 69.6812 36.216 69.7539 35.9799C69.8267 35.7437 69.9452 35.5248 70.1084 35.3239C70.2715 35.1229 70.4851 34.9552 70.7478 34.8202C71.0112 34.6852 71.3309 34.6173 71.707 34.6173H74.4095V36.0132H71.707C71.5032 36.0132 71.346 36.074 71.2346 36.1962C71.1232 36.3184 71.0675 36.4695 71.0675 36.6493C71.0675 36.8407 71.1317 36.9898 71.2608 37.0967C71.3892 37.2036 71.5419 37.2573 71.7188 37.2573H74.4095C74.6132 37.2573 74.7705 37.1972 74.8818 37.0775C74.9932 36.9572 75.0489 36.8074 75.0489 36.6269V34.584C75.0489 34.3927 74.9886 34.2404 74.8674 34.1284C74.7462 34.0157 74.5936 33.9594 74.4095 33.9594H71.1193V32.5693H74.4095C74.6172 32.5693 74.8406 32.6052 75.081 32.6762C75.3208 32.7473 75.5436 32.8631 75.7493 33.0225C75.955 33.1818 76.1266 33.3905 76.2649 33.6471C76.4031 33.9044 76.4726 34.2167 76.4726 34.584V36.6384V36.6378Z" fill="#8785FF"/>
<path d="M88.419 36.5983C88.419 36.8498 88.3862 37.0757 88.3207 37.2767C88.2552 37.4777 88.1687 37.6537 88.0613 37.806C87.9538 37.9577 87.8287 38.0876 87.6865 38.1945C87.5444 38.3013 87.3956 38.3884 87.2397 38.4562C87.0838 38.5241 86.9266 38.5733 86.7674 38.6053C86.6081 38.6373 86.4568 38.6533 86.3153 38.6533H83.6128C83.3553 38.6533 83.1247 38.6213 82.9216 38.5573C82.7178 38.4933 82.5383 38.4082 82.383 38.3013C82.2278 38.1945 82.0948 38.0716 81.9854 37.9327C81.876 37.7938 81.7869 37.6485 81.7174 37.4962C81.648 37.3439 81.5975 37.1903 81.5648 37.0348C81.532 36.8793 81.5156 36.7333 81.5156 36.5983V34.6169C81.5156 34.2418 81.5857 33.9238 81.7259 33.6626C81.8661 33.4022 82.0411 33.1897 82.2501 33.0265C82.459 32.8633 82.687 32.7462 82.9327 32.6745C83.1784 32.6034 83.4051 32.5676 83.6128 32.5676H86.3153V34.0313H83.6246C83.4248 34.0313 83.2734 34.0812 83.1692 34.1804C83.0657 34.2796 83.014 34.4255 83.014 34.6169V36.5868C83.014 36.7858 83.0651 36.9356 83.1666 37.0373C83.2682 37.1385 83.4175 37.1897 83.6134 37.1897H86.3159C86.5197 37.1897 86.671 37.1391 86.7713 37.0373C86.8709 36.9362 86.9213 36.7897 86.9213 36.5983V29.9961H88.4197V36.5983H88.419Z" fill="#8785FF"/>
<path d="M96.5507 34.5837C96.5507 34.7866 96.514 35.0048 96.4413 35.2397C96.3686 35.4746 96.25 35.6922 96.0868 35.8925C95.9237 36.0935 95.7101 36.2611 95.4474 36.3962C95.184 36.5312 94.8643 36.5991 94.4883 36.5991H91.7857V35.209H94.4883C94.692 35.209 94.8492 35.1482 94.9606 35.026C95.072 34.9044 95.1277 34.7527 95.1277 34.5728C95.1277 34.3815 95.0654 34.2317 94.9403 34.1223C94.8152 34.0135 94.6645 33.9591 94.4883 33.9591H91.7857C91.582 33.9591 91.4248 34.0199 91.3134 34.1421C91.202 34.2644 91.1463 34.4154 91.1463 34.5952V36.6381C91.1463 36.8333 91.2086 36.985 91.3337 37.0938C91.4582 37.2026 91.6128 37.257 91.7975 37.257H94.4883V38.6528H91.7857C91.5781 38.6528 91.3546 38.617 91.1142 38.5459C90.8738 38.4749 90.651 38.3591 90.446 38.1997C90.2402 38.0403 90.0686 37.8317 89.9303 37.5751C89.7921 37.3178 89.7227 37.0055 89.7227 36.6381V34.5837C89.7227 34.3808 89.7593 34.1626 89.8321 33.9277C89.9048 33.6935 90.0234 33.4759 90.1865 33.2749C90.3496 33.074 90.5632 32.9063 90.8259 32.7712C91.0887 32.6362 91.409 32.5684 91.7851 32.5684H94.4876C94.6953 32.5684 94.9187 32.6042 95.1591 32.6752C95.3989 32.7463 95.6217 32.8621 95.8274 33.0215C96.0331 33.1808 96.2048 33.3895 96.343 33.6461C96.4812 33.9034 96.5507 34.2157 96.5507 34.5831V34.5837Z" fill="#8785FF"/>
<path d="M111.175 38.6536H109.665V33.8473L107.009 38.4117C106.944 38.5282 106.853 38.6165 106.736 38.676C106.618 38.7362 106.493 38.7663 106.358 38.7663C106.224 38.7663 106.105 38.7362 105.993 38.676C105.879 38.6159 105.79 38.5276 105.725 38.4117L103.057 33.8473V38.6536H101.559V31.2073C101.559 31.0383 101.61 30.8886 101.711 30.7567C101.813 30.6255 101.946 30.5372 102.112 30.4924C102.192 30.4738 102.273 30.4668 102.353 30.4726C102.434 30.4783 102.512 30.495 102.587 30.5231C102.661 30.5513 102.729 30.591 102.791 30.6415C102.853 30.6921 102.904 30.7535 102.946 30.8246L106.357 36.6159L109.768 30.8246C109.856 30.6818 109.978 30.5807 110.133 30.5206C110.289 30.4604 110.451 30.4514 110.62 30.4924C110.781 30.5372 110.914 30.6255 111.018 30.7567C111.121 30.8879 111.173 31.0383 111.173 31.2073V38.6536H111.175Z" fill="#8785FF"/>
<path d="M119.152 36.6378C119.152 36.8407 119.116 37.0589 119.043 37.2938C118.969 37.5287 118.852 37.7463 118.688 37.9466C118.525 38.1475 118.312 38.3152 118.049 38.4503C117.786 38.5853 117.466 38.6531 117.09 38.6531H114.387C114.18 38.6531 113.956 38.6173 113.716 38.5463C113.475 38.4752 113.253 38.3594 113.048 38.2C112.842 38.0407 112.67 37.832 112.532 37.5754C112.394 37.3181 112.324 37.0058 112.324 36.6384C112.324 36.4356 112.361 36.216 112.434 35.9799C112.506 35.7437 112.625 35.5248 112.788 35.3239C112.951 35.1229 113.165 34.9552 113.428 34.8202C113.691 34.6852 114.011 34.6173 114.387 34.6173H117.089V36.0132H114.387C114.183 36.0132 114.026 36.074 113.914 36.1962C113.803 36.3184 113.747 36.4695 113.747 36.6493C113.747 36.8407 113.811 36.9898 113.94 37.0967C114.069 37.2036 114.222 37.2573 114.398 37.2573H117.089C117.293 37.2573 117.45 37.1972 117.562 37.0775C117.673 36.9572 117.729 36.8074 117.729 36.6269V34.584C117.729 34.3927 117.668 34.2404 117.547 34.1284C117.426 34.0157 117.273 33.9594 117.089 33.9594H113.799V32.5693H117.089C117.297 32.5693 117.52 32.6052 117.761 32.6762C118 32.7473 118.223 32.8631 118.429 33.0225C118.635 33.1818 118.806 33.3905 118.945 33.6471C119.083 33.9044 119.152 34.2167 119.152 34.584V36.6384V36.6378Z" fill="#8785FF"/>
<path d="M125.884 34.0324H122.513C122.31 34.0324 122.156 34.0823 122.052 34.1815C121.949 34.2807 121.897 34.4266 121.897 34.618V38.6538H120.398V34.618C120.398 34.3664 120.431 34.1412 120.497 33.9428C120.562 33.7437 120.649 33.5684 120.759 33.4167C120.868 33.265 120.994 33.1351 121.136 33.0282C121.278 32.9213 121.427 32.8343 121.583 32.7665C121.738 32.6986 121.896 32.6493 122.055 32.6173C122.215 32.5853 122.364 32.5693 122.502 32.5693H125.884V34.033V34.0324Z" fill="#8785FF"/>
<path d="M128.393 38.6527H126.895V29.9961H128.393V38.6527ZM134.189 38.6527H132.028L129.009 35.8047C128.84 35.6549 128.762 35.4668 128.773 35.2422C128.781 35.1372 128.808 35.0386 128.856 34.9465C128.904 34.8543 128.97 34.7769 129.055 34.7129L131.791 32.5574H134.188L130.662 35.3324L134.188 38.6533L134.189 38.6527Z" fill="#8785FF"/>
<path d="M141.527 34.5837C141.527 34.7866 141.491 35.0048 141.418 35.2397C141.345 35.4746 141.227 35.6922 141.063 35.8925C140.9 36.0935 140.687 36.2611 140.424 36.3962C140.161 36.5312 139.841 36.5991 139.465 36.5991H136.762V35.209H139.465C139.669 35.209 139.826 35.1482 139.937 35.026C140.049 34.9044 140.104 34.7527 140.104 34.5728C140.104 34.3815 140.042 34.2317 139.917 34.1223C139.792 34.0135 139.641 33.9591 139.465 33.9591H136.762C136.559 33.9591 136.401 34.0199 136.29 34.1421C136.179 34.2644 136.123 34.4154 136.123 34.5952V36.6381C136.123 36.8333 136.185 36.985 136.31 37.0938C136.435 37.2026 136.589 37.257 136.774 37.257H139.465V38.6528H136.762C136.555 38.6528 136.331 38.617 136.091 38.5459C135.85 38.4749 135.628 38.3591 135.423 38.1997C135.217 38.0403 135.045 37.8317 134.907 37.5751C134.769 37.3178 134.699 37.0055 134.699 36.6381V34.5837C134.699 34.3808 134.736 34.1626 134.809 33.9277C134.881 33.6935 135 33.4759 135.163 33.2749C135.326 33.074 135.54 32.9063 135.803 32.7712C136.065 32.6362 136.386 32.5684 136.762 32.5684H139.464C139.672 32.5684 139.895 32.6042 140.136 32.6752C140.375 32.7463 140.598 32.8621 140.804 33.0215C141.01 33.1808 141.181 33.3895 141.32 33.6461C141.458 33.9034 141.527 34.2157 141.527 34.5831V34.5837Z" fill="#8785FF"/>
<path d="M148.2 34.0318H145.584V38.6525H144.068V34.0318H142.121V32.5681H144.068V30.5815H145.584V32.5681H148.2V34.0318Z" fill="#8785FF"/>
<path d="M150.701 31.319H149.203V29.9961H150.701V31.319ZM150.701 38.6527H149.203V32.5682H150.701V38.6527Z" fill="#8785FF"/>
<path d="M159.043 38.6528H157.545V35.2755C157.545 35.0842 157.512 34.9127 157.444 34.7604C157.377 34.6087 157.286 34.4781 157.17 34.3693C157.055 34.2605 156.919 34.1773 156.764 34.1191C156.609 34.0608 156.44 34.032 156.26 34.032H153.639V38.6528H152.141V33.2948C152.141 33.1936 152.16 33.0989 152.198 33.0106C152.237 32.9223 152.291 32.8455 152.359 32.7796C152.428 32.7136 152.509 32.6624 152.601 32.6247C152.693 32.5869 152.791 32.5684 152.895 32.5684H156.272C156.46 32.5684 156.659 32.5888 156.868 32.6304C157.078 32.672 157.285 32.7386 157.491 32.8301C157.696 32.9223 157.892 33.0381 158.078 33.1789C158.264 33.3197 158.429 33.4906 158.574 33.6909C158.718 33.8919 158.832 34.1236 158.916 34.386C159.001 34.6484 159.043 34.9453 159.043 35.2749V38.6522L159.043 38.6528Z" fill="#8785FF"/>
<path d="M167.127 39.2391C167.127 39.4906 167.095 39.7165 167.029 39.9174C166.964 40.1184 166.877 40.2944 166.77 40.4467C166.662 40.599 166.537 40.7283 166.395 40.8352C166.253 40.9421 166.104 41.0291 165.948 41.097C165.792 41.1642 165.635 41.2141 165.476 41.2461C165.316 41.2781 165.165 41.2941 165.024 41.2941H162.321V39.8304H165.024C165.227 39.8304 165.379 39.7798 165.479 39.6787C165.579 39.5776 165.629 39.431 165.629 39.2397V34.6189C165.629 34.4276 165.579 34.2823 165.479 34.1824C165.379 34.0832 165.227 34.0333 165.024 34.0333H162.321C162.137 34.0333 161.991 34.089 161.883 34.1991C161.776 34.3098 161.722 34.4493 161.722 34.6183V36.5997C161.722 36.7911 161.774 36.9376 161.878 37.0387C161.981 37.1399 162.133 37.1911 162.333 37.1911H165.024V38.6547H162.321C162.179 38.6547 162.029 38.6387 161.872 38.6067C161.714 38.5747 161.558 38.5248 161.402 38.4576C161.246 38.3898 161.097 38.3027 160.955 38.1959C160.813 38.089 160.688 37.9597 160.58 37.8074C160.473 37.6551 160.386 37.4791 160.321 37.2781C160.255 37.0771 160.223 36.8512 160.223 36.5997V34.6183C160.223 34.4794 160.239 34.3328 160.272 34.1792C160.305 34.0256 160.356 33.8727 160.424 33.7204C160.494 33.5687 160.583 33.4228 160.692 33.2839C160.802 33.145 160.934 33.0234 161.09 32.9178C161.245 32.8128 161.425 32.7284 161.629 32.6644C161.832 32.6004 162.062 32.5684 162.32 32.5684H165.022C165.164 32.5684 165.315 32.5844 165.474 32.6164C165.634 32.6484 165.791 32.6983 165.947 32.7655C166.102 32.8333 166.251 32.9204 166.394 33.0272C166.536 33.1341 166.66 33.2634 166.768 33.4157C166.876 33.568 166.962 33.7434 167.028 33.9418C167.093 34.1408 167.126 34.3661 167.126 34.617V39.2378L167.127 39.2391Z" fill="#8785FF"/>
</svg>
