<svg width="26" height="24" viewBox="0 0 26 24" fill="none" xmlns="http://www.w3.org/2000/svg">
<path fill-rule="evenodd" clip-rule="evenodd" d="M19.1299 0.708008C20.8382 0.708008 22.4816 1.38317 23.6905 2.59465C24.9007 3.80358 25.5772 5.43418 25.5772 7.1412V17.205C25.5772 20.7591 22.6853 23.6382 19.1299 23.6382H6.54505C2.9896 23.6382 0.0991211 20.7591 0.0991211 17.205V7.1412C0.0991211 3.58702 2.97686 0.708008 6.54505 0.708008H19.1299ZM21.1567 9.0391L21.2586 8.93719C21.5631 8.56777 21.5631 8.03272 21.2447 7.66329C21.0675 7.47347 20.8242 7.35756 20.5707 7.33208C20.3032 7.31806 20.0484 7.40852 19.8561 7.58686L14.112 12.1729C13.3732 12.7856 12.3146 12.7856 11.5643 12.1729L5.83171 7.58686C5.43553 7.29387 4.88774 7.33208 4.55781 7.67603C4.21386 8.01998 4.17565 8.56777 4.46737 8.94993L4.63425 9.11554L10.4305 13.6379C11.1439 14.1984 12.0088 14.5041 12.9146 14.5041C13.8178 14.5041 14.698 14.1984 15.4102 13.6379L21.1567 9.0391Z" fill="#807DF0"/>
</svg>
