<svg width="46" height="47" viewBox="0 0 46 47" fill="none" xmlns="http://www.w3.org/2000/svg">
<path d="M32.4415 9.16211C31.7379 9.16294 31.0634 9.44282 30.5658 9.94036C30.0683 10.4379 29.7884 11.1125 29.7876 11.8161V11.9222C29.7066 11.996 29.6283 12.0707 29.5537 12.1471C28.5711 13.1644 27.3944 13.9742 26.0932 14.5285C24.7921 15.0828 23.3929 15.3704 21.9786 15.3742H15.2569C14.5228 15.375 13.8056 15.5944 13.1968 16.0044C12.5879 16.4144 12.1149 16.9965 11.8382 17.6764C10.9079 17.8 10.0542 18.2573 9.43581 18.9633C8.81745 19.6693 8.47656 20.5758 8.47656 21.5143C8.47656 22.4528 8.81745 23.3593 9.43581 24.0653C10.0542 24.7713 10.9079 25.2286 11.8382 25.3522C12.0534 25.8777 12.3865 26.3466 12.8118 26.7228C13.2372 27.099 13.7433 27.3723 14.2911 27.5217V33.5309C14.2911 34.2379 14.572 34.9159 15.0719 35.4158C15.5718 35.9157 16.2498 36.1966 16.9568 36.1966C17.6637 36.1966 18.3418 35.9157 18.8417 35.4158C19.3416 34.9159 19.6224 34.2379 19.6224 33.5309V27.6544H21.9777C23.3916 27.6573 24.7905 27.9439 26.0916 28.4973C27.3927 29.0507 28.5695 29.8596 29.5523 30.8761C29.6279 30.9552 29.7066 31.0303 29.788 31.1046V31.2107C29.788 31.5593 29.8567 31.9044 29.99 32.2264C30.1234 32.5483 30.3189 32.8409 30.5654 33.0874C30.8118 33.3338 31.1044 33.5293 31.4264 33.6627C31.7484 33.796 32.0935 33.8647 32.442 33.8647C32.7905 33.8647 33.1356 33.796 33.4576 33.6627C33.7796 33.5293 34.0722 33.3338 34.3186 33.0874C34.5651 32.8409 34.7606 32.5483 34.8939 32.2264C35.0273 31.9044 35.096 31.5593 35.096 31.2107V11.8179C35.096 11.4691 35.0272 11.1238 34.8937 10.8016C34.7601 10.4795 34.5644 10.1868 34.3177 9.94028C34.0709 9.6938 33.7781 9.49837 33.4557 9.36515C33.1334 9.23194 32.788 9.16355 32.4393 9.16391L32.4415 9.16211ZM10.0511 21.5143C10.0513 21.0419 10.1967 20.581 10.4676 20.194C10.7385 19.807 11.1218 19.5126 11.5656 19.3506V23.6762C11.1222 23.5142 10.7392 23.22 10.4684 22.8334C10.1975 22.4468 10.0519 21.9864 10.0511 21.5143ZM18.0489 33.5309C18.0489 33.8203 17.934 34.0979 17.7293 34.3026C17.5247 34.5072 17.2471 34.6222 16.9577 34.6222C16.6682 34.6222 16.3907 34.5072 16.186 34.3026C15.9814 34.0979 15.8664 33.8203 15.8664 33.5309V27.6544H18.0489V33.5309ZM19.7898 26.08H15.2569C14.6956 26.0794 14.1575 25.8562 13.7607 25.4593C13.3638 25.0625 13.1406 24.5244 13.14 23.9631V19.0659C13.1406 18.5047 13.3638 17.9666 13.7607 17.5697C14.1575 17.1728 14.6956 16.9496 15.2569 16.949H19.7898V26.08ZM21.9795 26.08H21.3642V16.9486H21.9786C24.8374 16.9426 27.6027 15.9297 29.7889 14.0877V28.9432C27.6031 27.1003 24.8377 26.0867 21.9786 26.0805L21.9795 26.08ZM33.5238 31.2112C33.5238 31.4975 33.4101 31.7721 33.2076 31.9746C33.0052 32.177 32.7306 32.2908 32.4442 32.2908C32.1579 32.2908 31.8833 32.177 31.6809 31.9746C31.4784 31.7721 31.3647 31.4975 31.3647 31.2112V11.8179C31.3647 11.5316 31.4784 11.257 31.6809 11.0545C31.8833 10.852 32.1579 10.7383 32.4442 10.7383C32.7306 10.7383 33.0052 10.852 33.2076 11.0545C33.4101 11.257 33.5238 11.5316 33.5238 11.8179V31.2112Z" fill="#827FE3"/>
<path d="M20.5914 3.28417C21.388 3.19983 22.1312 3.15883 22.8645 3.15883C27.5315 3.15883 31.9313 4.70218 35.5873 7.62252C35.8087 7.79941 36.0723 7.88492 36.3347 7.88492C36.6873 7.88492 37.0364 7.73029 37.273 7.43392C37.6865 6.91615 37.6022 6.16176 37.0844 5.74825C32.9985 2.48468 28.0809 0.759766 22.8645 0.759766C22.0463 0.759766 21.2199 0.804868 20.3395 0.897988C19.6806 0.967693 19.2027 1.55867 19.2724 2.21701C19.3421 2.87535 19.9184 3.34333 20.5914 3.28417Z" fill="#827FE3"/>
<path d="M25.1342 43.8207C24.3388 43.905 23.595 43.946 22.8617 43.946C18.1953 43.946 13.7961 42.4027 10.1395 39.4823C9.62346 39.0694 8.86673 39.1549 8.45381 39.6709C8.0403 40.1887 8.12465 40.9431 8.64241 41.3566C12.7283 44.6202 17.6454 46.3451 22.8617 46.3451C23.6799 46.3451 24.5063 46.3 25.3873 46.2068C26.0456 46.1371 26.5235 45.5462 26.4532 44.8878C26.3841 44.2289 25.8008 43.7592 25.1342 43.8207Z" fill="#827FE3"/>
<path d="M2.47133 23.5473C2.47133 19.178 3.86107 15.0248 6.39617 11.5531V11.6726C6.39617 12.3351 6.93326 12.8722 7.5957 12.8722C8.25814 12.8722 8.79523 12.3351 8.79523 11.6726V8.27961C8.79523 7.61717 8.25814 7.08008 7.5957 7.08008H4.20328C3.54083 7.08008 3.00374 7.61717 3.00374 8.27961C3.00374 8.94205 3.54083 9.47914 4.20328 9.47914H4.95028C1.79754 13.4848 0.0722656 18.3837 0.0722656 23.5473C0.0722656 28.7636 1.79718 33.6806 5.06075 37.7666C5.29738 38.0629 5.64646 38.2176 5.99847 38.2176C6.26087 38.2176 6.52561 38.132 6.74643 37.9552C7.2642 37.5416 7.34854 36.7873 6.93503 36.2695C4.01467 32.6129 2.47133 28.2136 2.47133 23.5473Z" fill="#827FE3"/>
<path d="M41.5228 37.6175H40.7758C43.9285 33.6119 45.6532 28.7134 45.6532 23.5494C45.6532 18.3336 43.9277 13.4166 40.6642 9.3301C40.2507 8.81409 39.4974 8.72623 38.9785 9.1415C38.4607 9.55501 38.3764 10.3094 38.7899 10.8272C41.7102 14.4843 43.2542 18.8836 43.2542 23.5494C43.2542 27.9198 41.8644 32.0732 39.3288 35.5452V35.4241C39.3288 34.7616 38.7922 34.2245 38.1292 34.2245C37.4662 34.2245 36.9297 34.7616 36.9297 35.4241V38.8171C36.9297 39.4795 37.4662 40.0166 38.1292 40.0166H41.5228C42.1858 40.0166 42.7224 39.4795 42.7224 38.8171C42.7224 38.1546 42.1859 37.6175 41.5228 37.6175Z" fill="#827FE3"/>
</svg>
