<svg width="69" height="67" viewBox="0 0 69 67" fill="none" xmlns="http://www.w3.org/2000/svg">
<g clip-path="url(#clip0_336_698)">
<mask id="mask0_336_698" style="mask-type:luminance" maskUnits="userSpaceOnUse" x="0" y="0" width="69" height="67">
<path d="M69 0.330078H0V66.3301H69V0.330078Z" fill="white"/>
</mask>
<g mask="url(#mask0_336_698)">
<path d="M11.228 32.5527C10.3428 33.0095 9.34111 33.3064 8.26953 33.3521C8.66555 33.2836 10.2962 33.0095 11.228 32.5527Z" fill="#F0F0F0"/>
<path d="M42.5147 40.2734C42.3982 41.8036 41.6062 43.1509 40.4414 44.0415C41.5363 43.1738 42.1186 41.872 42.5147 40.2734Z" fill="#F0F0F0"/>
<path d="M11.3445 62.7665H9.71388V57.5368L6.84859 62.4925C6.7787 62.6295 6.68552 62.7209 6.54575 62.7894C6.42928 62.8579 6.2895 62.8807 6.12644 62.8807C5.98667 62.8807 5.8469 62.8579 5.73042 62.7894C5.61395 62.7209 5.52077 62.6295 5.45088 62.4925L2.5623 57.5368V62.7665H0.931641V54.6821C0.931641 54.4994 0.978231 54.3395 1.09471 54.2025C1.21118 54.0654 1.35095 53.9741 1.53731 53.9057C1.63049 53.8828 1.72367 53.8828 1.79356 53.8828C1.88674 53.8828 1.95663 53.9057 2.04981 53.9284C2.11969 53.9513 2.21287 53.997 2.28275 54.0654C2.35264 54.1112 2.39923 54.1797 2.44582 54.271L6.14974 60.5741L9.85365 54.271C9.94683 54.1112 10.0866 53.997 10.2496 53.9513C10.4127 53.8828 10.5991 53.8828 10.7855 53.9284C10.9718 53.9741 11.1116 54.0654 11.2048 54.2253C11.2979 54.3852 11.3678 54.5222 11.3678 54.705V62.7665H11.3445Z" fill="#F0F0F0"/>
<path d="M14.8632 62.7676H13.2324V53.998H14.8632V62.7676Z" fill="#F0F0F0"/>
<path d="M20.8507 57.1267L23.5762 53.998H25.7892L21.9456 58.4057L25.7659 62.7676H23.5528L20.8273 59.6616L18.1251 62.7676H15.9121L19.7325 58.4057L15.9353 53.998H18.1251L20.8507 57.1267Z" fill="#8785FF"/>
<path d="M38.8799 55.5733H35.3158V62.7442H33.6852V55.5733H30.0977V53.9746H38.8799V55.5733Z" fill="#8785FF"/>
<path d="M48.9901 56.944C48.9901 57.3095 48.9435 57.6291 48.8503 57.926C48.7572 58.2229 48.6407 58.4741 48.4776 58.6797C48.3146 58.9081 48.1515 59.0908 47.9419 59.2506C47.7321 59.4104 47.5225 59.5247 47.3129 59.6389C47.0799 59.7302 46.8702 59.8215 46.6373 59.8672C46.4044 59.9129 46.1947 59.9358 46.0084 59.9358L49.3861 62.8133H46.8702L43.4925 59.9358H42.3277V58.3371H45.985C46.1947 58.3143 46.3811 58.2686 46.5441 58.2229C46.7072 58.1544 46.847 58.0631 46.9867 57.9489C47.1265 57.8347 47.1964 57.6977 47.2663 57.5378C47.3362 57.3779 47.3594 57.1952 47.3594 56.9897V55.9848C47.3594 55.8935 47.3594 55.825 47.3362 55.7794C47.3129 55.7336 47.2895 55.6879 47.2429 55.6652C47.1964 55.6423 47.1731 55.6195 47.1265 55.6195C47.0799 55.6195 47.0566 55.6195 47.0101 55.6195H41.6521V62.7904H40.0215V54.8202C40.0215 54.706 40.0448 54.6146 40.0914 54.5004C40.138 54.4091 40.1846 54.3177 40.2545 54.2492C40.3244 54.1807 40.4175 54.1122 40.5107 54.0665C40.6039 54.0209 40.7203 53.998 40.8368 53.998H46.9867C47.3594 53.998 47.6623 54.0665 47.8952 54.1807C48.1515 54.3177 48.3378 54.4776 48.5009 54.6603C48.6639 54.843 48.7804 55.0714 48.827 55.2769C48.8969 55.5053 48.9203 55.7108 48.9203 55.9164V56.944H48.9901Z" fill="#8785FF"/>
<path d="M58.7042 62.767H52.8571C52.6242 62.767 52.3913 62.7214 52.1117 62.6528C51.8321 62.5844 51.5992 62.4473 51.3663 62.2646C51.1333 62.0819 50.9469 61.8535 50.8072 61.5795C50.6441 61.3054 50.5742 60.9401 50.5742 60.529V54.7968C50.5742 54.6826 50.5976 54.5913 50.6441 54.4771C50.6907 54.3857 50.7373 54.2944 50.8072 54.2258C50.8771 54.1573 50.9703 54.0888 51.0634 54.0432C51.1567 53.9975 51.273 53.9746 51.3895 53.9746H58.7042V55.5733H52.2048V60.529C52.2048 60.7345 52.2515 60.8944 52.3679 61.0085C52.4844 61.1227 52.6475 61.1684 52.8571 61.1684H58.7042V62.767ZM57.9821 59.1815H52.8571V57.5829H57.9821V59.1815Z" fill="#8785FF"/>
<path d="M68.3721 62.767H62.5251C62.2921 62.767 62.0591 62.7214 61.7797 62.6528C61.5001 62.5844 61.2671 62.4473 61.0342 62.2646C60.8012 62.0819 60.6149 61.8535 60.4751 61.5795C60.312 61.3054 60.2422 60.9401 60.2422 60.529V54.7968C60.2422 54.6826 60.2654 54.5913 60.312 54.4771C60.3586 54.3857 60.4053 54.2944 60.4751 54.2258C60.545 54.1573 60.6381 54.0888 60.7314 54.0432C60.8245 53.9975 60.941 53.9746 61.0575 53.9746H68.3721V55.5733H61.8728V60.529C61.8728 60.7345 61.9194 60.8944 62.0359 61.0085C62.1524 61.1227 62.3154 61.1684 62.5251 61.1684H68.3721V62.767ZM67.6267 59.1815H62.5017V57.5829H67.6267V59.1815Z" fill="#8785FF"/>
<path d="M65.4593 10.8116C64.877 14.26 62.3844 16.932 59.2163 17.9368C57.1198 18.759 54.8368 19.3756 53.0897 20.86C51.2726 22.3901 49.7119 23.4179 47.6619 25.8843C43.5388 30.84 43.4921 36.3894 42.5137 40.2489C42.0944 41.8476 41.5353 43.1722 40.4405 44.0172C40.3939 44.04 40.3473 44.0856 40.3007 44.1085C40.2542 44.1542 40.2075 44.177 40.1377 44.2226C40.0911 44.2455 40.0444 44.2912 39.9978 44.3141C39.1593 44.8393 38.1342 45.1591 37.0627 45.1591C34.5701 45.1591 32.4503 43.5147 31.8213 41.2538C31.8213 41.2538 31.8213 41.2538 31.8213 41.231C30.5634 38.6504 28.5134 36.1382 22.41 33.5576C18.4034 31.8676 14.5597 30.84 11.2285 32.4843H11.2052C10.2733 32.941 8.6427 33.215 8.24668 33.2836C8.22338 33.2836 8.17679 33.2836 8.1535 33.2836C8.06032 33.2836 7.96714 33.2836 7.85067 33.2836C3.8905 33.2836 0.675781 30.132 0.675781 26.2497C0.675781 22.3673 3.8905 19.2157 7.85067 19.2157C10.4598 19.2157 12.7193 20.586 13.9772 22.6185C14.0006 22.6642 14.0239 22.687 14.0471 22.7327C14.0705 22.7784 14.0937 22.8241 14.1171 22.8698C14.1171 22.8698 14.1403 22.8925 14.1403 22.9154C16.8891 27.5514 18.5431 29.5611 23.3652 31.8905C24.53 32.4386 29.7947 34.2199 35.3388 32.8725C43.0262 31.0226 46.404 23.5776 47.1261 21.9334C49.5489 16.5666 47.988 14.7625 47.4523 11.7479C47.4523 11.7479 47.4523 11.748 47.4523 11.7251C47.1028 10.4919 47.0097 9.16731 47.2193 7.81991C48.0346 2.90987 52.7635 -0.447222 57.772 0.352086C62.8736 1.24274 66.2747 5.87873 65.4593 10.8116Z" fill="#F0F0F0"/>
</g>
</g>
<defs>
<clipPath id="clip0_336_698">
<rect width="69" height="66" fill="white" transform="translate(0 0.330078)"/>
</clipPath>
</defs>
</svg>
