<svg width="63" height="63" viewBox="0 0 63 63" fill="none" xmlns="http://www.w3.org/2000/svg">
<path d="M21.1963 17.1909C19.6963 17.1909 18.5295 18.3696 18.5295 19.8851V54.4054C18.5295 55.7524 19.6963 56.9311 21.1963 56.9311C22.6964 56.9311 23.8631 55.7524 23.8631 54.237V19.8851C23.8631 18.3696 22.6964 17.1909 21.1963 17.1909Z" fill="#A09DFF"/>
<path d="M53.3635 6.41415C53.8635 6.41415 53.8635 6.41415 53.3635 6.41415H42.5298C41.0297 6.41415 39.863 7.59289 39.863 9.10842V43.4601C39.863 44.9757 41.0297 46.1544 42.5298 46.1544C44.0298 46.1544 45.1965 44.9757 45.1965 43.4601V11.8027H50.5301V43.4601C50.5301 43.4601 50.5301 43.4601 50.5301 43.6287C50.5301 45.9861 49.53 48.0068 47.8633 49.6907C46.5299 50.8694 44.6965 51.7115 42.8631 51.7115C40.5297 51.8798 38.3629 51.0378 36.6962 49.3539C35.1962 47.8383 34.3628 45.8177 34.3628 43.6287C34.3628 43.4601 34.3628 43.4603 34.3628 43.2918V19.5487C34.3628 17.8648 34.0295 16.1809 33.1961 14.497C32.5294 12.9814 31.5294 11.4659 30.3627 10.2872C29.3626 9.10845 27.8626 8.09808 26.3625 7.42451C24.6958 6.75095 23.029 6.41415 21.1956 6.41415C19.3622 6.41415 17.6955 6.75096 16.0288 7.59291C14.362 8.26647 13.0287 9.27684 11.8619 10.4556C10.5286 11.6343 9.52856 12.9814 8.86186 14.6654C8.36184 16.0125 8.02849 17.6964 7.86182 19.2119C7.86182 19.3803 7.86182 19.3803 7.86182 19.5487V54.2372C7.86182 55.7528 9.02854 56.9315 10.5286 56.9315C12.0287 56.9315 13.1954 55.7528 13.1954 54.2372V20.0538V19.8855C13.1954 17.8648 13.862 16.0125 15.1954 14.497C16.8621 12.6447 19.1956 11.6343 21.529 11.8027C23.3624 11.8027 25.1958 12.6447 26.5292 13.8234C28.1959 15.3389 29.1959 17.528 29.1959 19.7171V43.2918C29.1959 43.4603 29.1959 43.4601 29.1959 43.6287C29.1959 45.4809 29.5293 47.1648 30.196 48.8487C30.8627 50.3642 31.8627 51.8798 33.0294 53.0585C34.1961 54.2372 35.6962 55.2476 37.1962 55.9213C38.863 56.5948 40.5297 56.9315 42.3631 56.9315C44.1965 56.9315 45.8632 56.5948 47.53 55.9213C49.1967 55.2476 50.5301 54.2372 51.6968 53.0585C52.8635 51.8798 53.8635 50.3642 54.5302 48.8487C55.1969 47.3333 55.5303 45.8177 55.5303 44.3022C55.5303 44.1338 55.5303 44.1338 55.5303 43.9653V9.10842C55.8636 7.59289 54.6969 6.58255 53.3635 6.41415Z" fill="#A09DFF"/>
</svg>
