<svg width="65" height="67" viewBox="0 0 65 67" fill="none" xmlns="http://www.w3.org/2000/svg">
<path d="M56.1889 17.1129C56.1889 21.7145 54.3236 25.8802 51.3081 28.8957C48.2926 31.9112 44.126 33.7766 39.5253 33.7766H29.9834C29.9446 33.7766 29.9068 33.7766 29.8681 33.7766V46.1052C29.8681 47.7093 28.5675 49.009 26.9642 49.009H15.4859C13.8826 49.009 12.582 47.7093 12.582 46.1052V39.6824L14.5176 36.7074C16.0335 33.8549 16.3262 30.4161 15.1454 27.261L16.2956 26.6197L20.6549 24.1923C22.8562 26.4134 26.2374 27.1367 29.1962 25.9072L26.6643 21.3605C26.4175 20.9174 26.5761 20.3581 27.0201 20.1113C27.2417 19.9879 27.4921 19.9663 27.719 20.0302C27.9442 20.0951 28.146 20.2455 28.2694 20.4671L29.869 23.3385L30.8264 25.0579L32.2603 24.2599L29.869 19.9654C29.869 19.9654 29.56 19.3052 29.56 19.1214C29.56 18.9539 29.869 18.5603 29.869 18.5603C29.9239 18.5063 29.9879 18.4585 30.0581 18.4198C30.2797 18.2964 30.531 18.2739 30.7571 18.3387C30.9831 18.4027 31.1849 18.554 31.3083 18.7747L33.8653 23.3664L35.2992 22.5675L32.7422 17.9767C32.4954 17.5335 32.6539 16.9742 33.097 16.7274C33.3186 16.6049 33.5699 16.5824 33.796 16.6472C34.0221 16.7112 34.2238 16.8625 34.3472 17.0832L36.9043 21.674L37.723 21.2182C39.6081 20.168 40.8898 18.4531 41.4374 16.5301C41.9851 14.6063 41.7986 12.4734 40.7484 10.5883C38.6489 6.818 33.8897 5.46336 30.1185 7.56377L29.8699 7.70158L22.4032 11.8601C19.2715 13.6047 17.806 17.1831 18.6031 20.5067L14.3456 22.8782L12.9738 23.642C12.8468 23.4988 12.7171 23.3592 12.5838 23.2223V3.35304C12.5838 1.74891 13.8844 0.449219 15.4877 0.449219H39.5271C48.7303 0.449219 56.1907 7.90964 56.1907 17.1129H56.1889Z" fill="#F4F4F4"/>
<path d="M9.28766 61.239C9.28766 61.5848 9.24532 61.8929 9.15976 62.1649C9.07419 62.4369 8.9589 62.6765 8.81389 62.8836C8.66798 63.0917 8.50045 63.2691 8.31041 63.4159C8.12036 63.5637 7.92131 63.6834 7.71415 63.7771C7.50699 63.8708 7.29713 63.9383 7.08547 63.9807C6.87381 64.023 6.67475 64.0446 6.48921 64.0446H3.06569V62.5315H6.48831C6.68196 62.5161 6.85759 62.4765 7.01522 62.4126C7.17284 62.3486 7.30704 62.2622 7.41962 62.1532C7.53221 62.0442 7.61958 61.9136 7.68173 61.7605C7.74387 61.6074 7.7745 61.4335 7.7745 61.2399V60.5526C7.75468 60.3626 7.71415 60.1879 7.652 60.0284C7.58986 59.869 7.50519 59.7339 7.39891 59.6213C7.29173 59.5087 7.16293 59.4205 7.01161 59.3565C6.8603 59.2926 6.68556 59.2602 6.48741 59.2602H3.0774C2.87564 59.2602 2.72253 59.3124 2.61715 59.4169C2.51267 59.5214 2.46042 59.6727 2.46042 59.8708V66.0928H0.947266V59.8708C0.947266 59.4826 1.01842 59.153 1.15983 58.881C1.30124 58.609 1.47777 58.3901 1.68943 58.2235C1.9011 58.0568 2.13077 57.9352 2.37936 57.8596C2.62795 57.7839 2.85673 57.7461 3.06659 57.7461H6.48921C6.83057 57.7461 7.13681 57.7902 7.40882 57.8767C7.67992 57.9641 7.92041 58.0803 8.12757 58.2262C8.33473 58.3721 8.51216 58.5396 8.65717 58.7296C8.80308 58.9197 8.92288 59.1187 9.01835 59.3259C9.11382 59.534 9.18228 59.7429 9.22461 59.9546C9.26694 60.1663 9.28856 60.3653 9.28856 60.5508V61.2381L9.28766 61.239Z" fill="#F4F4F4"/>
<path d="M18.7705 66.0928H17.2574V64.0437H11.937V66.0928H10.4238V61.9199C10.4238 61.311 10.5283 60.7499 10.7382 60.2374C10.948 59.7249 11.239 59.2845 11.6109 58.9161C11.9838 58.5477 12.4243 58.2604 12.9323 58.055C13.4402 57.8497 13.9951 57.7461 14.5967 57.7461H18.0076C18.1121 57.7461 18.2112 57.7659 18.3049 57.8046C18.3976 57.8434 18.4796 57.8974 18.549 57.9677C18.6192 58.0379 18.6732 58.119 18.712 58.2117C18.7507 58.3045 18.7705 58.4036 18.7705 58.509V66.0928ZM11.937 62.5306H17.2574V59.2593H14.5976C14.5508 59.2593 14.4526 59.2665 14.304 59.28C14.1545 59.2935 13.9816 59.3277 13.7861 59.3817C13.5898 59.4358 13.3835 59.5196 13.1664 59.6321C12.9494 59.7447 12.7494 59.8996 12.5666 60.0978C12.3837 60.2959 12.2342 60.5427 12.1153 60.84C11.9964 61.1372 11.9379 61.4966 11.9379 61.9199V62.5315L11.937 62.5306Z" fill="#F4F4F4"/>
<path d="M28.8462 61.239C28.8462 61.5848 28.8039 61.8929 28.7184 62.1649C28.6328 62.4369 28.5175 62.6765 28.3725 62.8836C28.2266 63.0917 28.059 63.2691 27.869 63.4159C27.679 63.5637 27.4799 63.6834 27.2727 63.7771C27.0656 63.8708 26.8557 63.9383 26.6441 63.9807C26.4324 64.023 26.2333 64.0446 26.0478 64.0446H22.6252V62.5315H26.0478C26.2415 62.5161 26.4171 62.4765 26.5747 62.4126C26.7323 62.3486 26.8665 62.2622 26.9791 62.1532C27.0917 62.0442 27.1791 61.9136 27.2412 61.7605C27.3034 61.6074 27.334 61.4335 27.334 61.2399V60.5526C27.3142 60.3626 27.2736 60.1879 27.2115 60.0284C27.1493 59.869 27.0647 59.7339 26.9584 59.6213C26.8512 59.5087 26.7224 59.4205 26.5711 59.3565C26.4198 59.2926 26.2451 59.2602 26.0469 59.2602H22.636C22.4342 59.2602 22.2811 59.3124 22.1757 59.4169C22.0713 59.5214 22.019 59.6727 22.019 59.8708V66.0928H20.5059V59.8708C20.5059 59.4826 20.577 59.153 20.7184 58.881C20.8598 58.609 21.0364 58.3901 21.248 58.2235C21.4597 58.0568 21.6894 57.9352 21.938 57.8596C22.1865 57.7839 22.4153 57.7461 22.6252 57.7461H26.0478C26.3892 57.7461 26.6954 57.7902 26.9674 57.8767C27.2385 57.9641 27.479 58.0803 27.6862 58.2262C27.8933 58.3721 28.0708 58.5396 28.2158 58.7296C28.3617 58.9197 28.4815 59.1187 28.5769 59.3259C28.6724 59.534 28.7409 59.7429 28.7832 59.9546C28.8255 60.1663 28.8472 60.3653 28.8472 60.5508V61.2381L28.8462 61.239Z" fill="#F4F4F4"/>
<path d="M38.8972 62.7169C38.8972 63.2249 38.8098 63.6933 38.6351 64.1193C38.4604 64.5462 38.2181 64.9146 37.9074 65.2253C37.5966 65.5361 37.2291 65.7774 36.804 65.9504C36.3789 66.1233 35.9159 66.2098 35.416 66.2098H33.367C32.8662 66.2098 32.4023 66.1233 31.9763 65.9504C31.5494 65.7774 31.181 65.5361 30.8703 65.2253C30.5595 64.9146 30.3163 64.5462 30.1398 64.1193C29.9633 63.6924 29.875 63.2249 29.875 62.7169V61.1218C29.875 60.6174 29.9633 60.1508 30.1398 59.7221C30.3163 59.2934 30.5595 58.925 30.8703 58.6161C31.181 58.3071 31.5494 58.0657 31.9763 57.891C32.4032 57.7163 32.8671 57.6289 33.367 57.6289H35.416C35.9168 57.6289 36.3789 57.7163 36.804 57.891C37.2291 58.0657 37.5966 58.3071 37.9074 58.6161C38.2181 58.925 38.4604 59.2934 38.6351 59.7221C38.8098 60.1508 38.8972 60.6174 38.8972 61.1218V62.7169ZM37.3841 61.1218C37.3841 60.8228 37.3363 60.5525 37.2417 60.3103C37.1463 60.068 37.013 59.8599 36.84 59.6879C36.6671 59.515 36.4599 59.3816 36.2168 59.2862C35.9745 59.1916 35.7079 59.1439 35.416 59.1439H33.367C33.0724 59.1439 32.8031 59.1916 32.5609 59.2862C32.3186 59.3816 32.1096 59.515 31.9349 59.6879C31.7601 59.8608 31.625 60.068 31.5305 60.3103C31.435 60.5525 31.3882 60.8237 31.3882 61.1218V62.7169C31.3882 63.0159 31.4359 63.2861 31.5305 63.5284C31.6259 63.7707 31.7601 63.9788 31.9349 64.1517C32.1096 64.3246 32.3177 64.4579 32.5609 64.5534C32.8031 64.6489 33.0724 64.6957 33.367 64.6957H35.4043C35.6989 64.6957 35.9682 64.648 36.2105 64.5534C36.4527 64.4579 36.6617 64.3246 36.8364 64.1517C37.0112 63.9788 37.1463 63.7716 37.2408 63.5284C37.3363 63.2861 37.3832 63.015 37.3832 62.7169V61.1218H37.3841Z" fill="#F4F4F4"/>
<path d="M50.1065 66.0918H48.5817V61.1209L45.8985 65.8414C45.8327 65.9621 45.74 66.0531 45.622 66.1152C45.504 66.1774 45.3761 66.208 45.241 66.208C45.1059 66.208 44.9861 66.1765 44.8717 66.1152C44.7573 66.0531 44.6673 65.9621 44.6006 65.8414L41.9057 61.1209V66.0918H40.3926V58.3909C40.3926 58.2162 40.4439 58.0613 40.5466 57.9253C40.6493 57.7892 40.7844 57.6983 40.951 57.6514C41.0321 57.6325 41.114 57.6253 41.1951 57.6307C41.2762 57.6361 41.3554 57.6541 41.4311 57.683C41.5067 57.7118 41.5752 57.7532 41.6373 57.8055C41.6995 57.8577 41.7517 57.9207 41.7941 57.9946L45.2401 63.9842L48.6861 57.9946C48.7753 57.8469 48.8987 57.7424 49.0554 57.6803C49.2121 57.6181 49.3761 57.6082 49.5472 57.6514C49.7102 57.6983 49.8444 57.7892 49.9489 57.9253C50.0534 58.0613 50.1056 58.2162 50.1056 58.3909V66.0918H50.1065Z" fill="#F4F4F4"/>
<path d="M53.3901 66.0928H51.877V57.7461H53.3901V66.0928Z" fill="#F4F4F4"/>
<path d="M61.3889 61.4296L60.3594 60.2191L62.4391 57.707H64.5089L61.3889 61.4296Z" fill="#8785FF"/>
<path d="M58.4385 62.3477L59.468 63.5582L57.3667 66.0918H55.2969L58.4394 62.3477H58.4385Z" fill="#8785FF"/>
<path d="M59.895 60.7009L60.9245 61.9115L64.5093 66.0925H62.4449L59.895 63.122L58.8655 61.9115L55.2754 57.707H57.3335L59.895 60.7009Z" fill="#F4F4F4"/>
<path d="M56.1909 17.1129C56.1909 21.7145 54.3256 25.8802 51.3101 28.8957C48.2945 31.9112 44.128 33.7766 39.5272 33.7766H29.9853C29.9466 33.7766 29.9088 33.7766 29.87 33.7766V46.1052C29.87 47.7093 28.5694 49.009 26.9662 49.009H15.4878C13.8846 49.009 12.584 47.7093 12.584 46.1052V39.6824L14.5196 36.7074C16.0354 33.8549 16.3282 30.4161 15.1473 27.261L16.2975 26.6197L20.6569 24.1923C22.8582 26.4134 26.2393 27.1367 29.1981 25.9072L26.6663 21.3605C26.4195 20.9174 26.578 20.3581 27.022 20.1113C27.2436 19.9879 27.494 19.9663 27.721 20.0302C27.9462 20.0951 28.1479 20.2455 28.2713 20.4671L29.8709 23.3385L30.8284 25.0579L32.2623 24.2599L29.8709 19.9654C29.8709 19.9654 29.6431 19.4376 29.6259 19.1124C29.6088 18.7873 29.8709 18.5594 29.8709 18.5594C29.9259 18.5054 29.9898 18.4576 30.0601 18.4189C30.2816 18.2955 30.5329 18.273 30.759 18.3378C30.9851 18.4018 31.1868 18.5531 31.3102 18.7738L33.8673 23.3655L35.3012 22.5666L32.7441 17.9757C32.4973 17.5326 32.6559 16.9733 33.099 16.7265C33.3206 16.604 33.5719 16.5815 33.7979 16.6463C34.024 16.7103 34.2258 16.8616 34.3492 17.0823L36.9062 21.6731L37.7249 21.2173C39.6101 20.1671 40.8918 18.4522 41.4394 16.5292C41.987 14.6054 41.8006 12.4725 40.7504 10.5874C38.6509 6.8171 33.8916 5.46246 30.1204 7.56287L29.8718 7.70068L22.4051 11.8592C19.2734 13.6038 17.808 17.1822 18.6051 20.5058L14.3475 22.8773L12.9758 23.6411C12.8488 23.4979 12.7191 23.3583 12.5858 23.2214V3.35304C12.5858 1.74891 13.8864 0.449219 15.4896 0.449219H39.529C48.7323 0.449219 56.1927 7.90964 56.1927 17.1129H56.1909Z" fill="#8785FF"/>
</svg>
