<svg width="46" height="46" viewBox="0 0 46 46" fill="none" xmlns="http://www.w3.org/2000/svg">
<path fill-rule="evenodd" clip-rule="evenodd" d="M16.5184 29.0244C21.7313 34.2364 25.6655 36.6849 28.594 37.7329C31.5901 38.8051 33.4776 38.3897 34.4644 38.0571C35.0283 37.867 35.4679 37.4834 35.7799 37.1498C36.1089 36.7978 36.4035 36.3837 36.6579 35.9775C37.1675 35.1636 37.6021 34.2415 37.8968 33.5623C38.4541 32.2775 37.9147 30.8556 36.7882 30.1797L31.3574 26.9211C30.2687 26.268 28.8751 26.4395 27.9774 27.3373L26.9644 28.3502C25.9237 27.8271 23.8855 26.6085 21.4069 24.1305C18.9289 21.6519 17.7103 19.6137 17.1872 18.5731L18.2002 17.5601C19.098 16.6624 19.2695 15.2688 18.6163 14.1801L15.3578 8.74917C14.682 7.62282 13.2599 7.08338 11.9752 7.64071C11.296 7.93539 10.3739 8.36996 9.56001 8.87961C9.15373 9.13403 8.73967 9.42854 8.38775 9.75754C8.05402 10.0695 7.67048 10.5091 7.48039 11.073C7.14773 12.0599 6.73237 13.9473 7.80459 16.9436C8.85253 19.872 11.3011 23.8061 16.513 29.019L16.5184 29.0244Z" fill="#59597F"/>
</svg>
