<svg width="47" height="47" viewBox="0 0 47 47" fill="none" xmlns="http://www.w3.org/2000/svg">
<path d="M23.1719 12.4005C11.9866 12.4005 3.22339 17.1473 3.22339 23.2059C3.22339 29.2644 11.9866 34.0114 23.1719 34.0114C34.3572 34.0114 43.1204 29.2644 43.1204 23.2059C43.1204 17.1473 34.3572 12.4005 23.1719 12.4005ZM21.1004 15.7252H23.2791L22.5874 19.05H24.5324C25.7661 19.05 26.5941 19.2221 27.0649 19.6539C27.5258 20.0791 27.6655 20.7773 27.4805 21.7285L26.6169 25.6995H24.4024L25.198 22.0273C25.2953 21.5241 25.2564 21.1733 25.0875 20.9883C24.9187 20.8033 24.5485 20.7123 23.9933 20.7123H22.2498L21.1978 25.6995H19.016L21.1004 15.7252ZM11.5353 19.05H15.9672C18.0809 19.05 19.3601 20.4656 18.8601 22.5792C18.2789 25.0339 16.7205 25.6995 13.8568 25.6995H12.4866L12.0515 28.193H9.85017L11.5353 19.05ZM28.9902 19.05H33.4221C35.5358 19.05 36.815 20.4656 36.315 22.5792C35.7338 25.0339 34.1754 25.6995 31.3117 25.6995H29.9416L29.5064 28.193H27.3051L28.9902 19.05ZM13.4217 20.7123L12.795 24.0371H14.2172C15.4477 24.0371 16.5906 23.8975 16.7822 22.063C16.8536 21.352 16.5581 20.7123 15.136 20.7123H13.4217ZM30.8767 20.7123L30.25 24.0371H31.6721C32.9026 24.0371 34.0455 23.8975 34.237 22.063C34.3085 21.352 34.0131 20.7123 32.5909 20.7123H30.8767Z" fill="#59597F"/>
</svg>
