<svg width="47" height="47" viewBox="0 0 47 47" fill="none" xmlns="http://www.w3.org/2000/svg">
<g clip-path="url(#clip0_464_670)">
<path d="M43.5251 36.9365V15.057C43.5251 12.55 41.4739 10.4988 38.9668 10.4988H33.497V3.20564C33.497 1.70142 32.2662 0.470703 30.762 0.470703H16.1757C14.6715 0.470703 13.4408 1.70142 13.4408 3.20564V10.4988H7.9709C5.46387 10.4988 3.41267 12.55 3.41267 15.057V36.9365C1.90846 36.9365 0.677734 38.1672 0.677734 39.6714V43.318C0.677734 44.8222 1.90846 46.053 3.41267 46.053H43.5251C45.0293 46.053 46.26 44.8222 46.26 43.318V39.6714C46.26 38.1672 45.0293 36.9365 43.5251 36.9365ZM14.6487 27.387C15.4008 27.8884 16.358 28.0024 17.2013 27.6605L23.4689 25.1535L29.7364 27.6605C30.0555 27.7973 30.4202 27.8656 30.762 27.8656C31.309 27.8656 31.8332 27.7061 32.289 27.387C33.0411 26.8856 33.497 26.0423 33.497 25.1307V15.9687H37.1435C37.6449 15.9687 38.0552 16.3789 38.0552 16.8803V32.3783C38.0552 32.8797 37.6449 33.2899 37.1435 33.2899H9.79419C9.29278 33.2899 8.88254 32.8797 8.88254 32.3783V16.8803C8.88254 16.3789 9.29278 15.9687 9.79419 15.9687H13.4408V25.1307C13.4408 26.0423 13.8966 26.8856 14.6487 27.387ZM15.2641 3.20564C15.2641 2.70423 15.6743 2.29399 16.1757 2.29399H30.762C31.2634 2.29399 31.6737 2.70423 31.6737 3.20564V25.1307C31.6737 25.427 31.5369 25.7233 31.2634 25.8828C31.0127 26.0651 30.6937 26.0879 30.4202 25.974L23.8107 23.3302C23.5828 23.239 23.3549 23.239 23.127 23.3302L16.5176 25.974C16.2213 26.0879 15.925 26.0651 15.6743 25.8828C15.4236 25.7005 15.2641 25.427 15.2641 25.1307V3.20564ZM5.23596 15.057C5.23596 13.5528 6.46668 12.3221 7.9709 12.3221H13.4408V14.1454H9.79419C8.28997 14.1454 7.05925 15.3761 7.05925 16.8803V32.3783C7.05925 33.8825 8.28997 35.1132 9.79419 35.1132H37.1435C38.6478 35.1132 39.8785 33.8825 39.8785 32.3783V16.8803C39.8785 15.3761 38.6478 14.1454 37.1435 14.1454H33.497V12.3221H38.9668C40.471 12.3221 41.7018 13.5528 41.7018 15.057V36.9365H31.0355C30.7164 36.9365 30.3974 37.1188 30.2378 37.3923L28.4145 40.5831H18.5232L16.6999 37.3923C16.5404 37.1188 16.2441 36.9365 15.9022 36.9365H5.23596V15.057ZM44.4367 43.318C44.4367 43.8194 44.0265 44.2297 43.5251 44.2297H3.41267C2.91127 44.2297 2.50102 43.8194 2.50102 43.318V39.6714C2.50102 39.17 2.91127 38.7598 3.41267 38.7598H15.378L17.2013 41.9506C17.3608 42.2241 17.6571 42.4064 17.999 42.4064H28.9387C29.2578 42.4064 29.5769 42.2241 29.7364 41.9506L31.5597 38.7598H43.5251C44.0265 38.7598 44.4367 39.17 44.4367 39.6714V43.318Z" fill="#827FE3"/>
<path d="M40.7964 42.4092C41.2978 42.4092 41.7081 41.999 41.7081 41.4976C41.7081 40.9962 41.2978 40.5859 40.7964 40.5859C40.295 40.5859 39.8848 40.9962 39.8848 41.4976C39.8848 41.999 40.295 42.4092 40.7964 42.4092Z" fill="#827FE3"/>
<path d="M37.148 42.4092C37.6494 42.4092 38.0596 41.999 38.0596 41.4976C38.0596 40.9962 37.6494 40.5859 37.148 40.5859C36.6466 40.5859 36.2363 40.9962 36.2363 41.4976C36.2363 41.999 36.6466 42.4092 37.148 42.4092Z" fill="#827FE3"/>
<path d="M20.7583 14.845L21.0773 15.0502M20.7583 14.845C20.0973 15.8934 19.6871 16.486 19.3452 16.8279C19.1857 16.9874 19.0717 17.0786 18.9578 17.1242C18.8666 17.1697 18.7526 17.1925 18.6159 17.1925H18.5931C18.388 17.1925 18.2057 17.1242 18.0689 16.919C17.9094 16.6911 17.7954 16.3265 17.7954 15.7567C17.7954 14.5488 18.0917 13.3408 18.5703 12.4064C18.7982 11.9506 19.0717 11.5859 19.3452 11.3352C19.6187 11.0845 19.8922 10.9705 20.1429 10.9705C20.7127 10.9705 21.2597 11.2668 22.1941 12.5659C21.7611 13.2269 21.4192 13.7739 21.1685 14.1613C21.0318 14.3664 20.9178 14.526 20.8494 14.6399L20.7583 14.7767V14.8222V14.845ZM22.6955 16.0758C21.875 17.5116 21.2141 18.4232 20.5759 18.9702C19.915 19.54 19.2768 19.7223 18.5703 19.7223C17.5903 19.7223 16.7698 19.3121 16.2228 18.6056C15.6758 17.9218 15.4023 16.919 15.4023 15.7795C15.4023 13.9562 15.881 12.1785 16.7242 10.8338C17.5447 9.51192 18.7754 8.55469 20.2113 8.55469C21.4648 8.55469 22.536 9.14726 23.6527 10.4919V10.5147C24.4732 9.48912 25.4304 8.57748 26.7751 8.57748C28.1198 8.57748 29.3049 9.44354 30.1482 10.7426C30.9915 12.0417 31.5157 13.7966 31.5385 15.7339C31.5385 16.8962 31.2878 17.8991 30.7864 18.6284C30.285 19.3805 29.5101 19.7907 28.53 19.7907C27.7096 19.7907 27.0258 19.5628 26.3877 18.9702C25.7723 18.4005 25.1569 17.5116 24.4276 16.2581L23.6527 14.9362C23.5844 14.8222 23.5388 14.7311 23.4932 14.6399C23.3337 14.9134 23.1969 15.1641 23.0602 15.392C22.9462 15.5971 22.855 15.7795 22.7867 15.8934C22.7411 15.939 22.6955 15.9846 22.6955 16.0302V16.0758ZM22.6955 16.0758L22.3536 15.8934M26.3421 14.6399L25.4076 13.1129C25.2253 12.8166 25.0202 12.4976 24.8379 12.2469C24.8379 12.2469 24.8379 12.2469 24.8379 12.2241C25.1797 11.7227 25.476 11.3352 25.7723 11.0845C26.0914 10.811 26.3649 10.6971 26.6612 10.6971C27.2765 10.6971 27.9147 11.1529 28.4161 12.1101C28.9175 13.0445 29.2366 14.3664 29.2366 15.8478C29.2366 16.3948 29.1454 16.7595 29.0086 16.9874C28.8947 17.1925 28.7352 17.2837 28.4845 17.2837C28.3477 17.2837 28.2337 17.2837 28.1654 17.2153C28.0742 17.1697 27.9603 17.0786 27.8007 16.8962C27.5044 16.5316 27.1398 15.939 26.5016 14.9134C26.456 14.845 26.4105 14.7539 26.3649 14.6855L26.3421 14.6399Z" stroke="#827FE3" stroke-width="0.5"/>
</g>
<defs>
<clipPath id="clip0_464_670">
<rect width="45.5823" height="45.5823" fill="white" transform="translate(0.677734 0.470703)"/>
</clipPath>
</defs>
</svg>
