<svg width="47" height="46" viewBox="0 0 47 46" fill="none" xmlns="http://www.w3.org/2000/svg">
<path d="M43.2907 36.6689V14.7894C43.2907 12.2762 41.2457 10.2312 38.7325 10.2312H33.2626V2.93806C33.2626 1.42993 32.0358 0.203125 30.5276 0.203125H15.9413C14.4332 0.203125 13.2064 1.42993 13.2064 2.93806V10.2312H7.73652C5.22326 10.2312 3.17829 12.2762 3.17829 14.7894V36.6689C1.67016 36.6689 0.443359 37.8957 0.443359 39.4039V43.0504C0.443359 44.5586 1.67016 45.7854 3.17829 45.7854H43.2907C44.7988 45.7854 46.0256 44.5586 46.0256 43.0504V39.4039C46.0256 37.8957 44.7988 36.6689 43.2907 36.6689ZM14.4083 27.1243C15.1597 27.6335 16.114 27.7359 16.9571 27.3994L23.2345 24.8879L29.5118 27.3994C29.8403 27.5302 30.1849 27.5952 30.5276 27.5952C31.0672 27.5952 31.6013 27.4359 32.0607 27.1243C32.8139 26.615 33.2626 25.7684 33.2626 24.8594V15.7011H36.9092C37.4122 15.7011 37.8208 16.1097 37.8208 16.6127V32.1107C37.8208 32.6137 37.4122 33.0224 36.9092 33.0224H9.55981C9.0568 33.0224 8.64817 32.6137 8.64817 32.1107V16.6127C8.64817 16.1097 9.0568 15.7011 9.55981 15.7011H13.2064V24.8594C13.2064 25.7684 13.6551 26.615 14.4083 27.1243ZM15.0297 2.93806C15.0297 2.43505 15.4383 2.02642 15.9413 2.02642H30.5276C31.0307 2.02642 31.4393 2.43505 31.4393 2.93806V24.8594C31.4393 25.1665 31.2933 25.4425 31.0387 25.6143C30.784 25.7871 30.4751 25.82 30.1885 25.706L23.5728 23.0592C23.3556 22.972 23.1134 22.972 22.8962 23.0592L16.2805 25.706C15.9947 25.82 15.6858 25.7871 15.4303 25.6143C15.1757 25.4425 15.0297 25.1665 15.0297 24.8594V2.93806ZM5.00159 14.7894C5.00159 13.2813 6.22839 12.0545 7.73652 12.0545H13.2064V13.8778H9.55981C8.05168 13.8778 6.82488 15.1046 6.82488 16.6127V32.1107C6.82488 33.6188 8.05168 34.8456 9.55981 34.8456H36.9092C38.4173 34.8456 39.6441 33.6188 39.6441 32.1107V16.6127C39.6441 15.1046 38.4173 13.8778 36.9092 13.8778H33.2626V12.0545H38.7325C40.2406 12.0545 41.4674 13.2813 41.4674 14.7894V36.6689H30.7921C30.4653 36.6689 30.1635 36.8443 30.0006 37.1274L28.1755 40.3155H18.2934L16.4684 37.1274C16.3054 36.8443 16.0036 36.6689 15.6769 36.6689H5.00159V14.7894ZM44.2023 43.0504C44.2023 43.5535 43.7937 43.9621 43.2907 43.9621H3.17829C2.67529 43.9621 2.26665 43.5535 2.26665 43.0504V39.4039C2.26665 38.9009 2.67529 38.4922 3.17829 38.4922H15.1481L16.9732 41.6803C17.1361 41.9634 17.4379 42.1388 17.7646 42.1388H28.7044C29.0311 42.1388 29.3329 41.9634 29.4958 41.6803L31.3209 38.4922H43.2907C43.7937 38.4922 44.2023 38.9009 44.2023 39.4039V43.0504Z" fill="#827FE3"/>
<path d="M40.562 42.1436C41.0655 42.1436 41.4737 41.7354 41.4737 41.232C41.4737 40.7285 41.0655 40.3203 40.562 40.3203C40.0585 40.3203 39.6504 40.7285 39.6504 41.232C39.6504 41.7354 40.0585 42.1436 40.562 42.1436Z" fill="#827FE3"/>
<path d="M36.9136 42.1436C37.4171 42.1436 37.8252 41.7354 37.8252 41.232C37.8252 40.7285 37.4171 40.3203 36.9136 40.3203C36.4101 40.3203 36.002 40.7285 36.002 41.232C36.002 41.7354 36.4101 42.1436 36.9136 42.1436Z" fill="#827FE3"/>
<path d="M19.5248 14.3299C19.5248 14.3299 18.9574 17.7898 18.9551 17.8037C18.8342 18.5405 19.6375 19.1103 20.2932 18.751L23.2346 17.136L26.1762 18.751C26.8247 19.1071 27.6345 18.5374 27.5142 17.8037L26.9444 14.3299C26.9444 14.3299 29.3474 11.8842 29.3544 11.8772C29.8636 11.3589 29.5595 10.4447 28.8416 10.337L25.5422 9.83575C25.5422 9.83575 24.0628 6.7064 24.059 6.69842C23.7357 6.01444 22.733 6.01475 22.4102 6.69841L20.927 9.83575C20.927 9.83575 17.642 10.3348 17.6277 10.337C16.9045 10.4468 16.6029 11.3557 17.1149 11.8772L19.5248 14.3299ZM21.6811 11.5655C21.9811 11.5201 22.2384 11.3287 22.3684 11.0545L23.2346 9.22145L24.1009 11.0545C24.2309 11.3287 24.4881 11.5201 24.7882 11.5656L26.8038 11.8718L25.3197 13.3817C25.1158 13.5892 25.0232 13.8821 25.0704 14.1687L25.4123 16.2511L23.6735 15.2967C23.5364 15.2219 23.386 15.1845 23.2346 15.1845C23.0833 15.1845 22.9328 15.2219 22.7957 15.2967L21.057 16.2511L21.3989 14.1687C21.4461 13.8821 21.3535 13.5892 21.1496 13.3817L19.6655 11.8718L21.6811 11.5655Z" fill="#827FE3"/>
</svg>
