<svg width="47" height="47" viewBox="0 0 47 47" fill="none" xmlns="http://www.w3.org/2000/svg">
<path fill-rule="evenodd" clip-rule="evenodd" d="M17.3684 8.43334C16.2996 8.12324 15.5067 8.2064 14.9299 8.5188C14.3532 8.83123 13.8504 9.44988 13.5262 10.5146C13.1997 11.587 13.0882 13.0188 13.2469 14.7475C13.2726 15.0276 13.3053 15.3138 13.3448 15.6056C14.7448 15.2498 16.2492 14.9688 17.83 14.7726C18.9259 13.2372 20.0754 11.8527 21.2415 10.652C21.1831 10.6047 21.1247 10.5579 21.0665 10.5118C19.7052 9.43449 18.4451 8.74571 17.3684 8.43334ZM23.2139 8.81041C23.0515 8.67424 22.8892 8.54192 22.727 8.41359C21.1965 7.20238 19.6292 6.3031 18.114 5.86351C16.5911 5.42166 15.0278 5.42261 13.6555 6.166C12.2831 6.90938 11.4283 8.21825 10.9664 9.73523C10.5069 11.2444 10.4039 13.0485 10.5823 14.9921C10.6241 15.4477 10.6817 15.9146 10.755 16.3914C10.3009 16.5541 9.86292 16.7258 9.44247 16.906C7.64852 17.6748 6.1113 18.6247 5.00311 19.7475C3.88925 20.8762 3.14551 22.2512 3.14551 23.812C3.14551 25.3728 3.88925 26.7478 5.00311 27.8764C6.1113 28.9993 7.64852 29.9491 9.44247 30.7181C9.86292 30.8982 10.3008 31.0699 10.7549 31.2326C10.6817 31.7095 10.6241 32.1764 10.5823 32.6321C10.4038 34.5755 10.5069 36.3796 10.9664 37.889C11.4282 39.4059 12.283 40.7146 13.6554 41.458C15.0278 42.2016 16.5911 42.2024 18.114 41.7606C19.6291 41.321 21.1965 40.4216 22.7269 39.2106C22.8891 39.0821 23.0515 38.9499 23.2139 38.8137C23.3764 38.9499 23.5387 39.0821 23.7009 39.2106C25.2314 40.4216 26.7987 41.321 28.3139 41.7606C29.8368 42.2024 31.3999 42.2016 32.7724 41.458C34.1448 40.7146 34.9997 39.4059 35.4615 37.889C35.921 36.3796 36.024 34.5755 35.8455 32.6321C35.8038 32.1764 35.7462 31.7095 35.6729 31.2326C36.127 31.0699 36.565 30.8982 36.9857 30.7181C38.7795 29.9491 40.3168 28.9993 41.4251 27.8764C42.5388 26.7478 43.2827 25.3728 43.2827 23.812C43.2827 22.2512 42.5388 20.8762 41.4251 19.7475C40.3168 18.6247 38.7795 17.6748 36.9857 16.906C36.565 16.7258 36.127 16.554 35.6729 16.3913C35.746 15.9145 35.8038 15.4476 35.8455 14.9921C36.024 13.0485 35.921 11.2444 35.4615 9.73523C34.9997 8.21825 34.1448 6.90938 32.7724 6.166C31.3999 5.42261 29.8367 5.42166 28.3138 5.86351C26.7987 6.3031 25.2313 7.20238 23.7008 8.41359C23.5387 8.54192 23.3763 8.67424 23.2139 8.81041ZM23.2139 12.462C22.6124 13.0779 22.0104 13.7529 21.4152 14.4821C22.0083 14.4586 22.6083 14.4467 23.2141 14.4467C23.8198 14.4467 24.4197 14.4586 25.0127 14.4821C24.4175 13.7529 23.8155 13.0779 23.2139 12.462ZM28.5978 14.7726C27.5019 13.2372 26.3525 11.8526 25.1863 10.652C25.2448 10.6047 25.3031 10.5579 25.3614 10.5118C26.7227 9.43449 27.9828 8.74571 29.0594 8.43334C30.1284 8.12324 30.9212 8.2064 31.4979 8.5188C32.0748 8.83123 32.5776 9.44988 32.9016 10.5146C33.228 11.587 33.3396 13.0188 33.1809 14.7475C33.1553 15.0276 33.1226 15.3138 33.083 15.6055C31.683 15.2497 30.1787 14.9687 28.5978 14.7726ZM27.0923 17.3003C25.8471 17.1842 24.5496 17.1225 23.2141 17.1225C21.8785 17.1225 20.5809 17.1842 19.3356 17.3004C18.6403 18.34 17.968 19.4515 17.3319 20.6259C16.7526 21.6953 16.2333 22.7614 15.7744 23.812C16.2334 24.8627 16.7526 25.9287 17.3319 26.9982C17.968 28.1725 18.6403 29.2841 19.3355 30.3237C20.5808 30.4398 21.8785 30.5016 23.2141 30.5016C24.5496 30.5016 25.8471 30.4398 27.0923 30.3237C27.7875 29.2841 28.4598 28.1726 29.0959 26.9982C29.6752 25.9287 30.1945 24.8627 30.6534 23.812C30.1945 22.7614 29.6752 21.6953 29.096 20.6259C28.4598 19.4515 27.7875 18.3399 27.0923 17.3003ZM31.9715 20.3455C31.8024 20.0141 31.6282 19.6826 31.4489 19.3514C31.1602 18.8188 30.864 18.2969 30.5608 17.7866C31.2581 17.9193 31.93 18.0701 32.5735 18.2373C32.4044 18.922 32.2037 19.6262 31.9715 20.3455ZM31.9715 27.2785C31.8024 27.6099 31.6282 27.9414 31.4486 28.2727C31.1602 28.8053 30.864 29.3271 30.5608 29.8374C31.2581 29.7046 31.93 29.5538 32.5735 29.3866C32.4044 28.702 32.2037 27.9977 31.9715 27.2785ZM35.1303 28.5811C34.7423 27.0461 34.2154 25.4434 33.5558 23.812C34.2154 22.1806 34.7423 20.5779 35.1303 19.0428C35.4059 19.147 35.6729 19.2546 35.9317 19.3655C37.5273 20.0493 38.733 20.8292 39.5205 21.6271C40.3024 22.4193 40.6069 23.156 40.6069 23.812C40.6069 24.4679 40.3024 25.2047 39.5205 25.9968C38.733 26.7947 37.5273 27.5747 35.9317 28.2585C35.6729 28.3693 35.4059 28.477 35.1303 28.5811ZM33.083 32.0185C31.683 32.3741 30.1787 32.6554 28.5978 32.8515C27.502 34.3869 26.3525 35.7713 25.1863 36.972C25.2448 37.0193 25.3031 37.0662 25.3615 37.1122C26.7227 38.1895 27.9828 38.8785 29.0595 39.1908C30.1284 39.5009 30.9212 39.4177 31.4979 39.1054C32.0748 38.7929 32.5776 38.1742 32.9016 37.1095C33.2283 36.0371 33.3396 34.6052 33.1809 32.8767C33.1553 32.5965 33.1226 32.3102 33.083 32.0185ZM23.2139 35.1621C23.8155 34.5461 24.4175 33.871 25.0127 33.1418C24.4197 33.1654 23.8198 33.1774 23.2141 33.1774C22.6083 33.1774 22.0082 33.1654 21.4151 33.1418C22.0104 33.871 22.6124 34.5461 23.2139 35.1621ZM15.867 29.8373C15.5639 29.3271 15.2676 28.8052 14.9791 28.2727C14.7997 27.9414 14.6254 27.6099 14.4563 27.2785C14.2242 27.9977 14.0235 28.7019 13.8543 29.3866C14.4977 29.5537 15.1697 29.7046 15.867 29.8373ZM13.3448 32.0185C14.7447 32.3741 16.2492 32.6551 17.83 32.8512C18.9258 34.3866 20.0754 35.7713 21.2415 36.972C21.1831 37.0193 21.1247 37.0662 21.0664 37.1122C19.7051 38.1895 18.445 38.8785 17.3684 39.1908C16.2995 39.5009 15.5066 39.4177 14.9299 39.1054C14.3531 38.7929 13.8503 38.1742 13.5262 37.1095C13.1996 36.0371 13.0882 34.6052 13.2469 32.8767C13.2726 32.5965 13.3052 32.3102 13.3448 32.0185ZM11.2975 28.581C11.6855 27.046 12.2123 25.4433 12.8719 23.812C12.2123 22.1807 11.6855 20.578 11.2975 19.0429C11.0222 19.1471 10.7551 19.2547 10.4965 19.3655C8.90088 20.0493 7.69508 20.8292 6.90762 21.6271C6.12583 22.4193 5.82132 23.156 5.82132 23.812C5.82132 24.4679 6.12583 25.2047 6.90762 25.9968C7.69508 26.7947 8.90088 27.5747 10.4965 28.2585C10.7551 28.3693 11.0222 28.4769 11.2975 28.581ZM13.8543 18.2374C14.0235 18.922 14.2242 19.6263 14.4563 20.3455C14.6254 20.0141 14.7997 19.6826 14.9791 19.3514C15.2676 18.8188 15.5639 18.2969 15.867 17.7866C15.1698 17.9194 14.4977 18.0702 13.8543 18.2374ZM19.2004 23.812C19.2004 21.5953 20.9974 19.7983 23.2141 19.7983C25.4308 19.7983 27.2278 21.5953 27.2278 23.812C27.2278 26.0287 25.4308 27.8257 23.2141 27.8257C20.9974 27.8257 19.2004 26.0287 19.2004 23.812ZM23.2141 22.4741C22.4752 22.4741 21.8762 23.0731 21.8762 23.812C21.8762 24.5509 22.4752 25.1499 23.2141 25.1499C23.953 25.1499 24.552 24.5509 24.552 23.812C24.552 23.0731 23.953 22.4741 23.2141 22.4741Z" fill="#59597F"/>
</svg>
