<svg width="47" height="47" viewBox="0 0 47 47" fill="none" xmlns="http://www.w3.org/2000/svg">
<path d="M43.7791 17.7482C42.5735 16.5426 41.9092 14.9398 41.9092 13.235C41.9092 8.71027 38.2281 5.02875 33.7029 5.02875C32.0235 5.02875 30.378 4.34712 29.1902 3.15928C25.9899 -0.0400717 20.7844 -0.0400717 17.5842 3.15928C16.3963 4.34712 14.7508 5.02875 13.0714 5.02875C8.54621 5.02875 4.86514 8.71027 4.86514 13.235C4.86514 14.9398 4.20086 16.5426 2.99521 17.7482C-0.204134 20.9476 -0.204134 26.154 2.99521 29.3533C4.20087 30.559 4.86514 32.1618 4.86514 33.8665C4.86514 38.3913 8.54621 42.0728 13.0714 42.0728C14.7508 42.0728 16.3963 42.7544 17.5842 43.9423C19.1843 45.542 21.2857 46.342 23.3872 46.342C25.4886 46.342 27.59 45.542 29.1902 43.9423C30.378 42.7544 32.0235 42.0728 33.7029 42.0728C38.2281 42.0728 41.9092 38.3913 41.9092 33.8665C41.9092 32.1618 42.5735 30.559 43.7791 29.3533C46.9785 26.154 46.9785 20.9476 43.7791 17.7482ZM42.4898 28.064C40.9395 29.6138 40.0856 31.6743 40.0856 33.8665C40.0856 37.386 37.2219 40.2492 33.7029 40.2492C31.5115 40.2492 29.4511 41.1027 27.9008 42.6529C25.4111 45.1417 21.3614 45.1408 18.8735 42.6529C17.3233 41.1027 15.2628 40.2492 13.0714 40.2492C9.55241 40.2492 6.68877 37.386 6.68877 33.8665C6.68877 31.6743 5.83484 29.6138 4.28458 28.064C1.7958 25.5752 1.7958 21.5264 4.28458 19.0376C5.83484 17.4878 6.68877 15.4273 6.68877 13.235C6.68877 9.71559 9.55241 6.85238 13.0714 6.85238C15.2628 6.85238 17.3233 5.99889 18.8735 4.44864C20.1184 3.20469 21.7523 2.58227 23.3872 2.58227C25.022 2.58227 26.656 3.20469 27.9008 4.44864C29.4511 5.9989 31.5115 6.85238 33.7029 6.85238C37.2219 6.85238 40.0856 9.71559 40.0856 13.235C40.0856 15.4273 40.9395 17.4878 42.4898 19.0376C44.9785 21.5264 44.9785 25.5752 42.4898 28.064Z" fill="#827FE3"/>
<path d="M19.6454 16.4187C19.6454 16.4187 19.0749 19.7416 19.0737 19.7485C18.9484 20.4785 19.7399 21.055 20.396 20.7098L23.387 19.1377C23.387 19.1377 26.3707 20.7059 26.378 20.7098C27.0181 21.0462 27.8265 20.4829 27.7003 19.7485L27.1286 16.4187C27.1286 16.4187 29.5443 14.0653 29.5488 14.0609C30.076 13.5473 29.7676 12.6104 29.0431 12.5053L25.6995 12.0195L24.2044 8.99025C23.8981 8.36783 22.8759 8.36783 22.5696 8.99025L21.0745 12.0195C21.0745 12.0195 17.7378 12.5043 17.731 12.5053C17.0011 12.6113 16.6969 13.5459 17.2252 14.0609L19.6454 16.4187ZM21.8109 13.7554C22.1083 13.7123 22.3648 13.5257 22.4975 13.2564L23.387 11.4541L24.2766 13.2564C24.4092 13.5257 24.6657 13.7123 24.9631 13.7554L26.9523 14.0444L25.5125 15.4473C25.2979 15.657 25.2 15.9588 25.2507 16.2544L25.5909 18.2357L23.8109 17.3003C23.5473 17.1618 23.2266 17.1615 22.9632 17.3003L21.1832 18.2357L21.5233 16.2544C21.5741 15.9588 21.4761 15.657 21.2615 15.4473L19.8217 14.0444L21.8109 13.7554Z" fill="#827FE3"/>
<path d="M14.6934 23.4398C15.3325 23.78 16.1457 23.2206 16.0211 22.4826L15.5901 19.9377C15.5901 19.9377 17.4104 18.1405 17.4137 18.1372C17.939 17.6186 17.6353 16.6934 16.9061 16.5861L14.3951 16.2166L13.2687 13.9077C12.9642 13.2808 11.9348 13.2808 11.6303 13.9077L10.5039 16.2166C10.5039 16.2166 7.99684 16.5855 7.99285 16.5861C7.26316 16.6935 6.95949 17.619 7.4853 18.1372L9.30892 19.9377C9.30892 19.9377 8.87892 22.4768 8.87795 22.4826C8.75464 23.2107 9.55271 23.7871 10.2056 23.4398L12.4495 22.2453C12.4495 22.2453 14.6907 23.4383 14.6934 23.4398ZM10.9856 20.9586L11.1869 19.7743C11.2358 19.4809 11.1397 19.1822 10.9277 18.9729L10.0676 18.1239L11.2456 17.9507C11.5439 17.9071 11.8004 17.7187 11.9322 17.448L12.4495 16.388L12.9669 17.448C13.0986 17.7187 13.3551 17.9071 13.6534 17.9507L14.8314 18.1239L13.9713 18.9729C13.7593 19.1822 13.6632 19.4809 13.7121 19.7743L13.9134 20.9586L12.8778 20.4074C12.6123 20.2658 12.2864 20.266 12.0212 20.4074L10.9856 20.9586Z" fill="#827FE3"/>
<path d="M38.7876 16.5861L36.2766 16.2166L35.1502 13.9077C34.8456 13.2808 33.8163 13.2808 33.5117 13.9077L32.3853 16.2166C32.3853 16.2166 29.8789 16.5854 29.8743 16.5861C29.147 16.6931 28.8427 17.6208 29.3667 18.1372L31.1904 19.9377C31.1904 19.9377 30.7604 22.4767 30.7594 22.4826C30.636 23.211 31.4358 23.7863 32.087 23.4398L34.3309 22.2453L36.5749 23.4398C37.222 23.7848 38.0246 23.2059 37.9025 22.4826L37.4715 19.9377C37.4715 19.9377 39.2926 18.1398 39.2951 18.1372C39.8202 17.6189 39.5169 16.6934 38.7876 16.5861ZM35.8527 18.9729C35.6408 19.1822 35.5446 19.4809 35.5936 19.7743L35.7948 20.9586L34.7593 20.4074C34.4934 20.266 34.1685 20.2656 33.9027 20.4074L32.8671 20.9586L33.0683 19.7743C33.1173 19.4809 33.0211 19.1822 32.8092 18.9729L31.949 18.1239L33.1271 17.9507C33.4254 17.9071 33.6818 17.7187 33.8136 17.448L34.3309 16.388L34.8483 17.448C34.9801 17.7187 35.2365 17.9071 35.5348 17.9507L36.7129 18.1239L35.8527 18.9729Z" fill="#827FE3"/>
<path d="M32.5009 25.3672H14.2647C12.7563 25.3672 11.5293 26.5942 11.5293 28.1026C11.5293 29.611 12.7563 30.838 14.2647 30.838H32.5009C34.0093 30.838 35.2364 29.611 35.2364 28.1026C35.2364 26.5942 34.0093 25.3672 32.5009 25.3672ZM13.3529 28.1026C13.3529 27.6 13.7616 27.1908 14.2647 27.1908H18.8238V29.0144H14.2647C13.7616 29.0144 13.3529 28.6053 13.3529 28.1026ZM32.5009 29.0144H20.6474V27.1908H32.5009C33.004 27.1908 33.4127 27.6 33.4127 28.1026C33.4127 28.6053 33.004 29.0144 32.5009 29.0144Z" fill="#827FE3"/>
<path d="M13.3474 34.4916H23.3773C23.8812 34.4916 24.2891 34.0833 24.2891 33.5798C24.2891 33.0762 23.8812 32.668 23.3773 32.668H13.3474C12.8434 32.668 12.4355 33.0762 12.4355 33.5798C12.4355 34.0833 12.8434 34.4916 13.3474 34.4916Z" fill="#827FE3"/>
<path d="M33.4072 36.3164H13.3474C12.8434 36.3164 12.4355 36.7247 12.4355 37.2282C12.4355 37.7318 12.8434 38.14 13.3474 38.14H33.4072C33.9112 38.14 34.319 37.7318 34.319 37.2282C34.319 36.7247 33.9112 36.3164 33.4072 36.3164Z" fill="#827FE3"/>
</svg>
