<svg width="47" height="47" viewBox="0 0 47 47" fill="none" xmlns="http://www.w3.org/2000/svg">
<path d="M21.2027 3.50292C21.9993 3.41858 22.7426 3.37758 23.4759 3.37758C28.1428 3.37758 32.5426 4.92093 36.1987 7.84127C36.42 8.01816 36.6836 8.10367 36.946 8.10367C37.2986 8.10367 37.6477 7.94904 37.8843 7.65267C38.2978 7.1349 38.2135 6.38051 37.6957 5.967C33.6098 2.70343 28.6922 0.978516 23.4759 0.978516C22.6576 0.978516 21.8312 1.02362 20.9509 1.11674C20.2919 1.18644 19.814 1.77742 19.8837 2.43576C19.9534 3.0941 20.5297 3.56208 21.2027 3.50292Z" fill="#827FE3"/>
<path d="M25.7436 44.0394C24.9482 44.1238 24.2044 44.1648 23.4711 44.1648C18.8047 44.1648 14.4054 42.6214 10.7489 39.7011C10.2328 39.2881 9.4761 39.3736 9.06319 39.8897C8.64967 40.4074 8.73402 41.1618 9.25179 41.5753C13.3377 44.8389 18.2547 46.5638 23.4711 46.5638C24.2893 46.5638 25.1157 46.5187 25.9966 46.4256C26.655 46.3559 27.1329 45.7649 27.0626 45.1066C26.9935 44.4477 26.4101 43.9779 25.7436 44.0394Z" fill="#827FE3"/>
<path d="M3.08071 23.766C3.08071 19.3967 4.47045 15.2436 7.00554 11.7718V11.8914C7.00554 12.5538 7.54263 13.0909 8.20508 13.0909C8.86752 13.0909 9.40461 12.5538 9.40461 11.8914V8.49836C9.40461 7.83592 8.86752 7.29883 8.20508 7.29883H4.81265C4.15021 7.29883 3.61312 7.83592 3.61312 8.49836C3.61312 9.1608 4.15021 9.69789 4.81265 9.69789H5.55965C2.40692 13.7036 0.681641 18.6025 0.681641 23.766C0.681641 28.9824 2.40656 33.8994 5.67013 37.9853C5.90676 38.2817 6.25583 38.4363 6.60785 38.4363C6.87025 38.4363 7.13498 38.3508 7.35581 38.1739C7.87357 37.7604 7.95791 37.006 7.54441 36.4882C4.62405 32.8317 3.08071 28.4324 3.08071 23.766Z" fill="#827FE3"/>
<path d="M42.1322 37.8363H41.3852C44.5378 33.8306 46.2626 28.9322 46.2626 23.7681C46.2626 18.5524 44.5371 13.6353 41.2735 9.54885C40.86 9.03284 40.1068 8.94498 39.5879 9.36025C39.0701 9.77376 38.9858 10.5282 39.3993 11.0459C42.3196 14.7031 43.8636 19.1024 43.8636 23.7681C43.8636 28.1385 42.4738 32.292 39.9381 35.764V35.6428C39.9381 34.9804 39.4016 34.4433 38.7386 34.4433C38.0756 34.4433 37.5391 34.9804 37.5391 35.6428V39.0358C37.5391 39.6983 38.0756 40.2353 38.7386 40.2353H42.1322C42.7952 40.2353 43.3317 39.6983 43.3317 39.0358C43.3317 38.3734 42.7952 37.8363 42.1322 37.8363Z" fill="#827FE3"/>
<path d="M19.0585 25.3458L18.6387 25.0742L18.6357 25.0788C17.486 26.8993 16.7491 27.9513 16.16 28.5515C15.8717 28.8452 15.6374 29.0107 15.4282 29.1059C15.2242 29.1987 15.0172 29.237 14.7628 29.237H14.7436L14.7244 29.2385C14.2935 29.2716 13.935 29.1021 13.6591 28.7016C13.3673 28.2781 13.1626 27.5794 13.1626 26.5868C13.1626 24.4662 13.6946 22.3019 14.5273 20.6821C14.9435 19.8725 15.4245 19.2191 15.9321 18.7741C16.4388 18.33 16.9468 18.1136 17.4356 18.1136C18.5511 18.1136 19.5324 18.7171 21.2232 21.0644C20.4487 22.2689 19.8209 23.2429 19.3781 23.9293C19.1396 24.2991 18.9547 24.5853 18.8294 24.7792L18.6871 24.9994L18.6509 25.0554L18.6417 25.0695L18.6394 25.073L18.6389 25.0739L18.6387 25.0741L18.6387 25.0742L19.0585 25.3458ZM23.5358 17.65C21.5469 15.1935 19.7041 14.1543 17.5311 14.1543C15.0957 14.1543 13.0271 15.767 11.594 18.0649C10.1555 20.3715 9.29883 23.4481 9.29883 26.5868C9.29883 28.568 9.76865 30.2399 10.6929 31.4282C11.6289 32.6316 12.9957 33.2917 14.6673 33.2917C15.8729 33.2917 16.9239 32.9936 18.0384 32.0233C19.1192 31.0824 20.2512 29.5166 21.6871 27.0276L21.6873 27.0277L21.693 27.0172L21.2541 26.7777L21.693 27.0172L21.693 27.0171L21.6932 27.0168L21.6938 27.0157L21.6962 27.0113L21.7059 26.9936L21.7434 26.925C21.7763 26.8651 21.8242 26.7778 21.8844 26.6685C22.0048 26.45 22.1743 26.1437 22.3706 25.7928C22.6369 25.3166 22.9515 24.7601 23.259 24.2302C23.3971 24.472 23.5339 24.7232 23.6706 24.9967L23.6779 25.0111L23.686 25.025L25.0224 27.3161L25.0231 27.3172C26.3117 29.5127 27.3472 31.0295 28.4122 31.9931C29.5099 32.9863 30.6331 33.3872 32.0411 33.3872C33.6816 33.3872 34.9811 32.6889 35.8517 31.4434C36.7067 30.2201 37.1232 28.5074 37.1232 26.4914H37.1232L37.1231 26.484C37.0742 23.1577 36.17 20.1044 34.7285 17.8677C33.2925 15.6394 31.2715 14.1543 28.9863 14.1543C26.7266 14.1543 24.9837 15.7693 23.5358 17.65ZM28.075 24.7008L26.4579 22.0373C26.1587 21.5144 25.8001 20.9869 25.4835 20.5211C25.4509 20.4731 25.4187 20.4258 25.3871 20.3792C26.0206 19.4327 26.5795 18.7347 27.119 18.2652C27.6987 17.7606 28.231 17.5408 28.7954 17.5408C29.9548 17.5408 31.1107 18.4171 32.0058 20.0925C32.8903 21.7482 33.4503 24.0742 33.4503 26.6823C33.4503 27.6431 33.2877 28.3221 33.0246 28.745C32.7823 29.1343 32.4422 29.3325 31.9456 29.3325C31.6701 29.3325 31.4748 29.2893 31.2929 29.1933C31.102 29.0927 30.8884 28.914 30.6114 28.5816C30.085 27.95 29.432 26.8944 28.3395 25.1282C28.2544 24.9907 28.1667 24.8489 28.0761 24.7026C28.0758 24.702 28.0754 24.7014 28.075 24.7008Z" stroke="#827FE3"/>
</svg>
