<svg width="46" height="47" viewBox="0 0 46 47" fill="none" xmlns="http://www.w3.org/2000/svg">
<path fill-rule="evenodd" clip-rule="evenodd" d="M9.03195 30.5757V35.8542C9.03195 36.8513 9.81979 37.6322 10.7916 37.6322H12.5568C13.5368 37.6322 14.3165 36.8362 14.3165 35.8542V34.1092H31.9317V35.8542C31.9317 36.8513 32.7196 37.6322 33.6914 37.6322H35.4566C36.4365 37.6322 37.2163 36.8362 37.2163 35.8542V30.5862C37.2163 30.5826 37.2163 25.3016 37.2163 25.3016H38.9922C39.9373 25.3016 40.7393 24.5129 40.7393 23.5401C40.7393 22.5604 39.9571 21.7785 38.9922 21.7785H37.2163L30.1702 9.44791H16.078L9.03195 21.7785H7.25599C6.31094 21.7785 5.50891 22.5672 5.50891 23.5401C5.50891 24.5197 6.29111 25.3016 7.25599 25.3016H9.03195V30.5757ZM33.4416 21.7785L28.4087 12.9709H17.8396L12.8066 21.7785H33.4416ZM15.1973 30.5862C16.6566 30.5862 17.8396 29.4032 17.8396 27.9439C17.8396 26.4846 16.6566 25.3016 15.1973 25.3016C13.738 25.3016 12.555 26.4846 12.555 27.9439C12.555 29.4032 13.738 30.5862 15.1973 30.5862ZM31.051 30.5862C32.5102 30.5862 33.6932 29.4032 33.6932 27.9439C33.6932 26.4846 32.5102 25.3016 31.051 25.3016C29.5917 25.3016 28.4087 26.4846 28.4087 27.9439C28.4087 29.4032 29.5917 30.5862 31.051 30.5862Z" fill="#59597F"/>
</svg>
