<svg width="46" height="47" viewBox="0 0 46 47" fill="none" xmlns="http://www.w3.org/2000/svg">
<path d="M27.1838 6.78979C20.4575 6.78979 15.0006 12.2467 15.0006 18.973C15.0006 21.1649 15.5895 23.2129 16.5971 24.9926L5.86646 35.7233L7.39099 38.7658L10.4335 40.2903L21.1642 29.5597C22.9373 30.5739 24.9919 31.1562 27.1838 31.1562C33.9101 31.1562 39.367 25.6993 39.367 18.973C39.367 12.2467 33.9101 6.78979 27.1838 6.78979ZM27.1838 27.3481C22.5578 27.3481 18.8087 23.599 18.8087 18.973C18.8087 14.347 22.5578 10.5979 27.1838 10.5979C31.8097 10.5979 35.5589 14.347 35.5589 18.973C35.5589 23.599 31.8097 27.3481 27.1838 27.3481Z" fill="#59597F"/>
</svg>
