<svg width="46" height="46" viewBox="0 0 46 46" fill="none" xmlns="http://www.w3.org/2000/svg">
<path d="M23.7416 7.52839C25.4016 7.50305 27.0489 7.51572 28.6962 7.50305C28.7975 9.4418 29.4945 11.4186 30.9137 12.7871C32.3329 14.1936 34.335 14.8399 36.2864 15.0553V20.1619C34.4617 20.0986 32.6243 19.7184 30.9644 18.9328C30.2421 18.6033 29.5705 18.1852 28.9116 17.7543C28.8989 21.4544 28.9242 25.1545 28.8862 28.8419C28.7849 30.6159 28.202 32.3773 27.1756 33.8345C25.5156 36.2674 22.6392 37.8514 19.6867 37.9021C17.8747 38.0034 16.0626 37.5092 14.5167 36.5969C11.9571 35.089 10.1577 32.3266 9.8916 29.3614C9.86625 28.7279 9.85358 28.0943 9.87893 27.4734C10.107 25.0658 11.2981 22.7596 13.1482 21.1883C15.2517 19.3636 18.1915 18.4893 20.9412 19.0088C20.9665 20.8842 20.8905 22.7596 20.8905 24.635C19.636 24.2295 18.1661 24.3435 17.0637 25.1038C16.2654 25.6233 15.6571 26.4217 15.3404 27.3213C15.0743 27.9676 15.1503 28.6772 15.163 29.3614C15.4671 31.4396 17.4692 33.1882 19.598 32.9982C21.0172 32.9855 22.3731 32.1619 23.108 30.9581C23.3488 30.5399 23.6149 30.1091 23.6275 29.6149C23.7543 27.3467 23.7036 25.0911 23.7162 22.8229C23.7289 17.7163 23.7036 12.6224 23.7416 7.52839V7.52839Z" fill="#59597F"/>
</svg>
