<svg width="22" height="22" viewBox="0 0 22 22" fill="none" xmlns="http://www.w3.org/2000/svg">
<circle cx="11" cy="11" r="11" fill="#2D2D35"/>
<path d="M10.5519 12.9062V11.0558C11.2276 11.0244 11.7579 10.8791 12.1429 10.6198C12.5279 10.3526 12.7204 9.95191 12.7204 9.41762V9.25262C12.7204 8.81262 12.5869 8.48262 12.3197 8.26262C12.0604 8.04262 11.7029 7.93262 11.2472 7.93262C10.7758 7.93262 10.3986 8.06227 10.1158 8.32155C9.83294 8.58084 9.63651 8.91084 9.52651 9.31155L8.64258 8.98155C8.72115 8.72227 8.83115 8.47869 8.97258 8.25084C9.11401 8.01512 9.29079 7.81084 9.50294 7.63798C9.72294 7.46512 9.97829 7.32762 10.269 7.22548C10.5676 7.12334 10.9054 7.07227 11.2826 7.07227C11.6597 7.07227 11.9976 7.12727 12.2961 7.23727C12.6026 7.33941 12.8619 7.48869 13.074 7.68512C13.2861 7.87369 13.4511 8.10548 13.569 8.38048C13.6869 8.65548 13.7458 8.96191 13.7458 9.29977C13.7458 9.66905 13.679 9.99512 13.5454 10.278C13.4119 10.553 13.239 10.7887 13.0269 10.9851C12.8147 11.1816 12.5711 11.3426 12.2961 11.4683C12.029 11.5862 11.7579 11.6687 11.4829 11.7158V12.9062H10.5519ZM11.0586 15.5462C10.7365 15.5462 10.5086 15.4794 10.3751 15.3458C10.2494 15.2123 10.1865 15.0433 10.1865 14.8391V14.6269C10.1865 14.4226 10.2494 14.2537 10.3751 14.1201C10.5086 13.9866 10.7365 13.9198 11.0586 13.9198C11.3808 13.9198 11.6047 13.9866 11.7304 14.1201C11.864 14.2537 11.9308 14.4226 11.9308 14.6269V14.8391C11.9308 15.0433 11.864 15.2123 11.7304 15.3458C11.6047 15.4794 11.3808 15.5462 11.0586 15.5462Z" fill="white"/>
</svg>
