<svg width="46" height="47" viewBox="0 0 46 47" fill="none" xmlns="http://www.w3.org/2000/svg">
<path d="M17.5975 10.3576C17.5975 7.44542 19.9584 5.08459 22.8705 5.08459C25.7827 5.08459 28.1435 7.44542 28.1435 10.3576C28.1435 13.2697 25.7827 15.6306 22.8705 15.6306C19.9584 15.6306 17.5975 13.2697 17.5975 10.3576V10.3576ZM26.8253 16.9488H25.8893C24.0182 17.8092 21.8036 17.8464 19.8518 16.9488H18.9158C16.7316 16.9488 14.9611 18.7194 14.9611 20.9036V29.4722C14.9611 30.5643 15.8463 31.4495 16.9384 31.4495H18.2567V40.0181C18.2567 41.1102 19.142 41.9955 20.2341 41.9955H25.507C26.5991 41.9955 27.4844 41.1102 27.4844 40.0181V31.4495H28.8027C29.8947 31.4495 30.78 30.5643 30.78 29.4722V20.9036C30.78 18.7194 29.0094 16.9488 26.8253 16.9488V16.9488Z" fill="#59597F"/>
</svg>
