<svg width="46" height="46" viewBox="0 0 46 46" fill="none" xmlns="http://www.w3.org/2000/svg">
<path fill-rule="evenodd" clip-rule="evenodd" d="M24.2595 7.41228C24.5897 7.38733 24.9199 7.37265 25.2501 7.36825C30.2221 7.30368 35.1927 9.43014 38.3376 13.6273C39.7861 15.5498 40.7385 17.8612 40.9029 20.3897C41.2096 24.7997 39.1301 28.6036 36.0571 31.2554C35.021 32.1397 33.887 32.9024 32.6773 33.5286C32.8231 33.9014 32.8982 34.298 32.8989 34.6983C32.8987 35.122 32.815 35.5415 32.6527 35.9329C32.4903 36.3243 32.2524 36.6798 31.9526 36.9792C31.6528 37.2787 31.2969 37.5161 30.9053 37.6779C30.5137 37.8397 30.094 37.9228 29.6703 37.9225C28.9533 37.9211 28.2571 37.6809 27.6918 37.2397C27.1265 36.7985 26.7244 36.1816 26.5489 35.4863C26.0147 35.5553 25.4776 35.6037 24.9434 35.6213C23.1574 35.68 21.2496 35.6507 19.3315 35.4746C19.1581 36.1723 18.7567 36.792 18.1909 37.2355C17.6252 37.679 16.9274 37.9208 16.2086 37.9225C15.7848 37.9228 15.3652 37.8397 14.9736 37.6779C14.582 37.5161 14.2261 37.2787 13.9263 36.9792C13.6265 36.6798 13.3886 36.3243 13.2262 35.9329C13.0638 35.5415 12.9802 35.122 12.98 34.6983C12.981 34.5177 12.9972 34.3375 13.0284 34.1597C10.3604 33.1926 7.9331 31.6546 6.10161 29.2229C5.12422 27.9461 6.10748 25.9605 7.71737 25.9708C8.92075 25.9693 9.18785 25.736 9.53712 25.033C9.88786 24.3286 10.0889 22.9638 10.2254 21.1734H10.2225C10.516 17.1744 12.1332 13.369 15.353 10.8272C17.9564 8.76828 21.0823 7.63974 24.2595 7.41228ZM19.3168 18.3396C19.3168 17.2845 20.1445 16.4347 21.1542 16.4347C22.1653 16.4347 22.9915 17.2962 22.9915 18.3396C22.9915 19.3962 22.1653 20.243 21.1542 20.243C20.1445 20.243 19.3168 19.3962 19.3168 18.3396ZM27.4118 18.3396C27.4118 17.2845 28.2365 16.4347 29.2462 16.4347C30.2559 16.4347 31.0835 17.2962 31.0835 18.3396C31.0835 19.3962 30.2559 20.243 29.2462 20.243C28.2248 20.243 27.4 19.3962 27.4118 18.3396ZM19.8598 22.3225C19.6887 22.3251 19.5208 22.3691 19.3704 22.4509C19.2201 22.5327 19.0919 22.6498 18.9969 22.7921C18.9171 22.9061 18.8616 23.0353 18.8339 23.1716C18.8061 23.3079 18.8066 23.4485 18.8355 23.5846C19.3418 26.2012 22.0274 28.1765 25.093 28.1765H25.2765C26.8262 28.1296 28.2497 27.6732 29.4091 26.8235C30.5347 26.0075 31.3022 24.8922 31.5766 23.6873C31.6356 23.412 31.5862 23.1245 31.4387 22.8846C31.3677 22.7658 31.2731 22.6629 31.1608 22.5822C31.0485 22.5014 30.9208 22.4445 30.7856 22.415C30.6501 22.3818 30.5093 22.376 30.3715 22.3979C30.2336 22.4199 30.1016 22.4691 29.9831 22.5428C29.8645 22.6165 29.7619 22.7131 29.6813 22.827C29.6006 22.9409 29.5435 23.0697 29.5133 23.206C29.1904 24.5708 27.6069 25.9943 25.2075 26.053C22.9005 26.1205 21.1894 24.606 20.9135 23.1825C20.8672 22.938 20.7362 22.7178 20.5434 22.5604C20.3507 22.4031 20.1086 22.3189 19.8598 22.3225Z" fill="#59597F"/>
</svg>
