<svg width="27" height="28" viewBox="0 0 27 28" fill="none" xmlns="http://www.w3.org/2000/svg">
<path fill-rule="evenodd" clip-rule="evenodd" d="M18.9897 17.4465L16.3047 16.9414C15.8474 16.8559 15.5428 16.3911 15.6233 15.9043C15.7038 15.4171 16.1391 15.0926 16.5965 15.1781L19.5321 15.73C20.5128 15.9292 21.1606 16.875 20.9796 17.8652C20.9755 17.8876 20.9684 17.9075 20.9643 17.9295C20.8286 18.4163 20.6012 18.862 20.2679 19.2455C18.3527 21.447 13.811 20.8129 10.1242 17.8278C6.43701 14.844 5.00031 10.6397 6.91633 8.43862C7.37199 7.91407 7.97871 7.55427 8.68586 7.34677C8.74521 7.33183 8.80247 7.31067 8.86182 7.30195C8.86182 7.30195 8.86265 7.30071 8.86389 7.30071C9.66276 7.17787 10.4595 7.61693 10.7787 8.38633L11.824 11.1871C11.9788 11.6013 11.7597 12.0594 11.3339 12.2101C10.9094 12.3611 10.4396 12.1478 10.2848 11.7337L9.32412 9.15905C9.24486 8.98931 9.05272 8.90051 8.87136 8.96192C8.60577 9.08767 8.3742 9.25366 8.18829 9.4678C6.86238 10.9921 8.20613 14.1863 11.1912 16.6015C14.1762 19.0168 17.6713 19.7401 18.9968 18.2163C19.0785 18.1217 19.1466 18.02 19.2076 17.9137C19.2234 17.8839 19.2367 17.8527 19.2425 17.8175C19.2699 17.6448 19.157 17.4859 18.9897 17.4465ZM2.75021 18.0694C2.75021 18.5279 2.37879 18.8994 1.92023 18.8994C1.46166 18.8994 1.09024 18.5279 1.09024 18.0694C1.09024 17.6108 1.46166 17.2394 1.92023 17.2394C2.37879 17.2394 2.75021 17.6108 2.75021 18.0694ZM13.54 27.1992C11.4547 27.1992 9.48472 26.7124 7.7293 25.8551C7.70233 25.8434 7.67618 25.831 7.65087 25.819C7.62555 25.8069 7.59941 25.7957 7.5741 25.7828C7.08814 25.5392 6.51462 25.4658 5.9494 25.6198C5.93861 25.6227 5.9274 25.6247 5.9162 25.6276L3.50758 26.2966C3.49886 26.2987 3.48849 26.2987 3.47936 26.302C3.16147 26.3896 2.81744 26.3958 2.47715 26.302C1.47203 26.026 0.881499 24.9881 1.15747 23.983C1.16328 23.9598 1.16535 23.9424 1.17033 23.9216L1.87416 21.3893H1.92023C1.92023 20.9307 2.29165 20.5593 2.75021 20.5593C3.20878 20.5593 3.5802 20.9307 3.5802 21.3893H3.59722L3.57024 21.4868C3.56028 21.5765 3.53704 21.6607 3.50011 21.7392L2.75519 24.4229C2.75519 24.4246 2.7581 24.4217 2.7581 24.4237C2.7249 24.5445 2.79711 24.6694 2.91787 24.7014C2.95398 24.7113 2.99049 24.7113 3.02328 24.7047C3.02535 24.7047 3.02245 24.7088 3.02328 24.7088L5.49332 24.0224C5.4983 24.0216 5.50162 24.0216 5.5066 24.0208C6.47851 23.7539 7.46537 23.8747 8.30241 24.2909C8.31071 24.2951 8.32025 24.2963 8.32938 24.2992C9.89723 25.0886 11.6647 25.5392 13.54 25.5392C19.9579 25.5392 25.1599 20.3369 25.1599 13.9194C25.1599 7.50198 19.9579 2.29962 13.54 2.29962C7.12258 2.29962 1.92023 7.50198 1.92023 13.9194C1.92023 14.163 1.93226 14.4046 1.9472 14.6436L1.90985 14.6469C1.914 14.6801 1.92023 14.7141 1.92023 14.7494C1.92023 15.208 1.54881 15.5794 1.09024 15.5794C0.631673 15.5794 0.260254 15.208 0.260254 14.7494C0.260254 14.6863 0.268554 14.6245 0.282249 14.5664C0.271044 14.351 0.260254 14.1365 0.260254 13.9194C0.260254 6.58526 6.20586 0.639648 13.54 0.639648C20.8742 0.639648 26.8198 6.58526 26.8198 13.9194C26.8198 21.2536 20.8742 27.1992 13.54 27.1992Z" fill="#25D366"/>
</svg>
