<svg width="30" height="29" viewBox="0 0 30 29" fill="none" xmlns="http://www.w3.org/2000/svg">
<path d="M1.13001 28.3496C1.20098 28.0934 1.24829 27.8994 1.31137 27.7208C1.79238 26.2771 2.28915 24.8333 2.73861 23.3818C2.80958 23.1644 2.77804 22.8229 2.64399 22.6366C-3.34884 14.2223 1.34292 2.62555 11.7121 0.358974C19.7866 -1.40305 27.6562 3.48715 29.6117 11.3969C31.2046 17.8318 27.7823 24.7013 21.4426 27.5501C16.6404 29.708 11.8935 29.4363 7.28055 26.8748C7.04399 26.7428 6.67338 26.6962 6.42105 26.7661C4.84399 27.2085 3.2827 27.7053 1.72141 28.1788C1.54793 28.2331 1.37446 28.272 1.12213 28.3496H1.13001ZM8.84972 6.87925C8.84972 6.80939 8.83395 6.74729 8.82607 6.67743C8.33718 6.85596 7.76155 6.91806 7.38306 7.22855C5.89274 8.43169 5.34076 10.023 5.67983 11.9014C6.0189 13.7643 7.02822 15.2935 8.19524 16.745C10.7107 19.8655 13.8332 22.0932 17.7443 23.211C20.1021 23.8863 23.2641 23.1178 23.7529 19.7568C23.8239 19.2755 23.7214 18.9573 23.2325 18.7477C22.0576 18.2432 20.8827 17.7231 19.7236 17.1797C19.2504 16.9546 18.9193 17.0555 18.6196 17.4669C18.2175 18.0181 17.7759 18.5381 17.358 19.0815C17.153 19.3454 16.94 19.4618 16.5931 19.3221C13.8884 18.2742 11.7279 16.5898 10.2848 14.0671C10.0956 13.7411 10.1429 13.4927 10.3874 13.2288C10.7816 12.8096 11.1365 12.3594 11.5307 11.948C11.854 11.6142 11.9092 11.2882 11.7121 10.8535C11.2626 9.89099 10.8132 8.92071 10.4426 7.91939C10.1587 7.15869 9.78808 6.63862 8.82607 6.87925H8.84972Z" fill="#58FCAD"/>
</svg>
