<svg width="143" height="144" viewBox="0 0 143 144" fill="none" xmlns="http://www.w3.org/2000/svg">
<path d="M71.4454 140.764C109.607 140.764 140.542 109.828 140.542 71.6673C140.542 33.5062 109.607 2.57056 71.4454 2.57056C33.2843 2.57056 2.34863 33.5062 2.34863 71.6673C2.34863 109.828 33.2843 140.764 71.4454 140.764Z" fill="#7674DF"/>
<path d="M71.4455 2.57056C68.3909 2.57056 65.383 2.77123 62.4329 3.15557C96.3355 7.57202 122.517 36.561 122.517 71.6673C122.517 106.774 96.3352 135.763 62.4329 140.179C65.383 140.563 68.3909 140.764 71.4455 140.764C109.607 140.764 140.542 109.828 140.542 71.6673C140.542 33.5063 109.607 2.57056 71.4455 2.57056Z" fill="#8785FF"/>
<path d="M71.4455 119.885C59.7087 119.885 48.4017 115.618 39.5995 107.868H23.1564L28.7038 93.9987C25.1218 87.1561 23.228 79.435 23.228 71.6673C23.228 45.08 44.8582 23.4498 71.4455 23.4498C98.0328 23.4498 119.663 45.08 119.663 71.6673C119.663 98.2546 98.0328 119.885 71.4455 119.885Z" fill="white"/>
<path d="M71.4454 110.872C61.9043 110.872 52.7097 107.403 45.5552 101.104L43.0016 98.8553H36.4681L38.6125 93.4943L36.6885 89.8189C33.7788 84.26 32.2406 77.9832 32.2406 71.6673C32.2406 50.0497 49.8278 32.4625 71.4454 32.4625C93.063 32.4625 110.65 50.0497 110.65 71.6673C110.65 93.285 93.063 110.872 71.4454 110.872Z" fill="#8785FF"/>
<path d="M83.7104 99.2912C82.2912 99.2912 80.9302 98.8514 79.7739 98.0195C66.3913 88.39 54.7231 76.7218 45.0931 63.3384C43.1491 60.6366 43.4576 56.9568 45.8258 54.5883L55.5116 44.9028C57.4391 42.9753 60.564 42.9753 62.4913 44.9028L68.4697 50.8812C70.3972 52.8087 70.3972 55.9336 68.4697 57.8609L66.8253 59.5053C66.0209 60.3097 65.7809 61.5184 66.2085 62.5725C68.956 69.3477 73.7652 74.1566 80.5401 76.9041C81.5941 77.3316 82.8029 77.0917 83.6073 76.2873L85.2517 74.6429C87.1792 72.7153 90.3041 72.7153 92.2317 74.6429L98.21 80.6212C100.138 82.5488 100.138 85.6737 98.21 87.6013L88.5245 97.2867C87.2319 98.5794 85.5223 99.2912 83.7104 99.2912Z" fill="white"/>
<path d="M121.897 21.2154C108.421 7.73889 90.5034 0.317383 71.4455 0.317383C52.3875 0.317383 34.4698 7.73889 20.9939 21.2154C7.51708 34.6916 0.0955811 52.609 0.0955811 71.6673C0.0955811 90.7255 7.51708 108.643 20.9939 122.119C34.4698 135.596 52.3872 143.017 71.4455 143.017C90.5037 143.017 108.421 135.596 121.897 122.119C135.374 108.643 142.795 90.7252 142.795 71.6673C142.795 52.6093 135.374 34.6916 121.897 21.2154ZM71.4455 138.511C34.5877 138.511 4.60177 108.525 4.60177 71.6673C4.60177 34.8095 34.5877 4.82357 71.4455 4.82357C108.303 4.82357 138.289 34.8095 138.289 71.6673C138.289 108.525 108.303 138.511 71.4455 138.511Z" fill="black"/>
<path d="M110.494 44.3869C110.483 44.3978 110.472 44.4087 110.461 44.4193C109.718 45.1626 109.602 46.3181 110.165 47.2061C114.655 54.2881 117.26 62.679 117.26 71.6674C117.26 96.9294 96.7078 117.482 71.4457 117.482C60.2834 117.482 49.5293 113.419 41.1627 106.042C40.7455 105.674 40.2126 105.465 39.656 105.465H26.7063L30.9611 94.8271C31.2055 94.2148 31.1701 93.5264 30.8638 92.9425C27.4404 86.4271 25.6313 79.0702 25.6313 71.6674C25.6313 46.4053 46.1834 25.8532 71.4455 25.8532C83.9484 25.8532 95.2956 30.8893 103.57 39.0371C104.442 39.8958 105.843 39.8883 106.708 39.0229L106.737 38.9942C107.617 38.1145 107.604 36.6887 106.717 35.8163C97.63 26.8739 85.172 21.347 71.4455 21.347C43.699 21.347 21.1251 43.9206 21.1251 71.6674C21.1251 79.4462 22.9451 87.1801 26.3967 94.105L21.2862 106.881C20.9225 107.791 21.1811 108.86 21.9989 109.502C22.4055 109.821 22.9211 109.971 23.4384 109.971H38.8154C47.912 117.727 59.4651 121.988 71.4457 121.988C99.1922 121.988 121.766 99.4144 121.766 71.6677C121.766 61.7757 118.896 52.542 113.946 44.7537C113.184 43.5539 111.498 43.3816 110.494 44.3869Z" fill="black"/>
<path d="M103.044 82.4808L90.3351 69.7724C89.4549 68.8925 88.0285 68.8925 87.1486 69.7724L81.7848 75.1365C75.0846 72.564 70.5494 68.0288 67.9769 61.3286L73.341 55.9645C74.2209 55.0846 74.2209 53.6579 73.341 52.7783L60.5953 40.0326C59.7151 39.1527 58.2887 39.1527 57.4088 40.0326L44.339 53.1016C41.2383 56.2028 40.8375 61.0245 43.3863 64.5672C48.79 72.0768 54.831 79.0493 61.4462 85.4373C62.3239 86.2849 63.7177 86.2776 64.5803 85.4148C64.5909 85.4042 64.6018 85.3933 64.6121 85.383C65.492 84.5031 65.483 83.0719 64.5878 82.2073C58.1619 76.0027 52.2931 69.23 47.0444 61.9356C45.7919 60.1951 45.9945 57.8199 47.526 56.2887L59.0022 44.8125L68.5614 54.372L63.7818 59.1516C63.1815 59.7519 62.9657 60.6416 63.2341 61.447C66.2885 70.6194 72.4868 76.8199 81.6569 79.8768C82.4663 80.146 83.3593 79.9359 83.9629 79.3325L88.7423 74.5528L98.3018 84.1123L86.8256 95.5885C85.2941 97.12 82.9194 97.3229 81.1786 96.0701C78.2315 93.9494 75.3714 91.7253 72.5977 89.4062C71.7147 88.6681 70.4123 88.7322 69.5985 89.5461L69.5681 89.5764C68.6414 90.5032 68.7086 92.0266 69.7141 92.8675C72.5693 95.2546 75.513 97.5448 78.5465 99.7276C80.1061 100.85 81.9133 101.4 83.7132 101.4C86.0009 101.4 88.2763 100.51 90.0121 98.7745L103.081 85.7052C103.706 85.0809 103.926 84.1274 103.573 83.252C103.455 82.9599 103.266 82.7026 103.044 82.4808Z" fill="black"/>
</svg>
