<svg width="46" height="46" viewBox="0 0 46 46" fill="none" xmlns="http://www.w3.org/2000/svg">
<path fill-rule="evenodd" clip-rule="evenodd" d="M36.5149 11.6346C37.9591 12.0222 39.0951 13.1607 39.4851 14.6048C40.1783 17.2405 40.1783 22.7091 40.1783 22.7091C40.1783 22.7091 40.1783 28.1777 39.4851 30.8134C39.2923 31.5246 38.9167 32.173 38.3956 32.6941C37.8745 33.2152 37.2261 33.5908 36.5149 33.7836C33.8768 34.4792 23.3295 34.4792 23.3295 34.4792C23.3295 34.4792 12.7822 34.4792 10.1441 33.7836C9.43288 33.5908 8.78448 33.2152 8.26341 32.6941C7.74233 32.173 7.36672 31.5246 7.17392 30.8134C6.48071 28.2042 6.48071 22.7091 6.48071 22.7091C6.48071 22.7091 6.48071 17.2405 7.17392 14.6048C7.56385 13.1607 8.70235 12.0222 10.1441 11.6346C12.7822 10.939 23.3295 10.939 23.3295 10.939C23.3295 10.939 33.8768 10.939 36.5149 11.6346ZM28.7163 22.7356L19.9429 27.7902V17.6545L28.7139 22.7332L28.7163 22.7356Z" fill="#59597F"/>
</svg>
