<svg width="33" height="25" viewBox="0 0 33 25" fill="none" xmlns="http://www.w3.org/2000/svg">
<path fill-rule="evenodd" clip-rule="evenodd" d="M32.6644 19.4504C32.6644 19.4504 31.9447 21.9363 30.9837 22.9295C29.7659 24.2337 28.3066 24.5103 27.6798 24.5865C27.4745 24.6022 27.2623 24.6154 27.0502 24.6286L27.0492 24.6198C26.7695 24.6422 26.4821 24.5582 26.2689 24.3441C25.8803 23.9569 25.8803 23.3269 26.2689 22.9398C26.4449 22.7634 26.6732 22.6793 26.903 22.6626L26.902 22.6514C26.9357 22.6489 26.9714 22.647 27.0042 22.6446C27.5229 22.5815 28.6531 22.5761 29.6627 21.4984C30.4586 20.6782 30.7167 18.8149 30.7167 18.8149C30.7167 18.8149 30.9817 16.6275 30.9817 14.4402V11.3869C30.9817 9.19958 30.7167 7.01077 30.7167 7.01077C30.7167 7.01077 30.4586 5.14774 29.6627 4.32731C28.6531 3.25073 27.5229 3.2451 27.0042 3.18228C23.2917 2.90856 16.9662 2.90956 16.9662 2.90956C16.9662 2.90956 10.6416 2.90856 6.92915 3.18228C6.41041 3.2451 5.28021 3.25073 4.27115 4.32731C3.47624 5.14774 3.21709 7.01077 3.21709 7.01077C3.21659 7.01077 2.95213 9.19958 2.95213 11.3869V14.4402C2.95213 16.6275 3.21709 18.8149 3.21709 18.8149C3.21659 18.8149 3.47624 20.6782 4.27115 21.4984C5.28015 22.5762 6.60599 22.5424 7.19655 22.6548C9.31924 22.8621 16.9661 22.9295 16.9661 22.9295C17.5195 22.9295 17.9673 23.3783 17.9673 23.9306C17.9673 24.4839 17.5195 24.9317 16.9661 24.9317C16.9495 24.9317 16.9334 24.9287 16.9168 24.9278C16.2847 24.921 9.02636 24.8398 6.57565 24.5988C5.86289 24.4615 4.16891 24.2337 2.94969 22.9295C1.98854 21.9363 1.27041 19.4504 1.27041 19.4504C1.27041 19.4504 0.950195 17.303 0.950195 14.6543V11.1704C0.950195 8.52162 1.27041 6.37341 1.27041 6.37341C1.27041 6.37341 1.98854 3.90186 2.94969 2.90956C4.16891 1.60549 5.62721 1.31368 6.25349 1.23741C10.7369 0.90625 16.9603 0.90625 16.9603 0.90625H16.974C16.974 0.90625 23.1974 0.90625 27.6798 1.23741C28.3066 1.31368 29.7659 1.60549 30.9837 2.90956C31.9447 3.90179 32.6644 6.37341 32.6644 6.37341C32.6644 6.37341 32.9841 8.52162 32.9841 11.1704V14.6543C32.9841 17.303 32.6644 19.4504 32.6644 19.4504ZM20.9715 22.9295C21.5249 22.9295 21.9727 23.3783 21.9727 23.9306C21.9727 24.4839 21.5249 24.9317 20.9715 24.9317C20.4181 24.9317 19.9703 24.4839 19.9703 23.9306C19.9703 23.3783 20.4181 22.9295 20.9715 22.9295ZM16.4959 17.808L16.4866 17.8129C16.3385 17.9029 16.1669 17.9566 15.9816 17.9566C15.4375 17.9566 14.9961 17.5152 14.9961 16.9712C14.9961 16.5919 15.2126 16.2663 15.527 16.1012L15.526 16.1002L20.6323 13.3771C20.6293 13.3747 20.621 13.3727 20.6259 13.3703C20.7931 13.2897 20.9085 13.1179 20.9085 12.9191C20.9085 12.7373 20.8078 12.578 20.6625 12.4914L14.6851 9.29719C14.6157 9.26246 14.5438 9.24438 14.4641 9.24438C14.1967 9.24438 13.9835 9.45429 13.9688 9.71582L13.9698 15.9125H13.962C13.962 15.9159 13.9635 15.9193 13.9635 15.9228C13.9635 16.476 13.5142 16.9238 12.9618 16.9238C12.4084 16.9238 11.9606 16.476 11.9606 15.9228C11.9606 15.9213 11.9606 15.9213 11.9606 15.9203V8.95032C11.9606 7.82563 12.8733 6.91329 13.9982 6.91329C14.3829 6.91329 14.7423 7.01984 15.0488 7.2051C15.061 7.21167 15.0654 7.20948 15.0757 7.21392L21.9815 11.1929C22.1277 11.2782 22.2626 11.3791 22.3872 11.5038C23.1695 12.2861 23.1695 13.5536 22.3872 14.3356C22.2723 14.45 22.1457 14.5458 22.0132 14.6275L16.5364 17.7835C16.5227 17.7924 16.5091 17.7992 16.4959 17.808Z" fill="#E62D27"/>
</svg>
