<svg width="46" height="47" viewBox="0 0 46 47" fill="none" xmlns="http://www.w3.org/2000/svg">
<path d="M18.6195 18.011C19.1614 18.3256 19.8581 18.384 20.4466 18.0561C20.4466 18.0561 28.6555 13.4666 28.6656 13.461C29.8691 12.7881 29.865 11.0313 28.6656 10.3601C28.6656 10.3601 20.4528 5.76895 20.4457 5.76496C19.2706 5.10803 17.7188 5.94715 17.7188 7.31582C17.7188 7.31582 17.7188 16.492 17.7188 16.5053C17.7188 17.1673 18.0973 17.708 18.6195 18.011ZM19.5563 7.35677L27.7753 11.8691L19.542 16.4532L19.5563 7.35677Z" fill="#827FE3"/>
<path d="M41.4186 6.44839H37.772V4.6251C37.772 2.6144 36.1365 0.978516 34.1254 0.978516H12.2459C10.2348 0.978516 8.59934 2.6144 8.59934 4.6251V6.44839H4.95276C2.4395 6.44839 0.394531 8.49335 0.394531 11.0066V42.0025C0.394531 44.5158 2.4395 46.5608 4.95276 46.5608H41.4186C43.9318 46.5608 45.9768 44.5158 45.9768 42.0025V11.0066C45.9768 8.49335 43.9318 6.44839 41.4186 6.44839ZM41.4186 8.27168C42.9267 8.27168 44.1535 9.49848 44.1535 11.0066V13.7415H37.772V8.27168H41.4186ZM10.4226 4.6251C10.4226 3.61952 11.2408 2.80181 12.2459 2.80181H34.1254C35.1305 2.80181 35.9487 3.61952 35.9487 4.6251V19.2114C35.9487 20.217 35.1305 21.0347 34.1254 21.0347H12.2459C11.2408 21.0347 10.4226 20.217 10.4226 19.2114V4.6251ZM4.95276 8.27168H8.59934V13.7415H2.21782V11.0066C2.21782 9.49848 3.44462 8.27168 4.95276 8.27168ZM41.4186 44.7375H4.95276C3.44462 44.7375 2.21782 43.5107 2.21782 42.0025V15.5648H8.59934V19.2114C8.59934 21.2221 10.2348 22.858 12.2459 22.858H34.1254C36.1365 22.858 37.772 21.2221 37.772 19.2114V15.5648H44.1535V42.0025C44.1535 43.5107 42.9267 44.7375 41.4186 44.7375Z" fill="#827FE3"/>
<path d="M5.86477 29.2432H17.7162C18.2201 29.2432 18.6278 28.835 18.6278 28.3316C18.6278 27.8281 18.2201 27.4199 17.7162 27.4199H5.86477C5.36088 27.4199 4.95312 27.8281 4.95312 28.3316C4.95312 28.835 5.36088 29.2432 5.86477 29.2432Z" fill="#827FE3"/>
<path d="M29.5675 31.9644C29.5675 31.4609 29.1598 31.0527 28.6559 31.0527H5.86477C5.36088 31.0527 4.95312 31.4609 4.95312 31.9644C4.95312 32.4678 5.36088 32.876 5.86477 32.876H28.6559C29.1598 32.876 29.5675 32.4678 29.5675 31.9644Z" fill="#827FE3"/>
<path d="M40.5132 32.876C41.0167 32.876 41.4249 32.4679 41.4249 31.9644C41.4249 31.4609 41.0167 31.0527 40.5132 31.0527C40.0097 31.0527 39.6016 31.4609 39.6016 31.9644C39.6016 32.4679 40.0097 32.876 40.5132 32.876Z" fill="#827FE3"/>
<path d="M36.8648 32.876C37.3683 32.876 37.7764 32.4679 37.7764 31.9644C37.7764 31.4609 37.3683 31.0527 36.8648 31.0527C36.3613 31.0527 35.9531 31.4609 35.9531 31.9644C35.9531 32.4679 36.3613 32.876 36.8648 32.876Z" fill="#827FE3"/>
<path d="M33.2144 32.876C33.7179 32.876 34.126 32.4679 34.126 31.9644C34.126 31.4609 33.7179 31.0527 33.2144 31.0527C32.7109 31.0527 32.3027 31.4609 32.3027 31.9644C32.3027 32.4679 32.7109 32.876 33.2144 32.876Z" fill="#827FE3"/>
<path d="M4.95461 34.7031C4.45072 34.7031 4.04297 35.1113 4.04297 35.6148V41.0846C4.04297 41.5881 4.45072 41.9963 4.95461 41.9963C5.45851 41.9963 5.86626 41.5881 5.86626 41.0846V35.6148C5.86626 35.1113 5.45851 34.7031 4.95461 34.7031Z" fill="#827FE3"/>
<path d="M8.58743 34.7031C8.08353 34.7031 7.67578 35.1113 7.67578 35.6148V41.0846C7.67578 41.5881 8.08353 41.9963 8.58743 41.9963C9.09132 41.9963 9.49907 41.5881 9.49907 41.0846V35.6148C9.49907 35.1113 9.09132 34.7031 8.58743 34.7031Z" fill="#827FE3"/>
<path d="M41.4124 37.4522H23.9232C23.5456 36.3933 22.5431 35.6289 21.3562 35.6289C20.1693 35.6289 19.1668 36.3933 18.7893 37.4522H12.2398C11.7359 37.4522 11.3281 37.8604 11.3281 38.3638C11.3281 38.8673 11.7359 39.2755 12.2398 39.2755H18.7893C19.1669 40.3344 20.1693 41.0988 21.3562 41.0988C22.5431 41.0988 23.5456 40.3344 23.9232 39.2755H41.4124C41.9163 39.2755 42.3241 38.8673 42.3241 38.3638C42.3241 37.8604 41.9163 37.4522 41.4124 37.4522ZM21.3562 39.2755C20.8532 39.2755 20.4446 38.8664 20.4446 38.3638C20.4446 37.8613 20.8532 37.4522 21.3562 37.4522C21.8592 37.4522 22.2679 37.8613 22.2679 38.3638C22.2679 38.8664 21.8592 39.2755 21.3562 39.2755Z" fill="#827FE3"/>
</svg>
